<?xml version="1.0" encoding="UTF-8" standalone="no"?><!-- Generator: Gravit.io --><svg xmlns="http://www.w3.org/2000/svg" xmlns:xlink="http://www.w3.org/1999/xlink" style="isolation:isolate" viewBox="0 0 200 200" width="200pt" height="200pt"><defs><clipPath id="_clipPath_nCojhamHK5U0CBbh4tQhzyrItGCSus3G"><rect width="200" height="200"/></clipPath></defs><g clip-path="url(#_clipPath_nCojhamHK5U0CBbh4tQhzyrItGCSus3G)"><path d=" M 150.13 180.018 C 149.244 179.139 148.824 178.722 148.25 178.15 L 148.25 177.197 C 147.12 175.962 146.015 174.782 144.942 173.575 C 144.037 172.557 143.223 171.449 142.268 170.484 C 141.202 169.409 140.272 168.22 139.143 167.181 C 138.123 166.244 136.761 165.535 136.128 164.264 C 135.395 162.785 133.783 162.335 132.858 161.09 C 132.005 159.941 130.937 158.951 129.966 157.894 C 129.943 157.917 129.79 158.071 129.599 158.262 C 126.292 155.493 123.039 152.629 118.791 150.796 C 118.749 150.684 118.604 150.307 118.427 149.844 C 118.188 150.035 117.969 150.21 117.743 150.391 C 115.538 149.228 113.22 148.182 111.059 146.958 C 108.399 145.449 105.419 144.581 102.96 142.65 C 101.725 141.679 100.095 141.056 98.547 140.708 C 97.598 140.496 97.786 139.882 97.433 139.386 C 97.119 139.58 96.804 139.773 96.383 140.033 C 94.635 139.111 92.835 138.162 90.982 137.185 C 91.331 136.802 91.542 136.571 91.876 136.205 C 91.308 135.4 91.337 134.103 89.308 133.769 C 90.303 133.421 90.918 133.205 91.675 132.94 C 90.736 132.071 90.368 131.73 89.903 131.299 C 89.534 131.524 89.188 131.736 88.808 131.968 C 88.299 131.679 87.714 131.349 87.15 131.03 C 87.192 130.762 87.16 130.428 87.268 130.371 C 88.077 129.953 88.915 129.589 89.737 129.211 C 90.022 127.657 88.5 127.798 87.841 127.141 C 87.996 126.986 88.152 126.832 88.366 126.616 C 88.171 126.23 87.964 125.818 87.746 125.385 C 88.539 124.832 89.287 124.311 90.348 123.572 C 93.065 123.367 96.216 123.383 99.25 122.793 C 100.817 122.49 102.553 122.739 103.865 122.117 C 105.495 121.345 107.126 122.083 108.548 121.517 C 110.118 120.895 111.759 121.304 113.198 120.84 C 114.779 120.329 116.417 120.66 117.857 120.2 C 121.284 119.105 125.002 119.263 128.282 117.645 C 129.742 118.042 131.201 116.769 132.661 117.645 C 134.173 116.69 135.901 116.45 137.606 116.103 C 140.012 115.614 142.215 114.348 144.761 114.317 C 145.48 114.307 146.193 113.744 147.357 113.239 C 144.279 112.349 141.638 111.583 138.407 110.648 C 138.224 110.42 137.618 109.663 137.006 108.899 C 136.049 109.176 135.376 109.371 134.658 109.578 C 131.702 108.437 128.118 108.338 125.524 105.881 C 124.525 107.107 123.098 106.171 122.031 106.51 C 118.531 104.725 114.786 104.536 110.803 103.535 C 110.761 103.488 110.394 103.086 110.045 102.703 C 108.628 102.163 107.128 102.892 105.684 101.975 C 104.636 101.308 103.046 101.165 101.752 101.304 C 100.173 101.472 98.641 101.046 97.486 100.448 C 96.053 99.705 94.746 100.203 93.282 99.817 C 93.03 99.543 92.662 99.141 92.152 98.583 C 88.898 98.885 85.606 98.25 82.196 97.99 C 81.876 97.57 81.557 97.15 81.144 96.608 L 77.778 96.608 C 78.196 96.119 78.39 95.894 78.793 95.425 C 77.109 95.587 76.146 94.692 75.249 93.437 C 75.424 93.132 75.625 92.779 75.794 92.479 C 74.143 90.783 72.447 89.041 70.899 87.453 C 71.148 86.581 71.338 85.92 71.583 85.067 C 71.82 84.953 72.265 84.738 72.709 84.524 L 72.709 83.755 C 72.366 83.639 71.988 83.512 71.413 83.318 C 71.27 81.38 72.418 80.096 73.72 78.916 C 75.246 78.657 75.246 78.657 76.284 76.755 C 75.577 77.153 75.308 77.303 74.89 77.537 C 74.815 77.24 74.727 76.905 74.608 76.438 C 75.343 76.327 75.947 76.237 76.696 76.123 C 76.438 75.798 76.269 75.582 76.142 75.422 C 77.341 73.765 78.543 72.105 79.889 70.246 L 81.351 70.246 C 81.025 69.862 80.834 69.637 80.576 69.332 C 80.958 69.202 81.319 69.081 81.796 68.919 L 81.796 67.529 C 82.222 67.103 82.532 66.795 82.842 66.484 C 83.556 67.079 84.714 67.196 84.888 68.387 C 85.937 66.925 84.587 66.292 83.728 65.237 C 84.378 65.181 84.885 65.136 85.417 65.09 C 86.233 63.741 87.32 62.579 87.374 60.724 C 87.419 59.176 88.955 58.413 90.494 57.784 C 90.244 57.446 90.092 57.241 89.789 56.834 C 90.376 56.719 90.897 56.617 91.562 56.489 C 91.54 56.333 91.508 56.103 91.414 55.42 C 92.026 54.558 93.149 53.47 93.661 52.144 C 94.389 50.257 96.452 49.626 97.166 47.681 C 97.792 45.975 98.962 44.458 100.263 43.026 C 102.038 41.075 103.347 38.703 104.965 36.352 L 103.164 36.352 C 103.017 36.665 102.806 37.115 102.515 37.729 C 102.028 37.423 101.602 37.155 101.091 36.836 C 100.257 37.323 99.317 37.755 98.522 38.374 C 97.855 38.892 96.682 38.951 96.686 40.165 C 95.442 39.838 94.773 40.76 94.044 41.474 C 93.825 41.253 93.671 41.099 93.55 40.979 C 90.871 43.585 87.623 45.262 84.229 46.715 C 83.401 47.584 82.573 48.451 81.752 49.311 L 80.663 49.311 C 79.214 50.347 77.954 51.249 76.52 52.276 C 76.141 51.609 75.871 51.136 75.524 50.525 C 74.584 51.061 73.7 51.565 72.882 52.032 C 73.091 52.886 73.27 53.623 73.45 54.352 C 71.494 55.656 69.699 56.852 67.403 58.382 C 67.694 57.11 68.353 56.774 68.817 56.2 C 67.521 55.404 67.23 56.808 66.522 57.198 C 66.201 56.965 65.883 56.732 65.201 56.233 C 65.042 56.847 64.893 57.421 64.743 57.996 C 64.576 57.833 64.409 57.671 64.241 57.509 C 64.488 57.929 64.735 58.35 65.006 58.813 C 64.134 59.246 63.414 59.604 62.704 59.955 C 62.389 59.68 62.149 59.47 61.892 59.244 C 61.676 59.442 61.446 59.652 61.15 59.924 C 61.318 60.817 61.493 61.767 61.656 62.632 C 59.016 64.186 56.504 65.663 53.992 67.141 C 53.903 67.051 53.812 66.962 53.725 66.873 C 53.908 66.619 54.089 66.365 54.541 65.737 C 52.883 66.041 51.516 66.293 49.927 66.585 C 49.555 65.326 49.212 64.162 48.715 62.472 C 48.668 62.435 48.156 62.033 47.507 61.522 C 50.808 59.382 53.404 56.7 56.139 54.246 C 59.925 50.849 64.245 48.255 68.202 45.135 C 72.321 41.886 76.873 39.183 81.227 36.228 C 83.706 34.546 86.135 32.787 88.648 31.153 C 92.174 28.861 95.675 26.51 99.348 24.48 C 100.967 23.585 102.169 22.155 104.033 21.527 C 105.634 20.988 106.959 19.62 108.395 18.603 C 112.063 16.007 115.803 13.521 119.175 10.512 C 121.369 8.551 123.823 6.878 126.503 4.812 L 130.423 4.812 C 130.453 5.763 130.823 6.788 129.778 7.829 C 130.641 7.925 131.448 8.014 132.21 8.099 C 133.779 10.788 134.05 13.684 133.631 17.06 C 133.323 17.28 132.707 17.721 131.579 18.53 C 131.41 18.597 130.574 18.933 129.569 19.335 C 129.939 20.364 130.217 21.137 130.48 21.865 C 129.608 23.044 128.815 24.285 127.85 25.372 C 127.028 26.299 127.082 28.036 125.027 27.808 C 125.51 28.293 125.665 28.447 125.953 28.736 C 124.431 29.321 124.813 31.72 122.73 31.749 C 122.662 32.324 122.6 32.841 122.528 33.452 C 122.257 33.515 121.96 33.583 121.63 33.659 C 120.146 37.562 117.341 40.643 114.737 43.946 C 114.737 44.187 114.859 44.59 114.715 44.831 C 114.13 45.802 113.654 47.2 112.781 47.555 C 111.36 48.13 111.436 50.253 109.558 50.111 C 109.513 50.906 109.47 51.642 109.426 52.432 C 109.061 52.566 108.682 52.704 108.219 52.874 C 108.198 53.258 108.176 53.679 108.14 54.329 C 107.362 55.068 106.456 55.928 105.385 56.945 C 105.037 56.208 104.833 55.774 104.55 55.171 C 103.998 55.995 103.501 56.739 103.004 57.484 C 103.208 57.811 103.411 58.136 103.737 58.655 C 103.215 58.967 102.65 59.168 102.294 59.559 C 101.982 59.901 101.905 60.457 101.727 60.911 C 101.918 61.189 102.151 61.525 102.544 62.097 C 101.999 62.418 101.532 62.691 100.747 63.153 C 100.544 63.096 99.875 62.907 99.114 62.691 L 99.114 64.021 C 97.996 64.618 97.21 65.026 96.903 66.47 C 96.381 68.923 94.849 71.073 93.683 73.318 C 93.505 73.662 92.862 73.764 92.438 73.975 C 92.661 74.243 92.845 74.466 92.827 74.443 C 91.907 75.518 91.19 76.643 90.203 77.432 C 89.2 78.235 87.93 78.705 86.486 79.476 C 86.193 80.193 86.884 80.381 88.663 80.019 C 87.515 80.939 87.13 81.249 86.661 81.623 C 86.25 81.417 85.826 81.205 85.02 80.802 C 85.374 81.711 85.611 82.321 85.879 83.01 C 85.718 83.224 85.534 83.473 85.231 83.878 C 85.538 84.164 85.927 84.801 86.233 84.764 C 87.728 84.581 88.856 85.297 89.952 85.885 C 92.355 85.255 94.461 86.581 96.692 86.831 C 99.147 87.105 101.629 87.509 103.974 88.253 C 106.22 88.963 108.498 89.752 110.778 89.961 C 113.198 90.183 115.412 91.054 117.764 91.44 C 120.162 91.834 122.525 92.574 124.825 93.387 C 127.041 94.172 129.377 94.402 131.605 95.227 C 133.869 96.066 136.276 96.757 138.651 97.199 C 141.005 97.637 143.085 98.719 145.362 99.283 C 147.631 99.843 149.877 100.514 152.097 101.248 C 154.401 102.01 156.654 102.925 158.943 103.737 C 161.142 104.519 163.358 105.255 165.753 106.075 C 166.332 106.654 167.098 107.418 167.852 108.173 C 167.666 108.383 167.455 108.622 167.264 108.836 C 167.163 110.241 168.37 110.228 169.025 110.596 C 169.285 112.007 169.529 113.327 169.793 114.755 C 169.681 114.875 169.462 115.112 169.258 115.332 C 170.792 117.048 169.624 118.512 168.653 119.796 C 167.671 121.092 166.371 122.147 165.13 123.388 C 161.967 123.831 159.223 126.395 155.615 125.425 C 155.516 125.91 155.454 126.209 155.352 126.711 C 153.412 127.03 151.359 127.366 149.036 127.746 C 149.013 127.822 148.901 128.195 148.818 128.472 C 146.996 128.978 145.237 129.514 143.452 129.937 C 142.75 130.103 141.822 130.304 141.288 129.991 C 139.929 129.197 138.795 129.203 137.441 129.991 C 136.818 130.354 135.901 130.204 135.144 130.735 L 137.719 130.735 C 137.532 131.13 137.448 131.418 137.39 131.412 C 135.671 131.255 134.086 131.909 132.543 132.424 C 131.243 132.859 129.782 133.089 128.837 132.558 C 127.611 131.869 126.555 132.388 124.94 131.845 C 125.427 132.52 125.568 132.717 125.711 132.915 C 123.764 134.166 122.952 134.514 121.423 133.759 C 120.2 133.155 119.182 133.625 118.041 133.901 C 118.912 134 119.784 134.098 121.282 134.268 C 119.159 134.72 117.668 135.036 115.564 135.483 C 120.753 137.823 124.643 141.087 128.84 143.888 C 133.116 146.741 135.104 148.554 137.738 151.904 C 138.217 152.511 139.078 152.808 139.61 153.388 C 140.53 154.394 141.249 155.592 142.206 156.557 C 143.085 157.443 144.312 158 145.132 158.927 C 147.303 161.382 149.055 164.186 151.401 166.509 C 151.631 166.737 151.496 167.335 151.534 167.809 C 151.998 168.097 152.671 168.294 152.984 168.743 C 154.514 170.938 156.107 173.113 157.362 175.464 C 158.36 177.332 159.508 179.117 160.374 181.099 C 161.23 183.058 161.364 185.075 161.916 187.018 C 162.485 189.028 161.935 191.19 160.959 193.289 C 158.643 191.292 156.46 193.821 154.123 193.682 C 155.223 193.767 156.324 193.853 157.426 193.938 C 157.415 194.113 157.403 194.288 157.392 194.463 L 155.219 194.463 C 154.562 194.463 153.905 194.452 153.249 194.465 C 152.514 194.482 151.701 194.263 151.209 195.086 C 150.802 194.119 150.011 195.255 149.601 194.825 C 148.863 194.056 148.512 195.685 147.74 195.027 C 147.312 194.665 146.611 194.557 146.015 194.484 C 145.278 194.395 144.523 194.463 143.846 194.463 C 143.654 193.916 143.521 193.536 143.31 192.934 C 143.11 193.513 142.984 193.879 142.809 194.389 C 142.461 194.419 142.051 194.456 141.379 194.513 C 140.749 193.884 140.001 193.138 139.329 192.467 C 138.748 192.498 138.328 192.521 137.944 192.542 C 137.774 193.006 137.636 193.384 137.446 193.908 C 137.18 193.353 136.976 192.928 136.772 192.503 L 136.052 192.503 C 135.853 192.925 135.64 193.375 135.407 193.872 C 133.518 193.258 131.758 192.379 129.695 192.429 C 128.761 192.45 127.81 191.768 126.764 191.365 C 126.781 191.352 126.627 191.472 126.391 191.653 C 124.738 191.212 123.025 190.754 120.915 190.19 C 121.627 189.611 122.102 189.224 122.544 188.864 C 121.497 188.718 120.803 188.798 119.726 189.211 C 119.643 189.148 119.553 189.094 119.476 189.023 C 119.317 188.873 119.165 188.715 118.984 188.533 C 118.838 188.693 118.696 188.856 118.545 189.01 C 118.472 189.085 118.383 189.145 118.294 189.216 C 117.429 188.934 116.559 188.65 115.415 188.277 L 115.415 185.391 C 115.267 185.318 115.119 185.247 114.97 185.176 C 114.7 185.589 114.432 186.003 114.048 186.591 C 114.178 186.828 114.409 187.247 114.847 188.045 C 113.328 187.669 112.088 187.363 110.885 187.065 C 110.797 186.668 110.732 186.369 110.663 186.059 C 109.008 187.18 107.791 186.273 106.554 185.316 C 106.159 185.011 105.679 184.778 105.202 184.629 C 104.133 184.293 103.041 184.03 101.737 183.68 C 101.726 183.642 101.64 183.35 101.462 182.748 C 100.853 182.789 100.122 182.839 98.961 182.918 C 99.147 183.075 98.96 182.811 98.712 182.724 C 96.704 182.02 94.616 181.556 92.663 180.684 C 92.479 180.602 92.236 180.668 92.032 180.618 C 90.708 180.286 90.114 178.582 88.56 178.716 C 87.187 178.834 86.33 177.748 85.168 177.376 C 83.917 176.977 82.704 176.46 81.483 175.974 C 81.106 175.825 80.777 175.53 80.393 175.444 C 79.976 175.35 79.522 175.423 78.886 175.423 C 78.58 175.018 78.186 174.501 77.896 174.117 L 75.669 174.117 C 74.354 172.736 73.045 171.318 70.867 171.475 C 70.673 171.489 70.395 171.453 70.284 171.328 C 68.411 169.206 65.461 169.206 63.227 167.696 C 61.072 166.241 58.443 165.508 56.15 164.229 C 53.112 162.537 50.197 160.627 47.238 158.794 C 46.966 158.626 46.696 158.377 46.547 158.1 C 45.148 155.513 43.777 152.911 42.527 150.559 C 42.84 148.945 43.097 147.618 43.428 145.913 C 43.955 145.589 44.822 145.058 45.663 144.542 C 47.421 145.221 49.157 145.794 50.804 146.558 C 52.461 147.326 54.105 148.173 55.622 149.183 C 58.944 151.392 62.675 152.8 66.123 154.747 C 68.163 155.899 70.551 156.443 72.242 158.207 C 76.101 159.227 79.515 161.259 83.118 162.866 C 84.675 163.56 86.146 164.497 87.839 164.947 C 89.399 165.36 90.892 166.018 92.418 166.562 C 97.184 168.267 101.941 169.992 106.72 171.66 C 109.208 172.529 111.719 173.344 114.245 174.096 C 116.79 174.853 119.459 175.355 121.915 176.209 C 126.221 177.704 130.749 177.955 135.07 179.277 C 137.351 179.975 139.893 179.884 142.324 179.994 C 144.693 180.104 147.072 180.018 150.13 180.018 Z " fill="rgb(236,175,122)"/></g></svg>