<?xml version="1.0" encoding="UTF-8" standalone="no"?><!-- Generator: Gravit.io --><svg xmlns="http://www.w3.org/2000/svg" xmlns:xlink="http://www.w3.org/1999/xlink" style="isolation:isolate" viewBox="0 0 200 200" width="200pt" height="200pt"><defs><clipPath id="_clipPath_qL6megNsxeuDjDCP6iKPrdN4g4Cb5ldf"><rect width="200" height="200"/></clipPath></defs><g clip-path="url(#_clipPath_qL6megNsxeuDjDCP6iKPrdN4g4Cb5ldf)"><path d=" M 68.478 162.607 L 68.446 162.66 L 71.885 164.757 C 71.896 164.739 71.906 164.721 71.917 164.704 L 68.478 162.607 Z  M 121.13 69.54 C 122.444 69.894 123.759 69.904 125.075 69.792 C 123.76 69.47 122.445 69.408 121.13 69.54 Z  M 191.195 96.606 C 190.854 97.369 189.805 97.795 190.134 98.993 C 191.034 98.382 191.113 97.493 191.195 96.606 Z  M 48.577 81.837 C 50.173 82.014 51.739 82.108 53.274 81.818 C 51.687 81.617 50.113 81.616 48.577 81.837 M 108.282 174.993 C 106.662 174.462 105.04 173.932 103.42 173.401 C 104.956 174.294 106.56 174.938 108.282 174.993 M 33.306 48.096 C 31.557 48.433 29.607 49.568 29.044 50.453 C 30.564 49.612 31.935 48.855 33.306 48.096 Z  M 94.034 19.427 C 95.607 19.159 97.188 18.951 98.588 18.244 C 96.876 18.085 95.439 18.736 94.034 19.427 Z  M 34.409 40.281 C 33.026 40.199 31.844 40.591 30.732 41.171 C 30.557 41.262 30.294 41.304 30.401 41.588 C 30.506 41.868 30.752 41.816 30.941 41.738 C 32.1 41.26 33.254 40.768 34.409 40.281 M 124.367 95.253 C 125.99 95.769 127.586 95.857 129.176 95.59 C 127.568 94.946 125.956 95.177 124.367 95.253 Z  M 149.932 62.217 C 149.948 62.091 149.965 61.966 149.981 61.84 L 144.397 60.832 L 144.355 61.151 C 146.236 61.341 148.02 62.262 149.932 62.217 M 24.737 49.425 C 26.591 48.233 28.445 47.041 30.3 45.848 C 28.169 46.655 26.259 47.763 24.737 49.425 Z  M 57.559 49.381 C 55.522 50.18 53.484 50.978 51.447 51.777 C 53.727 51.522 55.725 50.667 57.559 49.381 M 61.482 71.325 C 61.462 71.195 61.444 71.065 61.425 70.935 C 59.032 71.115 56.647 71.329 54.365 72.063 C 56.737 71.817 59.11 71.571 61.482 71.325 M 123.161 88.514 C 124.575 89.173 130.165 89.21 131.624 88.718 C 128.658 88.646 125.909 88.58 123.161 88.514 Z  M 130.836 83.644 C 127.797 83.549 124.758 83.454 121.719 83.359 C 121.723 83.465 121.727 83.571 121.731 83.677 C 124.781 84.039 127.823 84.072 130.836 83.644 Z  M 48.219 89.02 C 48.223 89.133 48.226 89.246 48.231 89.359 C 50.715 90.019 53.164 89.695 55.619 89.539 L 55.608 89.212 C 53.145 89.148 50.682 89.083 48.219 89.02 Z  M 127.487 29.557 C 124.173 28.736 117.164 28.722 115.775 29.537 C 117.846 29.546 119.76 29.617 121.658 29.544 C 123.604 29.47 125.557 29.58 127.487 29.557 M 137.696 11.469 C 139.829 11.758 141.926 12.15 143.988 12.709 C 146.02 13.26 148.02 13.952 150.035 14.581 C 146.007 12.407 140.448 11.021 137.696 11.469 Z  M 52.292 74.96 C 56.023 74.699 59.783 74.589 63.397 73.722 C 59.641 73.852 55.9 74.064 52.292 74.96 Z  M 106.148 23.496 C 102.537 23.762 98.848 23.739 95.646 25.549 C 99.134 24.815 102.651 24.193 106.148 23.496 Z  M 189.965 61.154 C 190.636 64.482 191.478 67.768 192.95 70.911 C 192.573 67.523 191.431 64.301 189.965 61.154 Z  M 111.607 79.005 C 108.692 78.091 100.624 77.929 98.519 78.749 C 102.935 78.835 107.131 78.918 111.607 79.005 Z  M 38.223 50.925 C 40.087 51.518 46.644 49.374 48.064 47.721 C 44.468 48.427 41.439 49.915 38.223 50.925 Z  M 84.508 35.342 C 89.315 33.885 94.441 33.407 99.146 31.694 C 93.961 32.009 89.107 33.319 84.508 35.342 M 65.08 76.8 C 65.046 76.583 65.011 76.367 64.976 76.15 C 60.034 76.462 55.091 76.771 50.26 77.782 C 55.297 78.083 60.164 77.282 65.08 76.8 Z  M 37.139 83.537 C 43.174 83.547 49.241 83.933 55.545 82.939 C 49.23 82.038 38.994 82.341 37.139 83.537 Z  M 66.56 162.633 C 75.376 168.137 84.509 173.111 93.84 177.726 C 93.795 177.816 93.751 177.905 93.706 177.995 C 91.79 177.048 89.88 176.086 87.956 175.155 C 82.007 172.278 76.296 168.961 70.576 165.66 C 66.34 163.216 62.476 160.288 58.896 156.974 C 54.643 153.035 49.89 149.698 45.27 146.198 C 36.398 139.475 27.861 132.373 20.137 124.391 C 19.529 123.763 18.761 123.144 18.369 122.473 C 17.399 120.81 15.931 119.464 15.184 117.65 C 14.786 116.685 13.81 115.96 13.458 114.864 C 12.499 111.889 10.628 109.316 9.031 106.616 C 6.567 102.451 4.062 98.204 3.296 93.501 C 1.921 85.056 1.322 76.573 3.115 68.311 C 4.972 59.761 9.018 52.448 15.709 46.621 C 18.59 44.111 21.262 41.421 24.837 39.778 C 26.691 38.926 28.649 38.315 30.613 37.719 C 32.967 37.004 35.174 35.963 37.69 35.606 C 41.172 35.111 44.64 34.648 48.187 34.479 C 51.912 34.302 54.502 32.158 56.857 29.645 C 59.767 26.539 62.296 23.106 65.525 20.273 C 74.553 12.351 85.299 8.355 97.867 8.034 C 104.21 7.872 110.549 8.331 116.889 8.547 C 122.84 8.75 128.813 9.407 134.753 9.568 C 148.177 9.933 158.911 16.385 168.874 24.718 C 173.298 28.418 176.936 32.83 180.447 37.343 C 184.282 42.273 188.318 47.055 191.208 52.582 C 196.407 62.524 198.993 72.787 197.648 83.609 C 197.001 88.82 196.346 94.031 194.581 98.951 C 192.845 103.79 190.42 108.227 186.985 112.129 C 182.843 116.836 178.035 120.917 173.857 125.584 C 173.051 126.484 172.366 127.453 171.749 128.477 C 170.121 131.18 168.089 133.641 166.745 136.509 C 165.119 139.978 163.701 143.548 162.066 147.012 C 159.564 152.316 156.398 157.202 152.769 161.825 C 149.352 166.177 145.558 170.161 141.419 173.844 C 138.95 176.041 136.228 177.982 133.255 179.494 C 131.854 180.207 130.597 181.569 128.647 181.138 C 123.352 183.696 117.513 182.727 111.796 182.525 C 109.29 182.436 106.821 181.831 104.339 181.496 C 102.318 181.224 100.682 180.169 98.88 179.494 C 93.964 177.653 89.332 175.137 84.66 172.735 C 78.519 169.577 72.544 166.117 66.56 162.633 Z " fill="rgb(0,0,0)"/></g></svg>