<?xml version="1.0" encoding="UTF-8" standalone="no"?><!-- Generator: Gravit.io --><svg xmlns="http://www.w3.org/2000/svg" xmlns:xlink="http://www.w3.org/1999/xlink" style="isolation:isolate" viewBox="0 0 200 200" width="200pt" height="200pt"><defs><clipPath id="_clipPath_28pyX5479WfCeJYElgfcmYOc0UZ2Qt0b"><rect width="200" height="200"/></clipPath></defs><g clip-path="url(#_clipPath_28pyX5479WfCeJYElgfcmYOc0UZ2Qt0b)"><g><g><path d=" M 88.782 122.282 C 90.099 122.282 91.257 122.483 92.311 122.239 C 94.262 121.787 96.887 117.812 96.737 115.793 C 96.715 115.484 96.613 115.034 96.4 114.91 C 95.421 114.348 94.389 113.879 93.377 113.376 C 92.776 114.41 90.916 113.25 90.662 114.963 C 90.558 115.669 88.945 115.218 89.375 116.471 C 88.333 118.323 89.096 120.296 88.782 122.282 Z  M 83.633 114.257 C 83.95 113.714 84.361 113.213 84.557 112.638 C 85.268 110.556 87.114 109.755 88.886 109.255 C 90.117 108.907 91.428 108.492 92.844 108.591 C 96.06 108.818 98.319 110.328 99.928 113.054 C 100.678 114.325 101.383 115.611 101.7 117.042 C 101.913 118.011 102.175 119.133 101.89 120.016 C 100.784 123.448 98.898 126.328 95.329 127.692 C 94.346 128.066 93.323 128.342 92.313 128.646 C 92.152 128.695 91.937 128.713 91.795 128.644 C 89.207 127.386 86.705 125.954 85.202 123.404 C 84.557 122.31 83.959 121.044 84.118 119.668 C 84.309 117.999 83.596 116.243 84.593 114.653 C 84.295 114.53 83.995 114.406 83.633 114.257 Z " fill="rgb(0,0,0)"/></g><g><path d=" M 6.676 145.179 C 5.839 144.989 5.352 144.638 5.652 143.649 C 5.781 143.589 6.01 143.529 6.189 143.398 C 7.895 142.166 9.992 141.981 11.912 141.37 C 12.75 141.103 14.078 141.342 14.78 141.879 C 16.959 143.55 19.378 145 20.409 147.868 C 21.261 150.235 20.917 153.273 19.413 155.21 C 18.539 156.334 17.317 157.04 16.418 158.182 C 14.944 157.944 13.391 158.543 11.925 157.656 C 11.24 157.242 8.259 155.666 7.675 155.23 C 6.316 154.215 5.786 152.73 5.278 151.224 C 5.173 150.913 5.006 150.517 5.111 150.26 C 5.785 148.61 5.305 146.629 6.676 145.179 Z " fill="rgb(0,0,0)"/></g><g><path d=" M 125.648 90.919 C 127.741 92.915 131.237 94.029 134.112 93.919 C 135.489 93.868 136.529 93.384 137.442 92.442 C 137.97 91.896 138.512 91.365 139.061 90.814 C 138.749 90.385 138.469 90.147 138.381 89.852 C 137.974 88.496 137.232 87.645 135.699 87.529 C 135.004 87.477 134.345 87.023 133.651 86.814 C 133.197 86.678 132.398 86.449 132.286 86.616 C 131.652 87.568 131.307 86.075 130.475 86.8 C 129.996 87.25 129.196 88.002 128.39 88.758 C 127.739 88.246 127.226 87.843 126.773 87.486 C 125.123 88.31 125.957 89.702 125.648 90.919 Z  M 141.995 92.64 C 142.499 92.815 142.805 92.921 143.129 93.033 C 142.867 93.858 142.623 94.63 142.377 95.407 C 141.963 95.454 141.549 95.503 140.969 95.57 C 141.161 95.828 141.282 95.992 141.469 96.244 C 140.576 97.342 139.551 98.185 137.968 98.116 C 137.573 98.098 137.16 98.257 136.771 98.384 C 135.693 98.739 134.644 98.813 133.572 98.33 C 133.205 98.165 132.509 97.978 132.391 98.129 C 131.404 99.405 130.592 97.764 129.624 97.985 C 129.218 98.078 128.833 97.016 127.963 96.986 C 127.499 96.97 127.087 96.286 126.594 96.007 C 126.016 95.682 125.789 94.813 124.934 94.938 C 124.532 93.639 123.233 93.04 122.581 91.962 C 121.129 89.563 121.128 86.115 122.321 83.794 C 123.377 81.738 125.367 81.136 127.197 82.519 C 128.083 83.191 128.756 83.725 129.766 82.914 C 130.114 83.466 130.438 83.244 130.691 82.849 C 131.093 82.22 131.707 82.183 132.306 82.308 C 134.388 82.745 136.502 83.335 138.177 84.591 C 139.651 85.696 140.707 87.358 141.947 88.774 C 141.847 90.03 143.443 91.217 141.995 92.64 Z " fill="rgb(0,0,0)"/></g><g><path d=" M 161.182 152.565 C 161.974 152.152 162.863 151.468 164.163 151.997 C 164.025 152.184 163.908 152.346 163.669 152.673 C 164.182 152.806 165.016 152.833 165.077 153.067 C 165.508 154.683 167.332 155.141 167.877 156.639 C 168.799 159.172 169.607 161.699 168.254 164.323 C 168.103 164.615 167.95 164.682 168.165 165.094 C 168.763 166.233 168.207 167.052 167.163 167.643 C 166.436 168.053 166.838 168.463 167.261 168.873 C 166.353 170.039 165.443 171.208 164.547 172.358 L 161.653 172.358 C 161.118 171.782 160.46 171.088 159.816 170.381 C 159.235 169.746 158.476 169.349 157.953 168.586 C 156.767 166.857 156.542 164.99 156.939 163.067 C 157.249 161.572 157.983 160.169 158.351 158.68 C 158.591 157.708 158.829 156.927 159.799 156.396 C 160.19 156.183 160.458 155.401 160.447 154.886 C 160.43 154.131 160.956 153.848 161.284 153.37 C 161.392 153.215 161.23 152.875 161.182 152.565 Z " fill="rgb(0,0,0)"/></g><g><path d=" M 187.864 69.895 C 187.741 69.772 187.561 69.67 187.502 69.52 C 187.071 68.427 185.916 68.61 185.113 68.316 C 184.683 68.159 183.923 68.872 183.325 69.215 C 183.058 69.368 182.527 70.241 182.173 70.873 C 181.898 71.365 181.598 72.168 181.228 72.215 C 180.397 72.324 180.567 72.787 180.49 73.283 C 180.439 73.625 180.211 73.94 180.08 74.227 C 181.925 76.102 183.66 75.316 185.561 74.433 C 187.634 73.47 187.995 71.861 187.864 69.895 Z  M 183.002 79.133 C 182.604 79.714 182.254 80.222 181.893 80.751 C 181.656 80.53 181.446 80.191 181.292 80.214 C 179.415 80.495 178.795 78.691 177.533 77.969 C 177.39 77.888 177.293 77.374 177.38 77.3 C 178.692 76.18 177.293 75.352 177.119 74.383 C 176.91 74.57 176.726 74.737 176.539 74.902 C 176.477 74.839 176.359 74.774 176.362 74.715 C 176.422 73.567 175.798 72.316 176.953 71.323 C 177.215 71.096 177.166 70.542 177.36 70.196 C 177.86 69.307 177.993 68.134 178.907 67.576 C 179.845 67.003 179.478 65.835 180.413 65.162 C 182 64.018 184.48 63.439 186.339 64.133 C 189.039 65.143 190.758 67.197 191.764 69.681 C 192.573 71.68 192.956 73.946 192.58 76.14 C 192.36 77.418 191.237 78.296 190.24 79.063 C 189.941 79.293 189.192 78.94 188.491 78.828 C 188.536 79.009 188.544 79.402 188.727 79.683 C 189.005 80.113 189.117 80.517 188.579 80.691 C 188.032 80.867 187.831 80.489 187.865 79.95 C 187.871 79.862 187.625 79.758 187.351 79.554 C 186.939 79.898 186.494 80.27 185.958 80.717 C 185.874 80.426 185.792 80.141 185.636 79.602 C 184.944 80.244 184.321 80.82 183.408 81.666 C 183.235 80.59 183.125 79.899 183.002 79.133 Z " fill="rgb(0,0,0)"/></g><g><path d=" M 50.322 106.3 C 50.757 106.668 50.951 106.831 51.187 107.03 C 51.353 106.695 51.478 106.107 51.699 106.068 C 52.261 105.97 53.013 105.911 53.427 106.205 C 54.67 107.088 55.977 107.999 56.899 109.181 C 57.772 110.302 58.352 111.733 58.745 113.118 C 58.972 113.919 58.844 114.838 58.376 115.806 C 57.414 117.789 56.45 119.568 54.443 120.735 C 53.555 121.25 52.558 121.274 51.717 121.794 C 51.385 122.001 50.982 122.091 50.594 122.239 C 50.45 121.984 50.265 121.655 50.079 121.327 C 49.782 121.752 49.582 121.701 49.127 121.388 C 48.31 120.823 46.721 119.378 46.033 118.815 C 43.816 117.005 45.093 114.754 45.19 112.69 C 45.213 112.172 46.04 111.691 46.528 111.16 C 48.339 112.133 49.275 113.688 49.909 115.406 C 51.685 115.185 51.972 113.528 52.948 112.605 C 53.163 112.401 53.017 111.814 53.058 110.975 C 52.206 111.825 51.641 112.39 51.167 112.864 C 49.831 112.769 49.993 111.159 48.867 111.061 C 48.849 110.018 48.67 108.942 48.873 107.944 C 48.989 107.377 49.732 106.938 50.322 106.3 Z " fill="rgb(0,0,0)"/></g><g><path d=" M 150.957 37.834 C 151.711 37.079 152.27 36.52 152.922 35.868 L 156.187 35.868 C 156.527 34.444 155.474 35.02 154.795 34.832 C 154.867 34.649 154.888 34.429 155.007 34.326 C 155.839 33.611 154.608 33.333 154.725 32.607 C 155.283 31.283 156.836 31.041 158.002 30.32 C 158.333 30.115 158.977 30.228 159.398 30.394 C 161.535 31.238 162.31 33.156 163.17 35.09 C 163.725 36.333 163.209 37.801 164.178 38.887 C 163.794 40.309 163.645 41.858 162.96 43.116 C 162.232 44.451 160.677 45.178 159.214 45.324 C 158.404 45.405 157.697 46.357 156.901 45.74 C 156.226 45.216 155.276 45.511 154.662 44.683 C 154.224 44.093 153.253 44.053 152.989 43.022 C 152.858 42.513 151.886 42.432 151.447 41.623 C 150.738 40.32 151.263 39.075 150.957 37.834 Z " fill="rgb(0,0,0)"/></g><g><path d=" M 141.701 120.341 C 142.028 121.647 142.316 122.745 142.572 123.85 C 142.63 124.098 142.693 124.492 142.563 124.613 C 141.403 125.687 142.481 126.57 142.763 127.518 C 144.79 127.551 144.734 127.423 145.774 125.943 C 147.012 124.18 146.799 122.263 146.764 120.344 C 146.759 119.995 146.425 119.575 146.128 119.324 C 145.534 118.822 144.556 119.598 144.015 118.761 L 143.463 119.604 C 142.44 118.921 142.181 120.018 141.701 120.341 Z  M 139.293 122.031 C 138.977 121.418 138.642 120.768 138.369 120.237 C 138.666 118.663 140.458 119.098 141.041 117.876 C 141.613 116.675 143.36 117.187 144.296 115.976 C 143.925 115.727 143.566 115.486 143.2 115.24 C 143.252 115.173 143.325 114.987 143.427 114.969 C 145.201 114.645 146.495 115.593 147.702 116.671 C 148.708 117.567 149.283 118.793 150.038 119.878 C 150.462 120.487 149.724 121.048 150.365 121.436 C 150.938 121.785 151.115 122.352 151.008 123.002 C 150.889 123.716 151.563 124.484 151.443 124.855 C 151.157 125.728 151.135 126.642 150.842 127.489 C 150.295 129.07 149.494 130.51 148.255 131.67 C 147.544 132.335 146.544 132.559 145.292 132.34 C 142.269 131.812 142.233 131.844 140.87 130.346 C 139.802 129.172 139.11 127.832 138.823 126.191 C 138.659 125.26 138.106 124.439 138.762 123.518 C 137.883 122.674 139.212 122.694 139.293 122.031 Z " fill="rgb(0,0,0)"/></g><g><path d=" M 68.676 50.593 C 71.073 51.943 71.625 53.069 70.308 55.126 C 69.629 56.187 70.469 57.383 69.51 58.254 C 69.368 58.383 69.742 59.086 69.884 59.52 C 70.277 60.715 70.665 60.822 71.965 60.479 C 74.447 59.826 75.622 58.071 76.22 55.691 C 75.295 55.428 74.364 55.177 73.441 54.899 C 72.314 54.56 72.723 53.294 72.262 52.712 C 72.793 52.181 73.376 51.598 73.96 51.015 C 75.565 50.117 76.562 51.871 78.025 52.268 C 79.099 54.002 80.598 55.506 80.444 57.828 C 80.247 60.76 78.983 63.205 75.78 64.378 C 73.107 65.359 70.992 64.948 68.698 62.909 C 67.3 61.667 66.161 60.388 66.111 58.182 C 66.044 55.269 66.601 52.71 68.676 50.593 Z " fill="rgb(0,0,0)"/></g><g><path d=" M 65 158.564 C 62.715 159.235 61.381 157.695 59.845 156.777 C 58.436 155.934 58.252 154.273 57.835 152.909 C 57.451 151.645 58.227 150.332 58.685 149.109 C 59.07 148.08 59.707 147.142 60.228 146.17 C 59.99 146.083 59.685 145.973 59.318 145.84 C 59.707 145.432 60.048 145.072 60.473 144.624 C 59.928 144.526 59.448 144.439 58.659 144.296 C 59.169 143.916 59.529 143.426 59.855 143.448 C 60.767 143.51 61.659 143.194 62.618 143.717 C 65.06 145.049 66.308 147.279 67.208 149.671 C 68.47 153.028 67.795 156.08 65 158.564 Z " fill="rgb(0,0,0)"/></g><g><path d=" M 94.25 171.06 C 93.999 171.564 93.784 171.996 93.534 172.497 C 95.267 174.278 95.983 176.425 95.706 178.911 C 95.64 179.5 95.656 180.009 95.215 180.56 C 94.378 181.609 94.265 183.139 92.641 183.693 C 91.938 183.934 91.171 184.132 90.698 183.89 C 89.381 183.213 87.866 182.69 87.049 181.335 C 86.641 180.658 86.262 179.957 86.176 179.066 C 85.891 176.142 87.079 173.715 88.566 171.387 C 88.901 170.864 89.466 170.485 90.141 170.18 C 90.917 169.83 91.397 169.545 92.175 170.125 C 92.74 170.549 93.487 170.73 94.25 171.06 Z " fill="rgb(0,0,0)"/></g><g><path d=" M 189.215 110.723 C 188.175 109.922 187.564 108.477 185.943 108.537 C 185.536 107.833 184.893 107.168 184.77 106.418 C 184.475 104.599 184.901 102.976 186.78 102.086 C 187.002 101.98 187.155 101.726 187.396 101.485 C 187.068 101.374 186.775 101.274 186.746 101.265 C 187.204 100.807 187.768 100.243 188.331 99.68 C 188.209 99.536 188.088 99.393 187.966 99.249 C 188.207 99.216 188.46 99.123 188.687 99.163 C 189.745 99.346 190.963 98.626 191.86 99.706 C 193.027 101.109 193.888 102.637 194.229 104.484 C 194.682 106.935 192.315 109.645 190.518 110.519 C 190.06 110.741 189.491 109.843 189.215 110.723 Z " fill="rgb(0,0,0)"/></g><g><path d=" M 119.402 142.786 C 119.402 143.513 119.356 143.871 119.41 144.214 C 119.684 146 118.193 146.633 117.155 147.42 C 116.124 148.202 115.138 147.053 114.173 146.768 C 113.272 146.503 112.529 145.637 111.77 144.976 C 110.491 143.863 110.012 141.219 110.823 139.635 C 111.007 139.275 110.81 138.661 111.666 138.581 C 112.177 138.533 112.66 137.719 113.07 137.185 C 114.146 135.791 115.089 135.632 116.241 136.849 C 116.993 137.644 117.865 138.294 118.402 139.361 C 119.024 140.595 119.722 141.716 119.402 142.786 Z " fill="rgb(0,0,0)"/></g><g><path d=" M 90.7 82.822 C 91.839 84.046 93.108 85.103 93.706 86.825 C 94.446 88.958 94.043 90.122 92.229 91.365 C 90.162 92.781 88.78 92.536 86.976 90.696 C 86.731 90.446 86.481 90.201 86.283 90.004 C 85.984 89.081 86.67 88.015 85.688 87.294 C 85.142 84.862 86.786 82.87 89.38 82.823 C 89.817 82.816 90.255 82.822 90.7 82.822 Z " fill="rgb(0,0,0)"/></g><g><path d=" M 115.187 55.749 C 115.661 55.379 115.951 55.153 116.241 54.927 C 115.902 54.643 115.563 54.357 115.231 54.078 C 115.367 53.928 115.53 53.745 115.759 53.491 C 115.162 53.36 114.631 53.244 113.992 53.105 C 114.739 51.101 116.573 50.955 118.01 50.3 C 118.291 50.173 118.897 50.543 119.244 50.819 C 120.653 51.934 121.68 53.36 122.394 55.006 C 122.487 55.223 122.613 55.616 122.524 55.692 C 121.28 56.754 122.922 58.808 121.292 59.519 C 120.972 59.658 120.254 58.838 119.396 58.778 C 119.745 59.159 120.091 59.542 120.488 59.977 C 119.849 60.401 119.245 60.842 118.598 61.206 C 118.4 61.319 118.082 61.245 117.824 61.216 C 117.669 61.198 117.388 61.081 117.394 61.044 C 117.607 59.605 115.891 60.674 115.7 59.729 C 115.605 59.262 115.254 58.834 115.21 58.37 C 115.129 57.505 115.187 56.627 115.187 55.749 Z " fill="rgb(0,0,0)"/></g><g><path d=" M 118.926 17.159 L 118.926 16 L 121.272 16 C 122.462 17.787 124.091 19.48 123.515 22.171 C 123.138 22.196 122.666 22.224 122.005 22.266 L 122.005 20.093 C 121.583 20.173 121.258 20.138 121.139 20.278 C 120.94 20.511 120.92 20.888 120.742 21.147 C 120.414 21.624 120.234 21.517 119.794 20.809 C 119.496 20.33 119.088 19.918 118.677 19.414 C 119.217 19.165 119.575 19.001 119.956 18.825 C 118.847 18.277 118.867 18.297 119.78 17.347 C 119.939 17.183 119.849 16.78 119.891 16.268 C 119.499 16.631 119.316 16.799 118.926 17.159 Z " fill="rgb(0,0,0)"/></g></g></g></svg>