<?xml version="1.0" encoding="UTF-8" standalone="no"?><!-- Generator: Gravit.io --><svg xmlns="http://www.w3.org/2000/svg" xmlns:xlink="http://www.w3.org/1999/xlink" style="isolation:isolate" viewBox="0 0 200 200" width="200pt" height="200pt"><defs><clipPath id="_clipPath_soQXZftZHRgelIpRtbi3L7gMPqyeVxPZ"><rect width="200" height="200"/></clipPath></defs><g clip-path="url(#_clipPath_soQXZftZHRgelIpRtbi3L7gMPqyeVxPZ)"><g><path d=" M 97.611 141.772 C 97.464 141.951 97.316 142.131 97.17 142.311 L 92.164 137.408 C 92.353 137.216 92.542 137.025 92.73 136.833 C 94.356 138.479 95.984 140.126 97.611 141.772 Z  M 52.592 124.453 C 52.466 124.583 52.339 124.714 52.213 124.844 C 49.326 122.527 46.439 120.208 43.551 117.89 C 43.718 117.683 43.886 117.476 44.053 117.27 C 46.9 119.664 49.746 122.059 52.592 124.453 Z  M 89.456 114.087 C 90.6 111.785 91.699 109.458 92.902 107.186 C 93.645 105.782 94.714 105.659 96.143 106.418 C 100.617 108.798 102.959 113.994 101.96 119.149 C 100.872 124.768 96.739 127.255 91.987 129.104 C 91.615 129.249 90.593 128.527 90.317 127.984 C 88.05 123.506 88.337 118.875 89.456 114.087 Z  M 68.619 128.55 C 55.387 125.321 45.773 117.25 38.215 106.261 C 29.61 93.751 24.112 79.884 19.955 65.404 C 18.696 61.019 17.549 56.599 16.185 52.248 C 15.82 51.08 15.051 49.779 14.074 49.151 C 13.4 48.718 12.049 49.338 11 49.488 C 11.132 50.118 11.235 50.757 11.403 51.376 C 11.857 53.045 12.482 54.682 12.784 56.376 C 13.768 61.889 14.544 67.439 15.584 72.94 C 16.286 76.648 17.151 80.341 18.225 83.957 C 18.904 86.24 20.218 88.328 21.042 90.578 C 22.349 94.145 23.156 97.929 24.768 101.341 C 27.276 106.653 29.842 112.035 33.167 116.845 C 40.517 127.48 50.488 134.478 63.356 137.264 C 69.344 138.56 75.216 140.074 81.422 139.367 C 82.1 139.29 83.126 140.005 83.587 140.643 C 88.232 147.072 94.404 151.503 101.788 154.091 C 107.314 156.028 112.95 158.101 118.699 158.809 C 123.521 159.404 128.652 158.501 133.505 157.547 C 137.82 156.697 142.048 155.119 146.126 153.412 C 151.935 150.979 156.704 147.001 160.526 142.01 C 161.075 141.294 160.944 139.644 160.518 138.702 C 160.045 137.655 158.907 137.772 157.594 137.965 C 153.486 138.569 151.046 141.559 148.23 143.943 C 142.895 148.461 136.562 150.23 129.885 150.238 C 118.491 150.252 108.352 146.032 99.206 139.475 C 94.266 135.932 94.384 135.722 99.508 132.903 C 106.252 129.194 110.923 123.813 112.629 116.222 C 114.61 107.412 109.121 99.276 100.256 97.462 C 97.473 96.893 95.146 98.038 92.879 99.252 C 87.728 102.011 84.091 106.241 81.743 111.543 C 79.312 117.026 77.561 122.654 78.763 128.794 C 79.054 130.276 78.262 130.665 76.874 130.342 C 74.131 129.704 71.371 129.143 68.619 128.55 Z " fill="rgb(0,0,0)"/></g><g><path d=" M 175.52 144.952 C 176.482 139.936 177.336 134.488 178.652 129.155 C 179.111 127.29 180.178 125.709 178.422 124.085 C 178.061 123.752 177.541 123.236 177.185 123.301 C 171.161 124.407 165.235 122.807 159.263 122.735 C 155.263 122.687 151.343 123.332 148.076 125.907 C 147.424 126.421 147.171 127.441 146.735 128.228 C 147.524 128.632 148.286 129.322 149.104 129.393 C 155.047 129.911 160.998 130.363 166.954 130.704 C 168.823 130.811 168.95 131.579 168.722 133.181 C 168.198 136.875 167.968 140.61 167.487 144.312 C 167.282 145.894 166.756 147.435 166.36 148.99 C 166.327 149.12 166.082 149.211 166.074 149.33 C 165.988 150.555 165.519 152.647 165.942 152.847 C 167.16 153.426 168.825 153.607 170.16 153.291 C 174.285 152.314 174.21 148.375 175.52 144.952 Z " fill="rgb(0,0,0)"/></g></g></svg>