<?xml version="1.0" encoding="UTF-8" standalone="no"?><!-- Generator: Gravit.io --><svg xmlns="http://www.w3.org/2000/svg" xmlns:xlink="http://www.w3.org/1999/xlink" style="isolation:isolate" viewBox="0 0 200 200" width="200pt" height="200pt"><defs><clipPath id="_clipPath_ehwQu1zNVGRDrK4AlssF8rQXgSkJE7M7"><rect width="200" height="200"/></clipPath></defs><g clip-path="url(#_clipPath_ehwQu1zNVGRDrK4AlssF8rQXgSkJE7M7)"><path d=" M 27.771 131.756 C 29.016 130.909 30.032 130.344 30.903 129.605 C 34.504 126.544 38.513 124.076 42.431 121.464 C 46.017 119.073 49.752 116.977 53.488 114.841 C 56.915 112.883 60.284 110.793 63.853 109.112 C 66.385 107.917 68.804 106.495 71.419 105.451 C 73.289 104.705 74.912 103.207 76.819 102.723 C 81.209 101.607 85.147 99.395 89.373 97.891 C 95.173 95.825 100.888 93.487 106.787 91.696 C 112.92 89.836 118.973 87.697 125.627 86.3 C 124.167 85.824 123.111 85.217 122.031 85.175 C 118.888 85.056 115.991 83.541 112.824 83.672 C 111.396 82.46 109.539 83.421 108.088 82.821 C 104.961 81.527 101.593 81.592 98.408 80.743 C 96.585 80.257 94.781 79.856 92.888 80.036 C 92.236 79.016 91.193 79.428 90.285 79.285 C 89.401 79.148 88.559 78.728 87.673 78.6 C 85.601 78.297 83.444 78.353 81.452 77.796 C 78.031 76.839 74.527 76.385 71.088 75.604 C 69.608 75.267 68.027 75.304 66.691 74.832 C 63.879 73.839 60.84 74.068 58.071 72.84 C 56.891 72.319 55.392 72.795 54.005 72.117 C 52.719 71.491 51.103 71.427 49.62 71.343 C 48.217 71.265 46.908 70.991 45.547 70.64 C 42.892 69.955 40.092 69.809 37.461 69.063 C 35.392 68.477 33.561 68.044 31.46 69.032 C 30.769 69.357 29.561 68.58 28.685 68.335 C 28.491 67.756 28.353 67.343 28.244 67.02 C 27.551 67.379 26.956 67.684 26.355 67.993 C 26.201 69.175 26.517 70.213 26.965 71.336 C 27.343 72.276 27.043 73.485 27.043 74.575 L 27.043 78.209 C 28.621 78.856 27.192 79.899 27.357 80.743 C 27.581 81.881 27.747 83.053 27.752 84.211 C 27.789 91.116 27.771 98.02 27.771 104.925 L 27.771 131.756 Z  M 35.657 147.157 C 36.164 147.715 36.32 147.887 36.675 148.276 C 35.161 148.965 33.733 149.617 32.279 150.283 C 32.381 150.408 32.584 150.655 32.932 151.075 C 31.663 152.279 30.255 153.42 29.092 154.771 C 27.987 156.056 26.441 156.821 25.44 158.253 C 25.009 158.868 23.871 159.115 23.009 159.271 C 22.072 159.44 21.081 159.308 19.665 159.308 C 20.011 158.799 20.205 158.511 20.423 158.188 C 20.243 157.989 20.011 157.735 19.676 157.368 C 19.967 156.732 20.287 156.032 20.588 155.371 C 19.244 154.303 18.312 155.495 17.129 155.848 C 16.976 155.04 16.853 154.38 16.756 153.872 C 15.995 153.392 15.321 152.967 14.704 152.577 C 14.752 151.407 14.293 150.263 15.397 149.481 C 14.341 148.529 14.581 147.441 14.975 146.267 C 15.652 144.24 16.381 142.213 16.82 140.129 C 17.251 138.088 17.08 135.899 17.651 133.912 C 18.525 130.863 17.749 127.691 18.44 124.771 C 19.285 121.188 18.601 117.644 19.077 114.139 C 20.216 105.769 19.639 97.368 19.719 88.981 C 19.728 87.973 20.955 86.959 19.771 85.948 C 20.509 84.812 20.549 83.547 20.507 82.249 C 20.465 81.039 20.497 79.825 20.497 78.613 C 20.497 77.4 20.444 76.185 20.527 74.979 C 20.556 74.573 20.932 74.193 21.113 73.868 C 19.623 71.397 20.901 68.928 21.272 66.52 C 20.272 66.211 19.429 65.949 18.609 65.695 C 18.22 64.305 18.013 63.195 19.253 61.88 C 18.399 62.061 17.829 62.183 16.979 62.364 C 16.835 62.244 16.436 61.916 16.037 61.587 C 16.423 61.203 16.593 61.031 16.751 60.873 C 15.805 60.143 14.851 59.403 14 58.747 C 14.453 57.895 14.825 57.192 15.229 56.432 C 15.047 56.064 14.815 55.597 14.524 55.009 C 15.227 54.436 15.877 53.903 16.981 53 C 18.755 53.145 21.104 53.331 23.449 53.544 C 23.776 53.573 24.083 53.815 24.409 53.843 C 27.337 54.104 30.272 54.297 33.195 54.6 C 34.44 54.728 35.656 55.108 36.899 55.296 C 38.143 55.487 39.543 54.871 40.595 56.036 C 42.761 55.547 44.725 56.896 46.837 56.741 C 48.168 56.643 49.325 57.076 50.547 57.46 C 51.743 57.836 53.159 56.967 54.293 58.127 C 54.536 58.376 55.213 58.199 55.689 58.217 C 57.077 58.273 58.415 58.143 59.792 58.871 C 60.953 59.487 62.42 58.755 63.888 59.535 C 65.167 60.216 67 59.784 68.635 60.3 C 70.708 60.953 73.015 60.845 75.209 61.143 C 76.333 61.293 77.432 61.621 78.547 61.851 C 79.777 62.105 81.011 62.348 82.245 62.577 C 83.365 62.785 84.431 62.612 85.644 63.167 C 87.357 63.949 89.496 63.911 91.463 63.999 C 93.104 64.071 94.533 65.311 96.249 64.763 C 99.173 66.208 102.627 65.401 105.527 66.945 C 109.193 66.624 112.609 68.107 116.177 68.557 C 119.029 68.917 121.985 69.451 124.804 70.432 C 126.628 71.065 128.7 70.939 130.623 71.337 C 132.515 71.729 134.473 71.813 136.295 72.553 C 137.683 73.116 139.385 72.255 140.632 73.491 C 144.389 73.383 147.916 75.004 151.667 74.945 C 153.336 76.044 155.513 75.068 157.035 75.989 C 158.68 76.983 160.699 75.429 162.055 77.112 C 162.149 77.229 162.523 77.097 162.761 77.131 C 164.701 77.401 166.767 76.485 168.6 77.752 C 170.067 76.424 172.031 77.795 173.38 77.035 C 174.911 76.172 176.373 76.583 177.857 76.401 C 179.939 76.149 182.016 75.805 184.103 75.701 C 186.411 75.584 188.444 76.353 190.123 78.433 C 188.92 79.143 187.752 79.833 186.495 80.576 C 187.667 81.007 189.041 80.628 190.349 80.796 C 191.661 82.352 191.649 82.355 190.689 84.045 C 191.119 84.473 191.547 84.903 192.176 85.532 C 192.06 86.829 191.927 88.308 191.777 89.968 C 191.185 91.099 190.46 92.48 189.699 93.931 C 186.88 93.32 184.359 94.889 181.584 94.633 C 178.94 94.391 176.141 94.1 173.617 94.699 C 170.168 95.516 166.469 95.055 163.221 96.763 C 159.812 96.608 156.615 97.883 153.299 98.363 C 149.752 98.876 146.208 99.851 142.683 100.715 C 139.924 101.389 137.229 102.284 134.369 102.665 C 131.952 102.987 129.637 104.067 127.26 104.753 C 125.197 105.348 122.948 105.54 121.081 106.497 C 119.211 107.455 117.185 107.747 115.283 108.283 C 109.748 109.84 104.479 112.095 99.035 113.867 C 93.592 115.639 88.445 118.147 83.144 120.275 C 76.881 122.788 70.957 126.007 64.996 129.112 C 60.489 131.459 56.115 134.113 51.861 136.955 C 47.856 139.633 43.665 142.019 40.003 145.199 C 39.364 145.753 38.353 145.868 37.532 146.225 C 36.911 146.495 36.317 146.825 35.657 147.157 Z " fill="rgb(255,169,169)"/></g></svg>