<?xml version="1.0" encoding="UTF-8" standalone="no"?><!-- Generator: Gravit.io --><svg xmlns="http://www.w3.org/2000/svg" xmlns:xlink="http://www.w3.org/1999/xlink" style="isolation:isolate" viewBox="0 0 200 200" width="200pt" height="200pt"><defs><clipPath id="_clipPath_YtzPU8swj1hoefVKw1YLRlIGmQrVZpk2"><rect width="200" height="200"/></clipPath></defs><g clip-path="url(#_clipPath_YtzPU8swj1hoefVKw1YLRlIGmQrVZpk2)"><g><path d=" M 36.016 62.835 C 35.933 62.523 35.773 62.355 35.479 62.411 C 34.973 62.509 34.689 62.82 34.66 63.343 C 34.644 63.63 34.813 63.686 35.052 63.643 C 35.542 63.556 35.77 63.173 36.016 62.835 Z  M 33.426 154.943 C 33.926 153.537 34.25 152.085 34.671 150.659 C 33.847 151.966 33.4 153.386 33.426 154.943 Z  M 37.134 59.918 C 39.221 57.668 41.398 55.507 43.61 53.379 C 40.922 55.039 38.846 57.299 37.134 59.918 Z  M 78.263 37.648 C 82.571 35.699 86.155 32.78 89.575 29.634 C 86.007 32.315 82.444 34.998 78.634 37.336 C 78.498 37.42 78.386 37.543 78.263 37.648 M 127.538 145.928 C 126.286 150.207 123.8 153.835 122.549 157.989 C 124.123 156.879 128.187 147.322 127.538 145.928 Z  M 77.003 188.465 C 77.843 188.465 78.691 188.538 79.523 188.452 C 82.929 188.102 86.29 187.456 89.652 186.819 C 94.639 185.875 99.238 183.756 103.958 182.017 C 106.135 181.214 108.218 180.119 109.693 178.188 C 114.568 171.805 118.493 164.933 121.279 157.348 C 123.503 151.295 126.397 145.491 128.774 139.489 C 130.471 135.205 131.554 130.717 132.039 126.111 C 132.443 122.274 132.216 118.425 132.244 114.58 C 132.266 111.418 132.21 108.258 132.409 105.086 C 132.549 102.852 132.048 100.524 131.856 98.236 C 131.518 94.205 131.579 90.225 132.804 86.316 C 133.934 82.709 135.466 79.274 137.369 76.03 C 141.219 69.461 146.046 63.608 151.11 57.958 C 153.829 54.924 156.497 51.859 158.745 48.458 C 162.883 42.2 164.869 35.288 164.697 27.804 C 164.564 21.953 162.001 17.41 156.953 14.324 C 148.179 8.959 138.916 7.242 128.972 10.509 C 121.271 13.04 114.414 17.06 108.141 22.166 C 104.229 25.351 100.657 28.917 96.755 32.111 C 91.442 36.462 86.043 40.684 79.785 43.643 C 74.941 45.933 69.85 47.544 64.73 49.058 C 60.359 50.351 56.191 52.096 52.253 54.387 C 47.708 57.03 43.87 60.413 41.213 65.02 C 40.898 65.569 40.885 65.562 40.167 65.577 C 39.948 65.582 39.935 65.763 39.862 65.909 C 39.197 67.235 38.763 68.619 38.745 70.119 C 38.733 71.132 39.124 72.581 38.777 73.069 C 37.663 74.633 38.502 76.149 38.707 77.468 C 38.962 79.103 39.391 80.8 39.892 82.439 C 41.149 86.553 42.594 90.594 44.643 94.373 C 46.522 97.84 48.343 101.338 48.885 105.265 C 49.041 106.403 50.413 107.702 48.949 108.918 C 48.949 108.918 49.052 109.031 49.096 109.099 C 49.873 110.297 50.265 111.649 50.325 113.038 C 50.382 114.365 50.856 115.605 50.913 116.916 C 51.005 119.033 51.79 121.091 51.336 123.265 C 51.13 124.254 51.178 125.304 51.176 126.326 C 51.172 128.602 50.401 130.77 50.282 133.052 C 50.237 133.906 49.49 134.992 49.079 135.971 C 47.605 139.479 44.99 142.151 42.695 145.078 C 40.537 147.831 38.111 150.53 37.884 154.305 C 37.793 155.828 37.34 157.435 38.125 158.864 C 40.239 162.704 41.35 167.058 44.25 170.501 C 46.507 173.181 48.022 176.428 50.771 178.757 C 53.46 181.034 56.027 183.485 59.133 185.167 C 60.658 185.993 62.204 186.838 63.994 187.233 C 68.294 188.183 72.621 188.525 77.003 188.465 M 112.595 11.23 C 112.832 11.158 113.089 11.122 113.304 11.008 C 118.673 8.152 124.268 5.891 130.203 4.503 C 130.417 4.452 130.711 4.46 130.839 4.13 C 130.437 4.188 130.06 4.232 129.686 4.297 C 124.759 5.154 120.191 7.034 115.755 9.261 C 114.651 9.816 113.443 10.246 112.617 11.256 C 111.295 11.348 110.487 12.464 109.342 12.924 C 109.142 13.004 108.926 13.368 109.231 13.678 C 109.333 13.78 109.473 13.847 109.536 13.726 C 110.203 12.455 111.819 12.356 112.595 11.23 Z  M 97.597 30.556 C 99.133 29.601 100.355 28.296 101.574 26.99 C 100.261 28.191 98.674 29.092 97.622 30.582 C 96.5 30.98 95.784 31.89 94.983 32.693 C 96 32.163 96.874 31.452 97.597 30.556 Z  M 131.486 152.727 C 130.595 155.166 129.741 157.59 127.937 159.598 C 126.846 160.811 125.977 162.272 125.257 163.743 C 124.996 164.277 124.518 164.439 124.245 164.916 C 123.608 166.031 123.375 167.29 122.56 168.373 C 120.723 170.815 118.91 173.267 116.992 175.651 C 115.727 177.224 114.542 178.877 113.228 180.413 C 110.778 183.275 107.65 185.194 104.179 186.561 C 100.168 188.14 96.195 189.854 92.095 191.163 C 84.454 193.604 76.655 194.586 68.584 193.624 C 63.722 193.044 58.986 192.125 54.819 189.642 C 48.154 185.67 42.66 180.38 38.779 173.557 C 38.634 173.301 38.447 173.069 38.272 172.831 C 36.686 170.674 35.254 168.445 34.526 165.818 C 34.165 164.518 33.632 163.271 33.044 162.045 C 31.299 158.408 31.634 154.746 33.043 151.099 C 34.462 147.427 36.832 144.311 39.48 141.547 C 43.019 137.854 44.68 133.572 45.209 128.622 C 45.701 124.019 44.893 119.56 44.073 115.085 C 43.57 112.338 43.12 109.581 42.579 106.842 C 41.707 102.428 39.677 98.492 37.591 94.548 C 34.876 89.411 32.801 84.004 31.546 78.301 C 30.496 73.53 31.014 68.845 32.639 64.346 C 33.575 61.754 34.792 59.21 36.764 57.111 C 38.684 55.066 40.621 53.064 42.911 51.431 C 48.414 47.506 54.481 44.752 60.913 42.748 C 68.257 40.46 75.409 37.752 81.684 33.143 C 86.333 29.727 90.757 26.041 95.005 22.141 C 100.791 16.831 106.851 11.888 113.854 8.232 C 120.642 4.689 127.732 1.93 135.492 2.001 C 147.171 2.108 157.171 6.235 164.255 15.842 C 169.494 22.947 170.343 31.089 168.631 39.59 C 168.323 41.125 168.009 42.659 167.651 44.183 C 166.729 48.097 165.138 51.696 162.799 54.997 C 161.436 56.92 159.966 58.763 158.603 60.666 C 157.002 62.9 155.219 64.946 153.376 66.942 C 151.241 69.253 149.35 71.733 147.552 74.301 C 146.927 75.195 145.934 75.738 145.328 76.7 C 143.039 80.339 140.658 83.924 139.023 87.926 C 138.141 90.087 137.241 92.194 137.067 94.629 C 136.961 96.122 137.052 97.609 136.922 99.093 C 136.727 101.315 137.11 103.505 137.464 105.677 C 137.599 106.51 136.589 107.185 136.806 107.243 C 137.985 107.556 137.156 108.218 137.18 108.699 C 137.194 108.984 137.014 109.296 137.078 109.557 C 138.172 113.995 137.699 118.528 137.793 123.011 C 137.879 127.172 138.243 131.412 137.118 135.491 C 136.707 136.978 136.408 138.505 135.975 139.992 C 135.455 141.776 134.496 143.448 134.336 145.309 C 134.111 147.93 132.786 150.126 131.832 152.469 C 131.78 152.598 131.586 152.67 131.457 152.772 C 131.579 151.376 132.722 150.336 132.762 148.901 C 131.783 150.982 130.56 152.953 130.053 155.247 C 130.531 154.407 131.008 153.567 131.486 152.727" fill="rgb(0,0,0)"/><path d=" M 88.472 50.932 C 91.208 49.327 93.426 47.127 95.502 44.766 C 93.167 46.832 90.873 48.942 88.472 50.932 Z  M 104.285 37.194 C 104.194 37.097 104.103 37 104.012 36.903 C 101.615 39.093 99.018 41.059 96.937 43.603 L 104.285 37.194 Z  M 49.182 153.234 C 47.777 154.628 47.137 158.953 48.059 159.843 C 48.322 157.653 48.329 155.381 49.182 153.234 Z  M 59.816 66.115 C 56.52 68.349 53.579 70.911 52.155 74.811 C 54.421 71.658 56.911 68.707 59.816 66.115 Z  M 108.785 33.221 C 114.296 28.904 120.074 25.073 126.54 22.354 C 122.304 22.914 110.555 30.679 108.785 33.221 Z  M 106.847 136.173 C 105.53 138.803 104.714 141.62 103.939 144.43 C 103.146 147.304 102.075 150.078 101.147 152.899 C 100.269 155.566 99 158.105 97.904 160.7 C 102.597 153.131 104.347 144.523 106.847 136.173 Z  M 59.7 93.957 C 59.722 93.795 59.686 93.562 59.778 93.487 C 59.945 93.351 60.032 93.559 60.143 93.681 C 60.457 94.026 60.31 94.547 60.741 94.892 C 61.536 95.529 62.083 96.33 62.478 97.342 C 62.816 98.204 63.737 98.831 64.365 99.591 C 64.506 99.761 64.681 100.047 64.501 100.287 C 64.164 100.734 64.434 100.88 64.804 100.985 C 65.261 101.114 65.503 101.459 65.659 101.858 C 66.219 103.294 66.965 104.658 67.132 106.24 C 67.24 107.26 67.404 108.48 67.782 109.225 C 68.835 111.3 68.873 113.487 68.774 115.565 C 68.683 117.447 68.321 119.374 68.408 121.259 C 68.483 122.888 67.664 124.215 67.436 125.732 C 67.16 127.568 65.887 129.171 65.636 131.079 C 65.481 132.251 64.244 133.142 64.254 134.07 C 64.279 136.216 62.378 137.371 62.042 139.306 C 61.935 139.922 61.683 140.843 61.148 141.429 C 60.048 142.631 59.726 144.295 58.587 145.492 C 57.153 147 56.408 149.019 54.879 150.515 C 53.961 151.415 53.243 152.575 52.439 153.61 C 51.711 154.546 51.776 155.998 51.535 157.236 C 51.187 159.027 52.215 160.423 52.679 161.997 C 53.787 165.758 56.098 168.866 58.803 171.375 C 64.086 176.274 70.413 177.884 77.449 175.32 C 78.163 175.06 78.876 174.798 79.597 174.556 C 83.821 173.137 87.47 170.793 90.86 167.916 C 95.295 164.15 97.396 158.9 99.853 153.929 C 100.713 152.191 101.047 150.06 101.696 148.13 C 102.141 146.809 102.619 145.489 102.925 144.133 C 103.233 142.765 103.653 141.436 104.063 140.104 C 104.471 138.773 105.046 137.487 105.37 136.139 C 105.658 134.94 106.248 133.868 106.496 132.625 C 106.828 130.964 107.371 129.309 107.822 127.65 C 109.444 121.686 110.658 115.644 111.389 109.502 C 111.794 106.099 112.089 102.663 112.794 99.317 C 115.072 88.504 120.051 78.949 126.909 70.363 C 129.975 66.525 133.227 62.835 136.436 59.114 C 141.031 53.786 143.525 47.445 145.403 40.793 C 146.572 36.657 146.369 32.57 144.851 28.579 C 143.986 26.304 142.696 24.405 139.975 23.956 C 137.441 23.537 134.969 24.137 132.574 24.58 C 131.149 24.844 129.598 25.522 128.168 26.213 C 124.739 27.873 121.261 29.44 118.279 31.855 C 117.569 32.429 116.685 32.506 115.976 33.08 C 115.067 33.814 114.433 34.806 113.442 35.466 C 112.873 35.844 112.192 35.881 111.667 36.366 C 108.341 39.438 104.581 42.022 101.579 45.467 C 100.537 46.663 99.25 47.643 98.114 48.762 C 93.851 52.961 88.891 56.103 83.302 58.156 C 76.451 60.673 70.058 64.047 64.077 68.169 C 61.79 69.745 59.34 71.231 57.7 73.627 C 56.75 75.017 55.527 76.434 55.379 78.026 C 55.159 80.381 54.919 82.841 55.721 85.187 C 55.915 85.753 55.57 86.542 55.69 86.735 C 56.154 87.478 56.434 88.318 56.936 89.03 C 58.022 90.57 59.518 91.887 59.7 93.957 Z  M 58.399 139.374 C 58.76 139.238 58.85 138.877 58.974 138.589 C 60.159 135.844 61.441 133.134 62.234 130.239 C 62.698 128.545 63.512 126.931 63.485 125.115 C 62.666 128.327 61.238 131.322 60.224 134.462 C 59.686 136.128 58.68 137.626 58.426 139.399 C 56.978 141.31 56.267 143.605 55.096 145.66 C 56.334 143.636 57.79 141.723 58.399 139.374 M 112.171 131.739 C 112.12 131.43 112.169 131.155 111.86 131 C 111.806 131.476 111.423 131.93 112.053 132.347 C 112.419 132.589 112.075 132.982 111.981 133.275 C 111.137 135.908 110.317 138.553 109.503 141.19 C 108.728 143.701 107.802 146.178 107.221 148.75 C 106.93 150.041 106.304 151.201 105.83 152.42 C 105.611 152.979 105.428 153.513 105.428 154.121 C 105.427 155.358 105.342 155.39 104.198 154.74 C 104.103 154.686 103.958 154.718 103.804 154.709 C 103.804 154.846 103.761 154.982 103.81 155.064 C 104.539 156.274 104.385 157.726 103.528 158.892 C 102.963 159.661 102.449 160.439 102.205 161.45 C 101.838 162.971 100.795 164.169 99.583 165.169 C 99.473 165.26 99.223 165.218 99.211 165.43 C 99.143 166.684 98.134 167.285 97.372 168.032 C 96.646 168.745 95.75 169.266 95.066 170.049 C 93.898 171.39 92.583 172.5 90.981 173.393 C 90.241 173.805 89.49 174.588 88.667 174.91 C 85.625 176.103 82.642 177.437 79.56 178.549 C 74.354 180.427 69.228 179.876 64.06 178.623 C 61.021 177.885 58.272 176.525 55.76 174.657 C 54.8 173.943 54.023 173.073 53.233 172.191 C 50.217 168.82 48.103 164.962 47.041 160.575 C 46.36 157.766 46.789 155.02 48.197 152.491 C 48.567 151.825 48.852 150.953 50.101 151.104 C 50.645 151.169 51.185 150.157 51.607 149.515 C 54.59 144.973 57.016 140.149 58.97 135.081 C 61.026 129.746 62.821 124.355 63.514 118.628 C 64.017 114.471 63.455 110.485 62.442 106.473 C 61.63 103.26 59.954 100.574 58.039 97.958 C 56.605 95.999 55.322 93.929 53.905 91.956 C 53.403 91.256 54.037 90.81 54.185 89.911 C 53.41 90.965 53.283 90.753 52.953 89.886 C 52.623 89.019 52.017 88.21 51.539 87.37 C 50.517 85.571 49.933 83.61 49.914 81.589 C 49.906 80.823 49.506 80.183 49.609 79.458 C 49.739 78.543 49.803 77.605 50.062 76.725 C 50.519 75.169 50.806 73.529 52.327 72.472 C 52.747 72.18 52.497 71.275 52.975 70.763 C 55.018 68.569 56.941 66.231 59.496 64.604 C 65.575 60.734 71.942 57.437 78.612 54.659 C 83.256 52.725 87.689 50.281 91.349 46.687 C 96.735 41.399 102.4 36.422 108.229 31.632 C 113.754 27.092 119.675 23.195 126.464 20.757 C 129.315 19.734 132.238 19.126 135.258 18.918 C 139.57 18.62 142.798 20.583 145.304 23.842 C 150.115 30.103 151.244 37.148 149.393 44.724 C 148.149 49.82 146.316 54.706 143.73 59.28 C 142.517 61.427 141.361 63.599 139.359 65.232 C 138.405 66.012 137.893 67.327 137.159 68.385 C 134.649 72 131.492 75.1 128.994 78.737 C 127.882 80.356 126.941 82.065 125.893 83.713 C 123.604 87.311 122.042 91.282 120.321 95.155 C 118.812 98.552 118.266 102.265 117.722 105.944 C 117.136 109.909 116.516 113.869 115.841 117.819 C 115.451 120.101 115.179 122.457 114.367 124.595 C 113.804 126.08 113.783 127.662 113.108 129.102 C 112.721 129.928 113.137 131.059 112.171 131.739" fill="rgb(0,0,0)"/><path d=" M 98.126 115.478 C 98.252 115.544 98.38 115.612 98.506 115.678 C 98.914 114.597 100.072 113.828 99.539 112.352 C 99.068 113.394 98.597 114.436 98.126 115.478 Z  M 73.845 74.816 C 71.201 75.312 68.489 77.802 68.764 79.489 C 70.045 77.398 71.9 76.059 73.845 74.816 Z  M 96.249 58.835 C 96.171 58.732 96.094 58.63 96.016 58.528 C 92.493 61.581 88.97 64.635 85.447 67.689 C 85.522 67.776 85.597 67.863 85.672 67.951 L 96.249 58.835 Z  M 106.419 49.119 C 109.731 46.674 113.135 44.37 116.793 42.454 C 120.491 40.517 124.231 38.675 128.025 36.957 C 120.318 40.104 112.702 43.421 106.419 49.119 Z  M 82.623 148.007 C 83.514 146.555 84.596 145.274 85.323 143.686 C 86.968 140.093 88.878 136.62 90.443 132.982 C 92.777 127.562 95.232 122.2 98.112 117.042 C 98.292 116.719 98.459 116.394 97.981 115.926 C 92.255 126.42 88.183 137.573 82.623 148.007 M 106.754 54.718 C 105.261 55.386 104.523 56.83 103.451 57.931 C 102.044 58.749 101.266 60.222 100.014 61.21 C 97.855 62.913 95.638 64.562 93.618 66.421 C 89.438 70.27 84.823 73.413 79.705 75.887 C 77.805 76.806 75.589 77.003 73.965 78.591 C 72.972 79.563 71.765 80.349 71.676 81.871 C 71.543 84.125 71.895 86.304 72.982 88.331 C 74.99 92.078 77.696 95.353 80.061 98.859 C 82.518 102.502 84.714 106.209 85.274 110.746 C 85.808 115.086 85.486 119.387 85.231 123.696 C 85.179 124.569 84.589 125.401 84.556 126.412 C 84.512 127.824 84.498 129.393 83.601 130.55 C 81.984 132.638 81.448 135.184 80.389 137.502 C 80.042 138.262 80.254 139.382 79.587 139.963 C 78.697 140.739 78.457 141.761 78.031 142.737 C 77.865 143.118 77.634 143.501 77.342 143.791 C 76.377 144.75 75.77 146.017 75.098 147.111 C 73.779 149.26 72.311 151.162 70.458 152.848 C 69.924 153.334 69.08 153.275 68.76 154.033 C 68.439 154.79 67.849 155.35 67.231 155.872 C 66.6 156.404 66.277 157.102 66.026 157.917 C 66.489 158.05 66.788 157.861 67.093 157.749 C 69.011 157.047 70.651 155.807 72.504 154.965 C 75.753 153.487 78.494 151.343 80.664 148.476 C 82.288 146.331 83.39 143.905 84.553 141.511 C 86.856 136.767 89.197 132.038 91.357 127.228 C 92.567 124.534 93.825 121.867 95.164 119.24 C 97.389 114.876 99.371 110.4 101.303 105.907 C 102.851 102.308 104.132 98.598 104.97 94.752 C 105.701 91.394 106.976 88.211 108.222 85.022 C 110.595 78.95 113.008 72.903 116.92 67.594 C 120.435 62.823 123.994 58.085 127.171 53.073 C 129.541 49.332 131.598 45.459 132.608 41.11 C 132.716 40.643 133.062 40.031 132.666 39.688 C 132.33 39.397 131.781 39.779 131.356 39.947 C 126.903 41.709 122.616 43.808 118.468 46.209 C 117.718 46.642 117.053 47.623 115.906 47.143 C 115.744 47.076 115.406 47.303 115.505 47.497 C 115.852 48.185 115.178 48.176 114.92 48.347 C 113.288 49.425 111.678 50.53 110.086 51.668 C 108.842 52.558 107.977 53.827 106.754 54.718 Z  M 73.881 142.65 C 74.24 142.625 74.343 142.333 74.475 142.075 C 76.145 138.799 77.382 135.333 78.898 131.991 C 79.625 130.386 79.377 128.462 80.598 127.035 C 80.806 126.791 80.741 126.55 80.449 126.425 C 80.067 126.261 79.861 126.516 79.819 126.828 C 79.653 128.047 79.071 129.115 78.666 130.25 C 77.625 133.172 76.732 136.136 75.339 138.938 C 74.76 140.103 74.118 141.329 73.91 142.678 C 72.88 144.043 72.145 145.562 71.57 147.165 C 72.292 145.635 73.675 144.445 73.881 142.65 Z  M 119.118 71.632 C 119.57 72.398 119.417 72.879 119.113 73.62 C 118.372 75.428 116.859 76.848 116.573 78.864 C 116.472 79.584 115.913 80.128 115.57 80.733 C 114.699 82.275 114.532 84.068 113.748 85.57 C 113.004 86.995 112.685 88.556 111.927 89.949 C 111.524 90.688 111.666 91.609 111.142 92.326 C 110.788 92.809 109.913 95.816 109.811 96.394 C 109.556 97.852 109.26 99.302 108.966 100.753 C 108.915 101.002 108.803 101.258 108.464 101.204 C 108.115 101.149 107.946 101.308 108.08 101.619 C 108.582 102.782 107.982 103.825 107.535 104.739 C 106.235 107.395 105.106 110.124 103.964 112.843 C 103.738 113.382 102.687 113.236 103.062 114.309 C 103.25 114.852 102.64 115.791 102.218 116.492 C 101.806 117.177 101.53 117.94 101.157 118.65 C 98.414 123.881 95.892 129.216 93.503 134.619 C 92.178 137.616 90.597 140.498 89.201 143.465 C 88.848 144.215 88.617 145.057 88.381 145.859 C 88.163 146.595 87.843 147.652 86.944 148.115 C 86.777 148.201 86.673 148.276 86.618 148.448 C 85.518 151.913 82.562 153.725 79.926 155.755 C 78.038 157.208 75.737 158.066 73.595 159.07 C 72.27 159.692 71.051 160.68 69.508 160.898 C 67.96 161.117 66.423 161.397 64.854 161.428 C 63.332 161.459 61.925 161.103 60.665 160.228 C 60.005 159.77 59.904 159.188 60.193 158.453 C 60.906 156.63 61.983 155.103 63.641 154.019 C 64.276 153.603 64.955 153.243 65.378 152.565 C 65.679 152.08 66.19 152.69 66.751 152.139 C 68.734 150.189 69.969 147.817 71.241 145.433 C 73.875 140.495 75.836 135.274 77.724 130.024 C 78.541 127.752 78.966 125.384 79.338 123.002 C 79.573 121.498 79.731 119.994 79.832 118.478 C 79.878 117.774 80.161 117.197 81.024 117.625 C 81.538 117.88 81.697 117.506 81.939 117.241 C 82.11 117.053 82.075 116.837 81.91 116.679 C 81.609 116.391 81.347 116.691 81.112 116.806 C 80.146 117.276 79.83 116.995 79.879 115.939 C 80.015 113.028 80.089 110.116 79.333 107.254 C 78.956 105.827 78.428 104.459 77.74 103.167 C 75.727 99.387 73.127 95.98 70.828 92.381 C 69.146 89.747 67.416 87.113 67.063 83.898 C 66.981 83.149 66.387 82.238 67.422 81.63 C 67.479 81.597 67.529 81.491 67.525 81.423 C 67.324 78.481 67.415 78.408 69.414 76.347 C 70.711 75.009 72.293 74.078 73.905 73.337 C 79.835 70.61 84.833 66.643 89.725 62.397 C 95.681 57.227 101.106 51.46 107.293 46.584 C 114.071 41.242 121.825 37.582 130.054 35.054 C 134.398 33.719 137.617 36.961 136.67 41.469 C 135.724 45.97 134.017 50.183 131.75 54.192 C 129.147 58.793 126.164 63.151 123.278 67.568 C 122.487 68.779 121.815 70.094 120.85 71.212 C 120.349 71.791 119.977 72.3 119.118 71.632 Z " fill="rgb(0,0,0)"/></g></g></svg>