<?xml version="1.0" encoding="UTF-8" standalone="no"?><!-- Generator: Gravit.io --><svg xmlns="http://www.w3.org/2000/svg" xmlns:xlink="http://www.w3.org/1999/xlink" style="isolation:isolate" viewBox="0 0 200 200" width="200pt" height="200pt"><defs><clipPath id="_clipPath_xRUwPfVlCKOWJ7GVyqUxUeJfpaFMi4wZ"><rect width="200" height="200"/></clipPath></defs><g clip-path="url(#_clipPath_xRUwPfVlCKOWJ7GVyqUxUeJfpaFMi4wZ)"><path d=" M 143.849 45.559 C 143.556 45.32 143.265 45.082 142.972 44.843 C 141.311 46.809 139.649 48.776 137.987 50.742 C 138.354 51.043 138.719 51.343 139.086 51.646 C 140.672 49.617 142.26 47.588 143.849 45.559 Z  M 146.814 40.787 C 147.115 40.979 147.418 41.171 147.719 41.363 C 149.627 39.043 151.534 36.724 153.442 34.404 C 152.941 34.039 152.444 33.674 151.945 33.31 C 150.234 35.802 148.525 38.295 146.814 40.787 Z  M 165.634 36.666 C 165.461 36.314 165.289 35.961 165.118 35.607 C 164.225 35.862 163.336 36.117 162.443 36.373 C 162.623 35.782 162.801 35.19 162.979 34.6 C 163.2 34.825 163.422 35.05 163.644 35.275 C 162.045 36.31 160.444 37.345 158.844 38.379 C 159.245 38.706 159.799 39.399 160.021 39.304 C 161.926 38.506 163.77 37.565 165.634 36.666 Z  M 134.227 156.913 L 134.705 158.597 L 145.731 153.685 C 145.564 153.261 145.394 152.838 145.227 152.414 C 141.56 153.913 137.893 155.413 134.227 156.913 Z  M 123.708 69.625 C 127.928 64.835 132.144 60.047 136.363 55.258 L 135.242 54.287 C 132.346 57.591 129.451 60.894 126.555 64.198 C 126.239 64.003 125.919 63.809 125.601 63.614 C 126.562 61.854 127.298 59.923 128.513 58.363 C 137.847 46.365 147.273 34.441 156.67 22.491 C 160.004 18.252 163.353 14.026 166.665 9.772 C 170.224 5.204 170.937 5.114 175.282 8.435 C 176.828 9.616 178.824 10.296 180.155 11.653 C 184.803 16.381 183.947 19.192 177.448 20.739 C 177.768 21.078 178.082 21.627 178.282 21.589 C 180.143 21.227 182.922 19.796 183.651 20.506 C 185.985 22.782 187.95 25.669 189.253 28.669 C 189.87 30.092 189.264 32.821 188.184 34.072 C 182.977 40.108 183.121 47.08 183.903 54.277 C 183.977 54.96 183.956 55.672 183.856 56.352 C 183.031 61.894 182.178 67.431 181.328 72.968 C 181.232 73.596 181.117 74.221 181.01 74.849 C 180.563 74.659 180.118 74.468 179.671 74.278 C 179.466 74.807 178.928 75.595 179.107 75.825 C 182.113 79.697 179.743 83.695 179.501 87.639 C 179.323 90.553 179.464 93.496 179.121 96.386 C 178.562 101.101 177.722 105.782 176.845 111.504 C 175.786 109.67 175.263 108.765 174.739 107.858 C 174.443 108.137 173.845 108.542 173.9 108.675 C 174.336 109.736 174.818 110.8 175.435 111.765 C 177.64 115.204 176.732 119.07 176.523 122.633 C 176.161 128.828 175.177 134.954 171.909 140.578 C 170.619 142.801 170.998 145.937 170.107 148.479 C 169.755 149.484 168.012 150 166.511 150.999 C 168.887 153.543 165.785 155.189 163.786 156.957 C 161.03 159.398 158.233 161.924 155.061 163.725 C 152.165 165.368 148.744 166.078 145.569 167.238 C 144.702 167.554 143.554 167.778 143.098 168.436 C 141.009 171.452 140.386 169.232 139.385 166.907 C 137.661 170.55 135.64 172.416 131.498 172.86 C 125.483 173.506 119.658 175.89 113.745 177.505 C 108.87 178.835 104.01 180.231 99.097 181.407 C 91.634 183.195 84.171 185.048 76.629 186.445 C 68.606 187.933 60.513 189.078 52.415 190.095 C 40.944 191.535 29.455 192.906 17.939 193.863 C 15.578 194.06 13.026 192.359 10.647 191.339 C 10.412 191.24 10.436 189.456 10.889 188.995 C 15.627 184.168 20.487 179.461 25.292 174.7 C 28.127 171.894 30.995 169.117 33.723 166.21 C 42.606 156.738 51.427 147.211 60.288 137.72 C 60.543 137.446 60.982 137.342 62.196 136.711 C 61.626 138.491 61.291 139.539 60.955 140.588 C 61.151 140.731 61.346 140.872 61.541 141.016 C 65.928 136.084 70.316 131.153 74.688 126.239 C 76.047 124.456 77.419 122.657 78.792 120.856 C 86.158 114.423 92.833 107.394 97.833 98.909 C 99.721 97.003 101.608 95.097 103.495 93.191 C 106.963 88.999 110.432 84.806 113.899 80.613 L 113.749 80.764 C 117.085 77.001 120.422 73.236 123.757 69.472 L 123.708 69.625 Z " fill="rgb(0,0,0)"/><clipPath id="_clipPath_MhHoFDCLq3P5k4y7u9eNe9Zaf4H8QPIU"><rect x="24.21" y="38.998" width="122.004" height="122.004" transform="matrix(0.966,0.259,-0.259,0.966,28.785,-18.647)" fill="rgb(255,255,255)"/></clipPath><g clip-path="url(#_clipPath_MhHoFDCLq3P5k4y7u9eNe9Zaf4H8QPIU)"><g><path d=" M 98.69 71.229 C 98.756 71.073 98.824 70.918 98.89 70.763 C 102.957 72.351 107.024 73.94 111.092 75.528 C 111.009 75.722 110.926 75.918 110.844 76.112 C 106.792 74.484 102.742 72.856 98.69 71.229 Z  M 113.532 107.269 C 116.449 106.748 117.996 105.484 119.098 103.492 C 125.214 92.426 122.96 76.174 105.959 71.094 C 97.889 68.681 92.195 64.092 90.375 55.426 C 89.742 52.41 88.722 49.43 87.49 46.602 C 86.931 45.315 85.575 44.007 84.285 43.563 C 83.67 43.351 81.914 44.947 81.476 46.045 C 80.752 47.868 80.034 50.095 80.442 51.895 C 81.646 57.196 83.047 62.514 85.05 67.554 C 86.906 72.221 90.607 75.209 95.228 77.698 C 99.86 80.194 105.15 80.566 109.604 83.616 C 113.749 86.453 116.96 95.776 115.316 100.697 C 114.651 102.688 114.207 104.753 113.532 107.269 Z " fill="rgb(213,143,180)"/><path d=" M 97.689 119.47 C 98.268 117.818 99.303 116.179 99.347 114.513 C 99.554 106.448 90.692 97.872 82.801 99.367 C 72.056 101.402 66.054 95.969 60.973 87.846 C 59.252 85.094 57.068 82.576 54.769 80.278 C 54.12 79.629 51.687 79.609 51.175 80.222 C 50.061 81.554 48.584 84.093 49.138 85.064 C 52.41 90.794 55.644 96.736 60.008 101.602 C 64.718 106.855 70.982 109.897 78.624 108.157 C 82.021 107.383 85.452 106.578 88.909 108.529 C 92.638 110.634 94.969 113.625 96.038 117.704 C 96.173 118.221 96.409 118.712 96.598 119.217 C 96.962 119.301 97.326 119.386 97.689 119.47 Z " fill="rgb(213,143,180)"/><path d=" M 44.503 137.371 C 44.589 137.177 44.675 136.982 44.76 136.788 L 64.087 141.967 C 64.036 142.169 63.984 142.373 63.933 142.578 L 44.503 137.371 Z  M 92.577 141.301 C 93.014 139.313 93.323 137.915 93.63 136.516 C 90.623 139.191 89.309 135.707 87.434 135.076 L 90.517 135.902 C 91.619 134.689 87.323 134.184 90.955 132.949 C 87.239 131.244 84.046 129.052 80.432 131.255 C 78.863 132.213 76.126 132.284 75.429 135.46 C 75.299 135.512 74.189 135.651 73.527 136.268 C 68.193 141.243 62.239 140.166 56.159 138.229 C 52.849 137.174 49.595 135.777 46.202 135.217 C 43.624 134.791 40.831 135.23 38.2 135.678 C 35.674 136.107 34.828 138.52 34.221 140.579 C 34.04 141.189 35.618 142.97 36.596 143.16 C 42.961 144.401 49.384 145.353 55.781 146.616 C 54.419 146.151 53.057 145.686 51.694 145.221 C 51.717 145.07 51.742 144.917 51.766 144.765 C 52.423 144.838 53.088 145.013 53.734 144.961 C 54.888 144.867 56.051 144.723 57.171 144.439 C 58.403 144.125 59.591 143.631 60.892 143.794 C 60.172 144.615 59.452 145.436 59.061 145.882 C 60.237 146.582 60.857 147.077 61.563 147.339 C 62.264 147.599 63.193 147.951 63.777 147.697 C 66.365 146.567 69.182 146.307 71.385 143.831 C 74.137 140.739 77.817 138.466 81.142 135.9 C 81.606 135.542 82.43 135.235 82.923 135.398 C 85.646 136.298 88.361 137.258 90.979 138.421 C 91.584 138.69 91.798 139.834 92.577 141.301 Z " fill="rgb(213,143,180)"/></g></g></g></svg>