<?xml version="1.0" encoding="UTF-8" standalone="no"?><!-- Generator: Gravit.io --><svg xmlns="http://www.w3.org/2000/svg" xmlns:xlink="http://www.w3.org/1999/xlink" style="isolation:isolate" viewBox="0 0 200 200" width="200pt" height="200pt"><defs><clipPath id="_clipPath_1PDX9VLwT4iaGT7NlBmUfY5aTikYg1yf"><rect width="200" height="200"/></clipPath></defs><g clip-path="url(#_clipPath_1PDX9VLwT4iaGT7NlBmUfY5aTikYg1yf)"><g><path d=" M 42.28 142.679 C 41 143.69 39.879 144.808 38.918 146.17 C 38.225 147.154 37.249 148 36.135 148.708 C 34.912 149.483 33.993 150.748 32.725 151.559 C 31.942 152.06 31.403 153.279 30.187 152.334 C 29.641 152.643 29.096 152.952 28.41 153.341 C 27.988 152.827 27.573 152.333 27.175 151.829 C 27.09 151.721 27.027 151.454 27.01 151.459 C 25.637 151.85 24.879 150.215 23.516 150.431 C 22.775 150.549 21.644 149.736 21.726 149.126 C 21.893 147.893 21.069 147.361 20.369 146.638 C 20.098 145.103 20.509 143.684 21.203 142.278 C 21.887 140.889 22.329 139.374 23.073 138.023 C 24.581 135.28 26.21 132.604 27.81 129.912 C 29.461 127.133 31.225 124.434 33.098 121.795 C 34.807 119.385 36.455 116.93 38.16 114.515 C 39.2 113.044 40.214 111.554 41.228 110.064 C 41.272 110 41.192 109.854 41.118 109.508 C 40.598 109.928 40.199 110.498 39.721 110.574 C 39.092 110.676 38.572 110.648 38.5 111.433 C 37.423 111.074 37.264 112.751 36.218 112.46 C 35.923 113.118 35.278 113.562 34.733 113.737 C 34.093 113.944 33.539 113.941 33.314 114.737 C 33.252 114.962 32.642 115.258 32.413 115.172 C 31.411 114.797 31.431 116.095 30.758 116.109 C 29.945 116.126 29.512 116.473 29.447 117.281 C 28.405 117.484 27.81 118.389 26.953 118.892 C 26.213 119.324 25.363 119.811 24.969 120.505 C 24.717 120.951 24.517 121.111 24.113 121.247 C 22.796 121.693 21.927 122.816 20.74 123.492 C 19.543 124.173 18.547 125.204 17.451 126.068 C 16.074 127.154 14.69 128.233 13.299 129.304 C 12.465 129.947 11.548 129.629 10.821 129.232 C 10.269 128.93 9.938 128.414 9.227 128.904 C 9.132 128.969 8.669 128.503 8.231 128.172 C 8.642 127.885 9.001 127.637 9.361 127.388 C 9.301 127.287 9.243 127.185 9.182 127.084 C 8.829 127.215 8.476 127.345 8.072 127.493 C 8.04 127.361 7.899 127.123 7.958 126.958 C 8.102 126.562 8.266 126.131 8.551 125.838 C 10.145 124.195 11.701 122.505 13.411 120.99 C 16.289 118.44 19.222 115.945 22.229 113.549 C 24.286 111.909 26.386 110.314 28.481 108.726 C 30.366 107.296 32.336 105.93 34.259 104.547 C 36.725 102.774 39.241 101.095 41.789 99.456 C 43.409 98.414 45.07 97.438 46.716 96.436 C 47.804 95.773 49.015 96.019 50.187 95.971 C 51.003 96.413 51.441 97.246 52.571 97.461 C 53.859 97.707 56.247 101.189 56.434 102.621 C 56.573 103.682 55.995 104.696 55.671 105.716 C 55.104 107.504 54.308 109.161 53.082 110.598 C 52.95 110.753 52.779 111.02 52.829 111.162 C 53.251 112.346 51.844 112.755 51.782 113.718 C 50.572 114.423 50.016 115.682 49.217 116.735 C 49.08 116.916 48.756 117.062 48.756 117.223 C 48.773 119.333 47.087 120.517 46.142 122.098 C 45.847 122.592 45.436 123.024 45.197 123.54 C 45.032 123.894 45.07 124.341 45.018 124.747 C 45.347 124.787 45.555 124.877 45.629 124.812 C 47.203 123.441 48.69 121.956 50.344 120.692 C 52.498 119.047 54.372 117.069 56.693 115.615 C 57.802 114.919 58.633 113.82 59.733 113.021 C 61.762 111.549 63.493 109.654 65.56 108.246 C 69.111 105.829 72.082 102.647 75.867 100.556 C 76.852 98.989 78.694 98.415 79.892 97.084 C 80.214 96.725 80.732 96.546 81.141 96.258 C 81.735 95.84 82.321 95.41 82.895 94.964 C 85.205 93.17 87.503 91.36 89.816 89.57 C 90.793 88.816 91.823 88.127 92.786 87.355 C 95.505 85.175 98.383 83.215 101.198 81.168 C 102.663 80.104 103.946 78.801 105.671 78.121 C 106.877 76.36 108.844 75.544 110.458 74.292 C 112.408 72.779 114.416 71.34 116.409 69.881 C 118.983 67.996 121.561 66.119 124.146 64.25 C 125.787 63.064 127.437 61.89 129.093 60.724 C 131.101 59.31 133.156 57.967 135.139 56.512 C 138.153 54.3 141.309 52.279 144.414 50.193 C 148.292 47.589 152.166 44.98 156.068 42.411 C 158.218 40.996 160.409 39.643 162.599 38.29 C 165.208 36.68 167.807 35.047 170.466 33.521 C 172.384 32.421 174.36 31.436 176.177 30.152 C 176.621 29.839 177.474 30.106 178.404 30.106 C 178.159 30.487 178.051 30.774 177.847 30.951 C 177.233 31.485 176.581 31.977 175.828 32.578 C 177.46 33.338 178.521 31.121 179.876 31.938 C 179.454 32.36 178.998 32.815 178.542 33.27 C 178.628 33.405 178.713 33.54 178.798 33.675 C 179.283 33.535 179.766 33.395 180.409 33.209 C 180.518 34.051 180.625 34.875 180.77 36.007 C 180.199 36.462 179.456 37.461 178.523 37.691 C 177.392 37.97 177.038 39.366 175.739 39.25 C 175.401 39.22 175.628 40.396 174.789 40.112 C 173.889 39.805 174.409 41.263 173.603 41.034 C 172.851 40.82 172.804 41.819 172.619 41.813 C 171.447 41.774 171.127 42.926 170.285 43.328 C 169.388 43.756 168.535 44.32 167.754 44.939 C 167.058 45.492 166.379 45.957 165.474 46.096 C 165.154 46.145 164.648 46.471 164.628 46.704 C 164.565 47.481 164.084 47.364 163.57 47.486 C 163.2 47.574 162.97 48.204 162.594 48.321 C 162.155 48.456 161.656 48.333 161.782 49.044 C 160.219 49.131 159.833 51.308 158.099 51.124 C 157.93 51.107 157.659 51.288 157.565 51.451 C 156.466 53.355 154.421 54.075 152.782 55.299 C 150.393 57.081 148.008 58.87 145.608 60.636 C 143.682 62.053 141.764 63.483 139.787 64.826 C 138.736 65.539 137.974 66.819 136.437 66.687 C 136.331 66.678 136.145 66.835 136.103 66.954 C 135.263 69.324 132.532 69.217 131.082 70.788 C 130.839 71.052 130.424 71.177 130.231 71.462 C 128.512 74.007 125.641 75.178 123.457 77.175 C 121.853 78.64 119.979 79.808 118.251 81.14 C 116.105 82.793 113.991 84.485 111.851 86.144 C 111.635 86.311 111.34 86.38 111.074 86.474 C 108.905 87.241 107.387 88.976 105.534 90.216 C 105.126 90.489 104.74 90.949 104.577 91.406 C 104.204 92.447 103.237 92.969 102.45 93.135 C 101.61 93.311 101.141 93.733 100.585 94.21 C 99.491 95.151 98.192 95.882 97.541 97.262 C 95.558 98.501 93.823 100.09 92.026 101.55 C 90.546 102.754 88.795 103.686 87.62 105.306 C 86.847 106.369 85.574 106.922 84.374 107.366 C 83.874 107.551 83.396 107.659 83.071 108.081 C 82.72 108.536 82.514 109.181 82.067 109.464 C 81.576 109.775 81.306 110.164 80.953 110.58 C 79.96 111.75 78.863 112.882 77.139 112.923 C 77.001 112.926 76.839 112.962 76.734 113.043 C 75.979 113.625 75.17 114.157 74.51 114.835 C 73.742 115.622 72.703 116.204 72.378 117.376 C 72.343 117.503 72.179 117.602 72.064 117.701 C 71.104 118.512 70.154 119.337 69.176 120.125 C 68.196 120.914 67.458 121.925 66.341 122.631 C 65.32 123.277 64.363 124.115 63.342 124.823 C 62.738 125.197 61.82 125.436 61.592 125.97 C 60.901 127.586 58.795 127.632 58.213 129.264 C 56.637 129.665 55.938 131.243 54.6 131.966 C 54.226 132.167 53.701 132.301 53.526 132.62 C 52.582 134.342 50.495 134.883 49.538 136.566 C 48.181 136.872 47.513 137.962 46.659 138.912 C 46.018 139.625 45.019 140.016 44.18 140.55 C 44.137 141.788 42.82 141.887 42.28 142.679 Z " fill="rgb(227,146,146)"/></g><g><path d=" M 189.254 56.601 C 189.988 56.439 190.721 56.277 191.794 56.039 C 191.383 56.507 191.244 56.666 191.06 56.875 C 191.336 56.967 191.595 57.054 191.865 57.144 C 192.052 57.87 192.314 58.724 191.477 59.11 C 191.049 59.307 190.372 58.967 189.744 59.121 C 190.027 59.259 190.311 59.396 190.628 59.55 C 189.686 60.689 188.426 60.875 187.046 60.674 C 186.994 61.189 186.957 61.55 186.905 62.059 C 185.913 61.209 185.155 62.26 184.051 62.179 C 184.294 62.654 184.449 62.96 184.605 63.265 C 184.248 63.498 183.861 63.843 183.408 64.025 C 182.762 64.285 182.299 65.425 181.359 64.519 C 181.315 64.477 181.126 64.527 181.049 64.589 C 180.871 64.731 180.748 64.973 180.554 65.056 C 179.838 65.356 178.979 65.456 178.413 65.922 C 177.912 66.335 177.787 67.174 177.383 67.748 C 177.149 68.08 176.721 68.316 176.332 68.49 C 175.919 68.675 174.391 69.434 174.184 69.933 C 173.957 70.475 173.603 70.249 173.288 70.345 C 172.885 70.467 172.445 70.571 172.121 70.818 C 171.875 71.005 171.787 71.402 171.64 71.684 C 171.251 71.34 170.873 71.005 170.21 70.419 C 170.306 71.318 169.454 71.451 169.844 72.326 C 170.076 72.845 168.645 73.635 167.776 73.288 C 167.182 73.049 167.228 73.566 166.948 73.642 C 167.418 75.026 166.181 75.118 165.457 75.574 C 165.1 75.8 163.997 76.547 163.842 76.74 C 163.705 76.907 163.529 77.042 163.385 77.178 C 163.199 77.027 163.042 76.854 162.848 76.76 C 162.736 76.706 162.562 76.781 162.323 76.81 C 162.464 77.113 162.593 77.391 162.713 77.649 C 162.64 77.809 162.619 77.993 162.518 78.057 C 161.738 78.558 160.889 78.968 160.163 79.535 C 158.422 80.895 156.742 82.332 155.029 83.728 C 152.902 85.459 150.727 87.128 148.756 89.05 C 147.835 89.95 147.266 90.601 146.982 91.925 C 146.101 91.468 145.101 91.489 144.336 90.701 C 143.661 90.005 143.007 90.831 142.249 91.119 C 141.876 89.478 143.273 89.184 143.921 88.418 C 143.705 88.202 143.489 87.987 143.291 87.788 C 142.839 88.114 142.389 88.437 141.83 88.84 C 141.735 88.441 141.579 88.183 141.653 88.04 C 142.479 86.412 143.835 85.243 145.186 84.078 C 145.568 83.749 146.039 83.519 146.41 83.179 C 149.381 80.455 152.669 78.153 155.922 75.784 C 158.959 73.573 162.165 71.626 165.192 69.414 C 166.069 68.774 167.265 68.642 167.901 67.653 C 170.843 66.656 172.829 64.014 175.865 63.164 C 176.279 63.797 175.779 63.864 175.219 64.032 C 174.886 64.131 175.013 64.635 174.49 64.911 C 172.284 66.078 170.213 67.498 168.1 68.838 C 167.96 68.927 167.879 69.111 167.497 69.603 C 168.152 69.374 168.39 69.244 168.641 69.21 C 169.54 69.091 169.923 68.135 170.896 67.977 C 171.671 67.85 172.408 67.165 173.047 66.598 C 174.412 65.388 176.128 64.804 177.654 63.884 C 178.685 63.263 179.561 62.401 180.779 62.033 C 181.252 61.89 181.55 61.176 181.928 60.722 C 182.712 60.264 183.513 59.834 184.274 59.34 C 184.972 58.888 185.809 58.824 186.432 58.029 C 187.043 57.248 188.41 57.311 189.254 56.601 Z " fill="rgb(227,146,146)"/></g><path d=" M 94.018 118.412 C 94.733 117.927 95.789 117.59 96.08 116.92 C 96.489 115.978 97.26 115.706 97.923 115.215 C 98.611 114.705 99.382 114.31 100.091 113.828 C 100.811 113.339 101.576 112.881 102.186 112.274 C 103.499 110.968 104.985 109.904 106.522 108.898 C 106.872 108.667 107.298 108.552 107.658 108.332 C 108.016 108.112 108.492 107.898 108.643 107.56 C 109.394 105.881 111.003 105.254 112.409 104.408 C 113.219 103.921 113.757 104.172 114.628 105.077 C 114.324 106.194 112.925 106.502 112.672 107.708 C 112.633 107.894 111.899 107.937 111.485 108.042 C 110.853 108.204 111.287 109.371 110.427 109.236 C 109.669 109.117 109.688 109.696 109.4 110.063 C 109.311 110.178 108.79 109.956 108.377 109.87 C 108.139 110.344 107.833 110.948 107.532 111.547 L 106.768 111.547 C 106.238 112.186 105.836 113.123 105.297 113.212 C 104.485 113.346 104.686 114.667 103.693 114.311 C 103.57 114.267 103.3 114.45 103.187 114.596 C 102.971 114.876 102.874 115.413 102.633 115.474 C 101.692 115.715 101.345 116.769 100.519 117.009 C 98.945 117.466 97.895 118.734 96.48 119.42 C 96.196 119.556 95.893 119.982 95.881 120.286 C 95.841 121.234 95.344 121.427 94.515 121.693 C 93.885 121.895 93.281 122.703 93.01 123.379 C 92.647 124.281 91.491 123.423 91.245 124.406 C 91.122 124.898 90.848 125.654 90.105 124.845 C 89.889 125.06 89.481 125.285 89.489 125.491 C 89.535 126.589 88.63 126.012 88.202 126.283 C 87.871 126.579 88.924 126.806 88.188 127.282 C 87.076 128 86.2 129.083 85.078 129.775 C 84.67 130.028 84.46 130.182 84.31 130.607 C 84.22 130.86 83.839 131.239 83.682 131.199 C 82.362 130.861 81.766 131.84 81 132.54 C 80.971 132.566 80.685 132.31 80.462 132.143 C 80.111 132.638 80.57 133.727 79.426 133.714 C 79.266 133.712 79.05 133.988 78.949 134.182 C 77.986 136.022 78.002 136.038 76.374 137.191 C 76.08 137.399 76.233 138.656 75.356 137.663 C 75.345 137.651 74.845 137.922 74.81 138.106 C 74.51 139.666 73.111 140.294 72.168 141.306 C 70.936 141.124 70.593 142.305 69.823 142.831 C 69.317 143.176 68.75 143.297 68.759 144.218 C 68.766 144.863 67.914 145.159 67.073 144.862 C 67.386 144.366 67.693 143.879 68.088 143.254 C 67.745 143.28 67.594 143.246 67.539 143.304 C 67.243 143.612 66.898 143.8 66.615 143.388 C 66.52 143.248 66.671 142.743 66.842 142.649 C 67.962 142.037 68.459 140.944 69.068 139.932 C 69.978 140.002 69.978 140.002 70.307 140.716 C 70.361 140.75 70.462 140.815 70.463 140.813 C 70.885 140.188 72.172 140.408 72.001 138.999 C 71.501 139.226 71.236 139.642 70.63 140.137 C 70.776 139.578 70.776 139.22 70.949 138.996 C 71.217 138.649 71.583 138.366 71.944 138.107 C 72.641 137.606 73.172 136.926 73.373 136.147 C 73.54 135.5 73.698 135.095 74.375 134.863 C 74.725 134.743 74.959 134.285 75.246 133.979 C 76.3 134.209 76.571 132.858 77.512 132.859 C 77.46 131.647 78.652 131.526 79.291 131.196 C 80.164 130.744 80.317 129.77 81.205 129.35 C 82.231 128.866 83.113 128.04 83.987 127.282 C 85.616 125.868 87.19 124.392 88.8 122.957 C 89.005 122.773 89.314 122.707 89.525 122.526 C 90.091 122.043 90.607 121.496 91.188 121.031 C 91.654 120.657 92.093 120.121 92.5 119.875 C 93.162 119.474 93.662 119.063 94.018 118.412 Z " fill="rgb(227,146,146)"/><g><path d=" M 62.426 146.342 C 63.284 146.549 63.559 145.76 64.082 145.386 C 64.52 145.074 64.691 144.247 65.69 144.674 C 65.258 144.912 64.895 145.112 64.228 145.479 C 65.018 145.942 65.39 146.161 65.721 146.355 C 65.067 147.37 63.757 147.725 64.479 149.474 C 63.884 148.929 63.726 148.782 63.478 148.556 C 63.422 150.16 62.583 151 60.959 151.056 C 61.162 151.259 61.27 151.366 61.51 151.608 C 60.377 152.741 59.194 153.839 58.112 155.029 C 57.068 156.177 55.676 157.009 54.998 158.515 C 54.892 158.753 54.216 158.735 53.727 158.854 C 53.878 159.042 53.998 159.194 54.123 159.351 C 53.821 160.068 53.018 160.363 52.726 161.22 C 52.393 162.198 51.867 162.075 50.888 161.186 C 50.7 161.015 50.17 161.221 49.653 161.265 C 49.707 161.081 49.714 160.717 49.896 160.506 C 50.242 160.104 50.683 159.786 50.522 159.162 C 51.089 158.531 52.27 158.316 51.934 157.068 C 51.924 157.032 52.028 156.925 52.088 156.916 C 53.523 156.711 53.838 155.211 54.865 154.479 C 56.025 153.65 56.8 152.294 57.794 151.216 C 59.315 149.569 60.88 147.965 62.426 146.342 Z " fill="rgb(227,146,146)"/></g><g><path d=" M 94.018 118.412 C 93.662 119.063 93.162 119.474 92.5 119.875 C 92.093 120.121 91.654 120.657 91.188 121.031 C 90.607 121.496 90.091 122.043 89.525 122.526 C 89.314 122.707 89.005 122.773 88.8 122.957 C 87.19 124.392 85.616 125.868 83.987 127.282 C 83.113 128.04 82.231 128.866 81.205 129.35 C 80.317 129.77 80.164 130.744 79.291 131.196 C 78.652 131.526 77.46 131.647 77.512 132.859 C 76.571 132.858 76.3 134.209 75.246 133.979 C 75.246 132.625 76.38 131.913 77.231 131.428 C 78.672 130.606 79.58 129.247 80.974 128.375 C 82.595 127.361 83.874 125.813 85.361 124.568 C 87.786 122.539 90.246 120.55 92.732 118.598 C 93.027 118.366 93.583 118.466 94.018 118.412 Z " fill="rgb(227,146,146)"/></g><g><path d=" M 62.426 146.342 C 60.88 147.965 59.315 149.569 57.794 151.216 C 56.8 152.294 56.025 153.65 54.865 154.479 C 53.838 155.211 53.523 156.711 52.088 156.916 C 52.028 156.925 51.924 157.032 51.934 157.068 C 52.27 158.316 51.089 158.531 50.522 159.162 C 49.963 159.597 49.406 160.033 48.778 160.523 C 48.749 160.255 48.624 159.949 48.717 159.851 C 51.331 157.088 53.328 153.761 56.335 151.38 C 56.868 150.959 56.537 150.05 57.524 149.928 C 57.966 149.874 58.256 148.94 58.702 148.49 C 59.16 148.026 59.751 147.695 60.231 147.249 C 60.677 146.833 61.037 146.326 61.463 145.888 C 61.927 145.412 62.409 144.951 62.911 144.516 C 63.441 144.055 64.005 143.633 64.793 143.002 C 64.489 144.703 62.895 145.133 62.426 146.342 Z " fill="rgb(227,146,146)"/></g></g></svg>