<?xml version="1.0" encoding="UTF-8" standalone="no"?><!-- Generator: Gravit.io --><svg xmlns="http://www.w3.org/2000/svg" xmlns:xlink="http://www.w3.org/1999/xlink" style="isolation:isolate" viewBox="0 0 200 200" width="200pt" height="200pt"><defs><clipPath id="_clipPath_PTzPCADaMPHUF1CJkn5nyt4PRiQjdVZy"><rect width="200" height="200"/></clipPath></defs><g clip-path="url(#_clipPath_PTzPCADaMPHUF1CJkn5nyt4PRiQjdVZy)"><path d=" M 65.264 141.497 C 65.108 141.755 64.957 141.832 64.882 142.005 C 64.516 142.838 64.321 143.724 64.063 144.589 C 63.813 145.43 63.573 146.284 63.445 147.149 C 63.315 148.03 62.905 148.814 62.728 149.684 C 62.503 150.785 62.192 151.857 62.153 152.997 C 62.131 153.624 62.492 154.173 62.384 154.792 C 62.372 154.859 62.376 154.931 62.384 155 C 62.394 155.089 62.389 155.207 62.586 155.122 C 62.623 154.407 62.676 153.671 62.755 152.942 C 62.875 151.845 62.986 150.757 63.187 149.668 C 63.271 149.213 63.368 148.761 63.516 148.334 C 63.679 147.864 63.679 147.374 63.829 146.9 C 64.209 145.697 64.591 144.494 64.909 143.27 C 65.046 142.741 65.377 142.263 65.264 141.497 Z  M 126.178 123.414 C 126.576 123.047 126.826 122.658 126.961 122.317 C 127.373 121.273 127.724 120.206 128.169 119.173 C 128.766 117.79 129.369 116.402 129.838 114.973 C 130.084 114.222 130.551 113.455 130.205 112.536 C 129.808 113.403 129.351 114.207 129.065 115.068 C 128.64 116.352 128.122 117.593 127.585 118.83 C 127.369 119.33 127.076 119.82 126.981 120.344 C 126.874 120.933 126.638 121.45 126.427 121.994 C 126.257 122.431 125.967 122.882 126.178 123.414 M 110.537 35.641 C 110.38 35.484 110.331 35.435 110.282 35.386 C 110.608 35.167 110.736 34.65 111.284 34.798 C 111.284 34.531 111.309 34.321 111.278 34.12 C 111.236 33.862 111.409 33.741 111.56 33.61 C 111.767 33.431 111.882 33.731 112.059 33.735 C 112.176 33.328 112.293 32.925 112.408 32.523 C 112.637 32.585 112.416 32.984 112.893 32.922 C 112.753 32.491 113.383 32.458 113.384 31.989 C 113.251 31.888 113.127 31.772 112.983 31.69 C 112.81 31.59 112.764 31.926 112.589 31.848 C 112.504 31.724 112.58 31.555 112.429 31.482 C 112.466 31.732 111.966 31.905 112.339 32.216 C 112.016 32.532 111.735 32.91 111.363 33.145 C 110.989 33.381 110.803 33.751 110.505 34.035 C 110.178 34.347 109.775 34.624 109.57 35.005 C 109.355 35.403 109.017 35.67 108.77 36.024 C 108.543 36.349 108.283 36.655 108.007 36.939 C 107.701 37.254 107.468 37.635 107.235 37.985 C 107.015 38.314 106.687 38.587 106.376 39.143 C 107.779 38.444 108.378 37.119 109.571 36.639 C 109.675 36.372 109.527 36.121 109.652 35.941 C 109.932 35.846 110.175 35.764 110.537 35.641 M 31.352 140.98 C 31.707 140.588 31.208 140.312 31.232 139.949 C 31.34 138.303 30.887 136.677 31.034 135.026 C 31.049 134.853 31.104 134.632 31.023 134.513 C 30.727 134.073 30.804 133.59 30.841 133.131 C 30.88 132.641 30.641 132.213 30.629 131.755 C 30.597 130.537 30.559 129.316 30.634 128.102 C 30.71 126.862 30.333 125.666 30.398 124.429 C 30.451 123.423 30.411 122.412 30.406 121.403 C 30.405 121.24 30.474 121.055 30.114 120.769 C 30.413 121.741 29.949 122.478 29.984 123.292 C 30.016 124.021 30.005 124.753 29.987 125.483 C 29.968 126.23 30.237 126.936 30.224 127.694 C 30.205 128.741 30.072 129.797 30.383 130.85 C 30.534 131.362 30.367 131.96 30.42 132.512 C 30.474 133.075 30.311 133.626 30.576 134.219 C 30.783 134.683 30.618 135.314 30.618 135.871 C 30.618 136.254 30.495 136.697 30.646 137.005 C 30.892 137.509 30.7 138.028 30.849 138.491 C 31.02 139.024 31.053 139.547 31.027 140.081 C 31.01 140.442 31.25 140.676 31.352 140.98 M 34.121 116.991 C 33.652 118.065 33.757 119.193 33.754 120.309 C 33.749 121.876 33.808 123.444 33.739 125.008 C 33.646 127.147 33.975 129.265 33.962 131.397 C 33.961 131.466 33.95 131.539 33.963 131.605 C 34.039 131.97 34.182 132.32 34.173 132.704 C 34.162 133.191 34.227 133.687 34.154 134.163 C 34.082 134.634 34.419 134.989 34.387 135.438 C 34.352 135.922 34.34 136.416 34.39 136.898 C 34.441 137.392 34.158 137.935 34.584 138.383 C 34.617 138.418 34.612 138.552 34.578 138.58 C 34.147 138.917 34.499 139.234 34.585 139.564 C 34.693 139.98 34.896 140.382 34.804 140.836 C 34.796 140.875 34.879 140.933 34.92 140.982 C 35.02 140.978 35.13 141.005 35.237 140.827 C 35.363 140.614 34.979 140.531 34.989 140.258 C 35.024 139.275 34.906 138.293 34.842 137.314 C 34.755 135.954 34.427 134.601 34.588 133.226 C 34.595 133.157 34.618 133.064 34.584 133.021 C 34.252 132.597 34.354 132.098 34.398 131.643 C 34.445 131.147 34.19 130.73 34.173 130.266 C 34.104 128.38 34.203 126.498 34.001 124.605 C 33.814 122.849 33.962 121.058 33.962 119.283 C 33.962 119.109 33.893 118.89 33.973 118.768 C 34.35 118.191 34.08 117.584 34.121 116.991 M 133.226 152.964 C 133.316 153.124 133.516 153.206 133.427 153.437 C 133.139 153.642 132.971 154.024 132.591 154.14 C 132.477 154.175 132.377 154.214 132.397 154.318 C 132.469 154.699 132.064 154.838 132.004 155.092 C 131.919 155.448 131.648 155.584 131.452 155.803 C 131.281 155.995 131.104 156.176 130.824 156.287 C 130.628 156.365 130.564 156.775 130.442 157.037 C 130.331 157.274 130.014 157.205 129.889 157.402 C 129.813 157.575 130.042 157.888 129.693 157.899 C 129.363 157.91 129.473 158.196 129.38 158.336 C 129.236 158.551 128.858 158.433 128.847 158.715 C 128.826 159.276 128.336 159.545 128.148 160.021 C 127.971 159.857 127.827 159.722 127.682 159.588 C 127.433 159.867 127.663 160.115 127.743 160.336 C 127.443 160.62 127.12 160.528 126.74 160.444 C 127.085 160.744 126.938 161.077 126.928 161.384 C 126.659 161.665 126.374 161.924 125.965 162.387 C 127.497 161.913 127.863 160.59 128.74 159.788 C 128.85 159.91 128.932 160.029 129.181 159.982 C 129.229 159.277 129.933 159.003 130.353 158.511 C 130.241 158.383 130.174 158.307 130.106 158.23 C 130.476 157.761 130.992 157.421 131.277 156.856 C 131.403 156.606 131.643 156.277 131.946 156.256 C 132.525 156.218 132.777 155.807 132.994 155.411 C 133.102 155.214 133.219 155.221 133.357 155.164 C 133.456 155.124 133.456 155.068 133.366 155.019 C 133.197 154.905 132.946 155.098 132.815 154.881 C 132.815 154.8 132.788 154.713 132.819 154.667 C 133.056 154.325 133.512 154.221 133.742 153.913 C 133.984 153.589 133.935 153.09 134.275 152.786 C 134.301 152.762 134.324 152.737 134.349 152.712 C 134.621 152.725 134.703 153.365 135.195 152.92 C 134.904 152.612 134.642 152.335 134.4 152.079 C 133.957 152.384 133.75 152.874 133.226 152.964 M 37.433 115.844 C 37.302 115.99 37.131 116.093 37.133 116.194 C 37.143 116.77 36.843 117.281 36.869 117.875 C 36.927 119.195 36.887 120.52 36.887 121.844 C 36.887 122.853 36.869 123.864 36.892 124.873 C 36.914 125.856 36.85 126.833 37.064 127.824 C 37.239 128.635 37.1 129.499 37.278 130.347 C 37.457 131.199 37.251 132.092 37.481 132.98 C 37.65 133.633 37.573 134.371 37.498 135.059 C 37.418 135.791 37.784 136.442 37.737 137.169 C 37.661 138.348 38.08 139.44 38.459 140.585 C 38.776 140.066 38.34 139.7 38.343 139.274 C 38.346 138.706 38.294 138.15 38.179 137.577 C 38.015 136.761 38.117 135.902 37.96 135.054 C 37.79 134.13 37.997 133.166 37.75 132.214 C 37.584 131.578 37.741 130.886 37.543 130.209 C 37.394 129.696 37.459 129.096 37.529 128.549 C 37.602 127.983 37.295 127.506 37.298 126.962 C 37.313 123.827 37.314 120.693 37.297 117.559 C 37.294 117.02 37.691 116.54 37.433 115.844 M 106.779 32.96 C 106.494 33.457 106.263 34.003 105.8 34.331 C 104.711 35.101 104.318 36.496 103.164 37.194 C 103.071 37.915 102.445 38.292 102.067 38.82 C 101.53 39.57 101.054 40.366 100.489 41.088 C 99.978 41.742 99.557 42.443 99.099 43.126 C 98.641 43.808 98.185 44.499 97.683 45.144 C 97.055 45.953 96.663 46.898 96.046 47.713 C 95.621 48.274 95.126 48.824 94.969 49.559 C 94.951 49.644 94.816 49.698 94.757 49.783 C 94.272 50.486 93.743 51.163 93.322 51.903 C 92.535 53.289 91.737 54.665 90.868 56.003 C 90.759 56.172 90.451 56.389 90.682 56.781 C 90.845 56.617 91.055 56.49 91.145 56.304 C 91.686 55.185 92.433 54.195 93.065 53.133 C 93.545 52.326 94.023 51.516 94.495 50.704 C 95.152 49.572 96.007 48.559 96.682 47.431 C 97.121 46.698 97.679 46.027 98.084 45.295 C 98.816 43.974 99.775 42.814 100.548 41.525 C 101.153 40.514 101.933 39.598 102.627 38.637 C 103.309 37.691 104.015 36.723 104.876 35.905 C 105.074 35.716 105.225 35.51 105.319 35.252 C 105.42 34.976 105.935 35.1 105.893 34.673 C 106.445 34.255 106.705 33.584 107.223 33.138 C 107.297 33.074 107.32 33.038 107.241 32.976 C 107.097 32.897 106.931 32.94 106.779 32.96 M 27.219 121.576 C 27.098 121.886 26.62 122.123 27.029 122.524 C 26.687 122.707 27.073 122.832 27.073 122.992 C 27.071 123.21 26.824 123.284 26.841 123.533 C 26.866 123.889 26.422 124.223 26.842 124.627 C 27.009 124.788 26.465 124.993 26.693 125.233 C 26.922 125.475 26.838 125.599 26.678 125.833 C 26.563 125.998 26.697 126.31 26.439 126.459 C 26.897 127.049 26.542 127.727 26.641 128.358 C 26.686 128.645 26.582 128.96 26.831 129.2 C 26.504 129.514 26.523 130.043 26.714 130.226 C 27.099 130.594 26.632 130.912 26.812 131.287 C 26.976 131.63 26.924 132.119 27.049 132.542 C 27.134 132.83 27.065 133.164 27.065 133.477 C 27.065 133.825 27.117 134.184 27.049 134.518 C 26.994 134.79 27.43 135.033 27.065 135.288 C 27.19 135.595 27.33 135.89 27.282 136.247 C 27.242 136.555 27.264 136.873 27.277 137.186 C 27.294 137.617 27.325 138.032 27.44 138.468 C 27.571 138.964 27.832 139.485 27.694 140.042 C 27.656 140.19 27.786 140.286 27.826 140.403 C 27.953 140.77 28.119 141.168 28.084 141.537 C 28.043 141.975 28.182 142.414 28.359 142.679 C 28.638 143.099 28.436 143.528 28.624 143.938 C 28.862 144.457 29.046 145.046 29.124 145.601 C 29.29 146.777 30.057 147.783 30.008 149.011 C 30 149.213 30.374 149.293 30.412 149.568 C 30.564 150.649 30.995 151.645 31.397 152.654 C 31.378 152.239 31.654 151.773 31.158 151.448 C 30.979 151.33 31.044 151.142 31.036 150.977 C 31.025 150.737 31.103 150.448 30.997 150.265 C 30.447 149.32 30.323 148.242 29.96 147.244 C 29.813 146.842 29.912 146.428 29.743 146.083 C 29.354 145.287 29.133 144.455 28.894 143.607 C 28.692 142.894 28.517 142.149 28.376 141.439 C 28.228 140.702 27.968 139.926 28.108 139.134 C 28.125 139.033 28.155 138.883 28.103 138.829 C 27.765 138.477 27.889 138.042 27.918 137.656 C 27.951 137.23 27.669 136.904 27.679 136.488 C 27.692 135.957 27.635 135.434 27.528 134.895 C 27.359 134.047 27.515 133.142 27.286 132.272 C 27.209 131.979 27.274 131.648 27.274 131.335 C 27.274 131.057 27.226 130.767 27.287 130.503 C 27.357 130.201 27.036 129.94 27.188 129.7 C 27.408 129.355 27.161 129.144 27.068 128.879 C 27.025 128.76 27.128 128.692 27.2 128.623 C 27.353 128.476 27.319 128.198 27.26 128.147 C 26.997 127.923 27.064 127.647 27.069 127.382 C 27.073 127.057 26.979 126.709 27.25 126.434 C 26.891 126.128 27.141 125.717 27.065 125.362 C 26.981 124.967 27.301 124.572 27.065 124.177 C 27.52 123.333 27.15 122.445 27.219 121.576 M 150.523 115.402 C 150.404 115.556 150.364 115.584 150.366 115.609 C 150.466 117.222 150.213 118.818 150.104 120.464 C 150.061 120.54 149.946 120.489 149.793 120.515 C 149.632 120.804 149.866 121.236 149.54 121.527 C 149.464 121.595 149.541 121.824 149.636 121.992 C 149.834 122.341 149.827 122.71 149.43 122.979 C 149.196 122.965 149.43 122.658 149.208 122.622 C 148.827 122.944 149.306 123.19 149.318 123.449 C 149.297 123.748 148.998 123.546 148.922 123.715 C 148.963 123.902 149.13 123.82 149.234 123.867 C 149.47 125.305 149.319 125.102 148.905 126.397 C 149.022 126.842 149.457 126.707 149.809 126.88 C 149.107 127.113 149.942 127.668 149.432 127.992 C 149.178 127.883 149.049 127.544 148.703 127.404 C 148.733 127.724 148.559 128.025 148.845 128.285 C 149.205 128.613 149.204 128.962 148.94 129.361 C 148.861 129.48 148.906 129.68 148.895 129.828 C 149.066 129.889 149.186 129.933 149.304 129.976 C 149.255 130.03 149.219 130.105 149.176 130.11 C 148.971 130.131 148.726 130.067 148.571 130.16 C 148.411 130.255 148.057 130.443 148.365 130.708 C 148.586 130.896 148.067 131.117 148.445 131.261 C 148.486 131.277 148.256 131.341 148.144 131.39 C 147.976 131.594 148.493 131.746 148.201 131.962 C 148.074 132.055 148.014 132.191 148.069 132.322 C 148.406 133.134 147.988 133.682 147.44 134.192 C 147.422 134.208 147.445 134.262 147.435 134.294 C 147.417 134.355 147.389 134.413 147.348 134.512 C 147.225 134.276 147.115 134.062 147.014 133.869 C 147.091 133.419 147.604 133.537 147.786 133.195 C 147.688 132.933 147.609 132.635 147.358 132.438 C 146.896 132.509 147.204 132.916 147.059 133.154 C 146.927 133.372 146.72 133.636 146.795 133.989 C 146.866 134.322 146.81 134.681 146.81 135.102 C 146.317 135.038 145.999 135.31 145.765 135.711 C 145.768 136.123 146.169 136.095 146.385 136.272 C 146.208 136.584 145.642 136.341 145.26 135.776 C 144.512 136.147 145.254 136.657 145.139 137.09 C 145.01 137.378 144.664 137.079 144.517 137.319 C 144.453 137.781 144.903 137.768 145.076 137.928 C 144.981 138.218 145.103 138.526 144.924 138.743 C 144.986 138.989 145.477 138.797 145.345 139.206 C 145.14 139.434 144.993 139.283 144.845 139.121 C 144.446 139.298 144.509 139.852 144.096 140.006 C 144.234 140.235 144.409 140.37 144.739 140.405 C 144.447 140.933 145.394 141.502 144.611 142.022 C 144.434 141.927 144.597 141.46 144.126 141.652 C 143.937 141.971 144.389 142.193 144.334 142.553 C 144.282 142.901 144.118 143.168 144.011 143.473 C 143.842 143.421 143.746 143.082 143.503 143.349 C 143.431 143.488 143.466 143.597 143.575 143.708 C 143.742 143.876 143.752 144.14 143.615 144.259 C 143.185 144.632 143.146 145.189 142.888 145.638 C 142.672 146.016 142.676 146.563 142.088 146.652 C 142.052 146.658 142.004 146.764 142.008 146.82 C 142.033 147.181 141.732 147.415 141.661 147.72 C 141.584 148.051 141.257 148.178 141.176 148.461 C 141.073 148.825 140.568 148.977 140.579 149.242 C 140.596 149.668 139.959 149.47 140.105 149.881 C 139.746 149.953 139.548 150.243 139.296 150.48 L 139.296 151.291 C 139.017 151.566 138.715 151.61 138.37 151.426 C 138.112 151.636 138.32 151.941 138.211 152.204 C 138.108 152.242 137.987 152.286 137.829 152.343 L 137.829 153.015 C 137.673 153.079 137.554 153.127 137.419 153.182 C 137.313 153.507 137.896 153.743 137.522 154.118 C 137.422 154.168 137.427 153.987 137.265 153.997 C 137.292 154.289 136.915 154.543 137.178 154.935 C 136.847 155.077 136.367 154.803 136.16 155.386 L 136.16 156.317 C 135.482 156.671 135.007 157.31 134.283 157.57 C 134.343 157.748 134.509 157.672 134.653 157.751 C 134.65 158.023 134.21 158.069 134.276 158.361 C 134.353 158.705 134.063 158.69 133.898 158.823 C 133.689 158.99 133.511 159.192 133.232 159.252 L 133.232 159.657 C 133.17 159.769 133.083 159.796 132.973 159.792 C 132.872 159.789 132.772 159.803 132.683 159.808 C 132.509 160.041 132.668 160.294 132.525 160.63 C 132.395 160.821 131.875 160.856 131.922 161.386 C 131.931 161.481 131.584 161.505 131.434 161.673 C 130.998 162.162 130.441 162.529 130.043 163.065 C 129.846 163.329 129.577 163.525 129.259 163.678 C 128.962 163.821 128.895 164.217 128.682 164.479 C 128.477 164.73 128.023 164.675 127.992 165.11 C 127.981 165.264 127.735 165.172 127.657 165.266 C 127.48 165.477 127.192 165.502 127.041 165.825 C 126.815 166.307 126.16 166.42 125.825 166.87 C 125.54 167.251 125.159 167.553 124.718 167.72 C 124.343 167.862 124.371 168.453 123.873 168.412 C 123.48 168.942 122.841 169.186 122.41 169.669 C 122.227 169.874 122.023 170.038 121.756 170.111 C 121.582 170.157 121.542 170.645 121.239 170.268 C 121.034 170.531 120.937 170.894 120.515 170.953 C 120.428 170.965 120.497 171.214 120.265 171.304 C 119.782 171.491 119.438 171.94 118.934 172.126 C 118.786 172.181 118.571 172.279 118.516 172.345 C 117.791 173.226 116.668 173.503 115.814 174.175 C 115.732 174.239 115.678 174.347 115.589 174.391 C 114.926 174.723 114.172 174.883 113.592 175.363 C 113.027 175.83 112.362 176.11 111.705 176.361 C 111.326 176.506 111.1 176.861 110.703 176.927 C 110.259 177 109.948 177.306 109.647 177.618 C 109.485 177.505 109.382 177.434 109.28 177.363 C 109.097 177.976 108.536 178.163 108.041 178.363 C 107.864 178.434 107.675 178.527 107.52 178.613 C 106.442 179.209 105.325 179.703 104.149 180.066 C 104.028 180.103 103.93 180.208 103.815 180.269 C 103.25 180.57 102.668 180.762 102.003 180.698 C 101.492 180.65 99.977 181.11 99.379 181.412 C 98.198 182.008 97.028 182.627 95.83 183.187 C 94.986 183.581 94.106 183.901 93.237 184.239 C 92.304 184.601 91.363 184.941 90.483 185.46 C 90.076 185.041 89.658 185.416 89.228 185.489 C 88.732 185.574 88.826 186.255 88.344 186.323 C 88.019 186.512 87.872 186.076 87.598 186.117 C 87.337 186.247 87.533 186.5 87.425 186.683 C 87.266 186.823 87.128 186.762 86.987 186.577 C 86.955 186.522 86.911 186.53 86.856 186.62 C 86.667 186.926 86.326 187.045 86.03 187.142 C 85.804 187.216 85.591 187.243 85.413 187.429 C 85.15 187.703 84.877 187.64 84.628 187.382 C 84.297 187.726 84.01 188.074 83.421 188.037 C 83.169 188.022 82.965 188.538 82.551 188.42 C 82.396 188.673 82.133 188.684 81.909 188.619 C 81.491 188.498 81.714 189.029 81.369 189.069 C 80.43 189.178 79.539 189.535 78.604 189.713 C 78.111 189.807 77.542 189.722 77.091 190.083 C 76.942 190.202 76.817 189.963 76.677 189.904 C 76.549 190.031 76.426 190.155 76.283 190.298 C 75.974 190.253 75.616 190.438 75.324 190.172 C 75.186 190.047 75.164 190.188 75.098 190.23 C 74.39 190.683 73.549 190.695 72.781 190.945 C 72.215 191.13 71.591 190.969 71.101 191.173 C 70.29 191.509 69.402 191.075 68.648 191.555 C 67.983 191.454 67.304 191.715 66.631 191.372 C 66.327 191.217 65.875 191.379 65.496 191.34 C 64.126 191.198 62.762 190.979 61.548 190.287 C 60.985 189.967 60.454 189.528 59.843 189.367 C 59.173 189.19 58.629 188.774 57.96 188.592 C 57.42 188.446 56.968 187.971 56.48 187.637 C 55.675 187.084 54.89 186.502 53.9 186.29 C 53.773 186.263 53.6 186.165 53.471 186.079 C 52.954 185.734 52.346 185.553 51.84 185.238 C 51.315 184.912 50.71 184.678 50.266 184.235 C 49.71 183.679 48.895 183.436 48.52 182.639 C 48.324 182.224 47.834 181.959 47.558 181.569 C 47.303 181.21 47.096 180.838 46.719 180.571 C 46.518 180.429 46.418 180.147 46.266 179.933 C 45.8 179.275 45.098 178.851 44.583 178.244 C 44.319 177.933 44.008 177.674 43.755 177.343 C 43.535 177.054 43.148 176.855 42.898 176.556 C 41.641 175.052 40.229 173.663 39.395 171.844 C 39.271 171.573 38.863 171.562 38.802 171.38 C 38.717 171.124 38.528 171.002 38.402 170.811 C 37.758 169.825 37.094 168.85 36.5 167.835 C 36.37 167.612 36.122 167.336 36.259 166.997 C 36.357 166.756 36.127 166.596 36.033 166.471 C 35.594 165.883 35.505 165.213 35.416 164.524 C 35.375 164.207 35.242 163.902 35.15 163.591 L 35.183 162.644 C 35.425 162.052 35.019 161.562 34.76 161.185 C 34.385 160.639 34.117 160.045 33.785 159.486 C 33.421 158.875 33.079 158.243 32.764 157.611 C 32.378 156.837 32.014 156.039 31.685 155.239 C 31.098 153.81 30.541 152.364 30.143 150.862 C 29.928 150.053 29.638 149.262 29.361 148.471 C 29.04 147.554 28.637 146.662 28.526 145.682 C 28.089 145.394 28.455 144.908 28.244 144.543 C 28.07 144.243 28.002 143.879 27.902 143.538 C 27.654 142.689 27.553 141.806 27.33 140.952 C 27.286 140.787 27.39 140.792 27.429 140.729 C 27.531 140.566 27.526 140.37 27.455 140.242 C 27.33 140.017 26.925 139.893 27.274 139.548 C 27.127 139.282 27.13 138.972 27.045 138.7 C 26.705 137.621 27.051 136.422 26.44 135.4 C 26.425 135.375 26.435 135.331 26.438 135.297 C 26.588 133.956 26.109 132.65 26.213 131.308 C 26.229 131.099 26.474 130.924 26.368 130.805 C 26.171 130.582 26.237 130.352 26.236 130.124 C 26.236 129.905 26.186 129.743 26.028 129.576 C 25.863 129.403 26.312 129.276 26.131 129.087 C 25.954 128.903 26.026 128.698 26.024 128.503 C 26.015 127.563 26.053 126.621 26.002 125.683 C 25.985 125.351 26.291 125.061 26.077 124.73 C 26.388 124.443 26.194 124.076 26.222 123.748 C 26.253 123.367 26.117 122.934 26.257 122.611 C 26.443 122.177 26.475 121.756 26.426 121.329 C 26.373 120.87 26.748 120.51 26.65 120.055 C 26.613 119.881 26.753 119.744 26.797 119.597 C 26.992 118.942 27.17 118.274 27.263 117.598 C 27.424 116.426 27.836 115.332 28.228 114.233 C 28.487 113.507 28.785 112.784 29.167 112.117 C 29.915 110.811 30.668 109.509 31.6 108.311 C 32.145 107.611 32.686 106.9 33.19 106.162 C 33.722 105.384 34.44 104.735 35.075 104.028 C 35.597 103.446 36.257 102.991 36.636 102.274 C 36.758 102.043 36.994 101.874 37.31 101.834 C 37.233 101.742 37.174 101.671 37.092 101.573 C 37.428 101.37 37.567 100.951 38.023 100.842 C 38.375 100.758 38.346 100.281 38.617 100.06 C 39.354 99.457 39.807 98.539 40.731 98.141 C 40.937 97.715 41.206 97.355 41.685 97.209 C 41.694 96.671 42.301 96.947 42.429 96.571 C 42.58 96.488 42.359 96.503 42.41 96.34 C 42.78 96.204 43.012 95.775 43.382 95.539 C 43.762 95.296 44.004 94.907 44.502 94.752 C 44.914 94.625 45.206 94.107 45.587 93.726 L 46.258 93.726 C 46.28 93.526 46.298 93.36 46.316 93.202 C 46.768 92.928 47.331 92.924 47.702 92.468 C 48.013 92.088 48.582 92.056 48.938 91.661 C 49.186 91.385 49.58 91.221 49.935 91.068 C 50.109 90.993 50.343 91.055 50.566 91.055 C 51.238 90.283 52.059 89.758 53.077 89.573 C 53.878 88.878 55.006 88.769 55.793 88.081 C 56.055 87.853 56.345 87.907 56.611 87.755 C 57.847 87.047 59.122 86.412 60.346 85.677 C 61.312 85.098 62.345 84.628 63.366 84.147 C 64.001 83.848 64.559 83.466 65.094 83.013 C 66.209 82.069 67.301 81.101 68.402 80.142 C 69.53 79.16 70.634 78.149 71.776 77.189 C 73.503 75.738 75.002 74.066 76.616 72.508 C 77.704 71.457 78.659 70.278 79.702 69.181 C 80.656 68.177 81.529 67.087 82.443 66.039 C 83.632 64.676 84.748 63.248 85.848 61.811 C 87.089 60.19 88.224 58.492 89.336 56.78 C 90.38 55.171 91.303 53.484 92.315 51.858 C 93.214 50.416 94.148 48.987 95.085 47.565 C 95.767 46.529 96.394 45.457 97.077 44.422 C 97.951 43.101 98.838 41.79 99.811 40.537 C 100.217 40.014 100.549 39.438 100.969 38.918 C 101.172 38.667 101.342 38.349 101.599 38.155 C 101.868 37.953 101.891 37.637 102.095 37.405 C 102.83 36.571 103.473 35.663 104.226 34.835 C 105.066 33.911 105.825 32.909 106.688 32.001 C 106.918 31.759 107.249 31.594 107.454 31.378 C 107.692 31.126 107.817 30.786 108.19 30.63 C 108.469 30.513 108.397 30.022 108.855 29.981 C 109.002 29.967 109.128 29.576 109.297 29.369 C 109.759 28.804 110.432 28.502 110.924 27.978 C 111.424 27.445 111.909 26.882 112.482 26.436 C 113.391 25.73 114.204 24.912 115.118 24.223 C 115.988 23.566 116.73 22.708 117.766 22.309 C 118.046 22.202 117.839 21.787 118.192 21.864 C 119.653 20.852 121.108 19.829 122.579 18.832 C 123.196 18.414 123.891 18.118 124.542 17.76 C 125.386 17.295 126.173 16.707 127.101 16.384 C 128.227 15.993 129.17 15.171 130.379 14.968 C 130.726 14.456 131.409 14.564 131.831 14.179 C 131.997 14.028 132.141 14.182 132.246 14.301 C 133.061 13.772 133.902 13.328 134.835 13.025 C 135.996 12.647 137.105 12.108 138.263 11.721 C 140.045 11.126 141.825 10.53 143.672 10.135 C 144.415 9.976 145.144 9.812 145.902 9.709 C 146.603 9.613 147.292 9.352 148.01 9.268 C 148.098 9.258 148.186 9.113 148.258 9.125 C 149.086 9.264 149.859 8.763 150.679 8.912 C 151.306 9.027 151.851 8.628 152.475 8.687 C 153.062 8.741 153.695 8.828 154.242 8.672 C 155.505 8.312 156.778 8.469 158.026 8.535 C 158.827 8.578 159.651 8.597 160.446 8.719 C 161.704 8.909 162.986 9.095 164.169 9.556 C 165.806 10.192 167.352 11.001 168.767 12.103 C 169.859 12.952 170.588 14.014 171.319 15.123 C 171.822 15.886 172.151 16.744 172.451 17.578 C 172.674 18.199 172.775 18.91 172.949 19.571 C 173.201 20.523 173.272 21.505 173.535 22.456 C 173.682 22.989 173.695 23.587 173.733 24.141 C 173.9 26.544 174.067 28.951 173.989 31.366 C 173.975 31.81 173.671 32.169 173.754 32.64 C 173.825 33.045 173.876 33.511 173.743 33.882 C 173.551 34.416 173.672 34.967 173.533 35.468 C 173.384 36.003 173.427 36.536 173.336 37.058 C 173.144 38.158 172.731 39.217 172.724 40.353 C 171.934 42.093 171.692 44.008 170.925 45.773 C 170.361 47.067 169.795 48.37 169.28 49.687 C 168.879 50.713 168.313 51.652 167.904 52.67 C 167.745 53.067 167.344 53.362 167.152 53.721 C 166.969 54.064 166.96 54.52 166.764 54.915 C 166.594 55.257 166.404 55.504 166.092 55.587 C 166.321 56.281 165.575 56.562 165.508 57.14 C 165.447 57.683 165.047 58.191 164.78 58.706 C 164.512 59.223 164.202 59.719 163.953 60.245 C 163.69 60.8 163.412 61.345 163.125 61.888 C 162.857 62.397 162.692 62.961 162.484 63.501 C 162.272 64.051 161.871 64.489 161.601 65.013 C 161.332 65.534 161.221 66.11 160.908 66.612 C 160.607 67.095 160.399 67.637 160.155 68.144 C 160.389 68.328 160.391 68.056 160.515 68.064 C 160.78 68.352 160.486 68.507 160.322 68.625 C 160.07 68.806 160.277 69.085 160.114 69.28 C 159.97 69.452 159.805 69.661 159.786 69.867 C 159.763 70.116 159.649 70.3 159.571 70.515 C 159.498 70.716 159.645 71.033 159.228 70.984 C 159.042 71.193 159.183 71.448 159.138 71.679 C 158.887 71.776 158.694 71.941 158.623 72.3 C 158.536 72.072 158.49 71.952 158.443 71.83 C 158.001 72.042 157.954 72.504 158.152 72.76 C 158.475 73.178 158.17 73.442 158.077 73.692 C 158.149 73.997 158.64 73.804 158.501 74.24 C 157.992 74.355 157.44 74.471 157.468 75.199 C 156.901 75.61 157.065 76.345 156.723 76.881 C 156.402 77.383 156.411 78.057 156.044 78.582 C 155.854 78.854 156.097 79.229 155.9 79.567 C 155.677 79.951 155.713 80.431 155.484 80.859 C 155.336 81.137 155.366 81.568 155.214 81.928 C 155.102 82.191 155.164 82.527 155.147 82.839 C 155.029 82.865 154.934 82.886 154.811 82.913 C 155.075 83.414 154.765 83.868 154.649 84.326 C 154.524 84.82 154.325 85.314 154.057 85.746 C 153.864 86.056 153.841 86.37 154 86.589 C 154.162 86.814 153.794 87.053 154.098 87.196 C 153.696 87.448 154.149 88.044 153.657 88.272 C 153.431 88.377 153.53 88.726 153.292 88.845 C 153.547 88.953 153.427 89.301 153.661 89.423 C 153.377 90.137 153.377 90.137 153.042 90.315 C 153.285 90.725 153.425 91.108 152.946 91.524 C 152.675 91.76 153.024 92.309 152.692 92.633 C 152.792 92.727 152.958 92.883 152.86 92.965 C 152.535 93.235 152.802 93.659 152.594 93.902 C 152.343 94.195 152.495 94.496 152.459 94.79 C 152.42 95.112 152.634 95.409 152.474 95.775 C 152.336 96.09 152.557 96.512 152.249 96.833 C 152.094 96.996 152.546 97.08 152.345 97.327 C 152.207 97.498 152.626 97.714 152.325 97.989 C 152.1 98.195 152.266 98.58 152.247 98.884 C 152.23 99.161 152.243 99.439 152.243 99.718 C 152.47 99.684 152.47 99.684 152.547 99.614 C 152.65 99.666 152.651 99.759 152.666 99.86 C 152.71 100.176 152.372 100.37 152.434 100.717 C 152.478 100.961 152.539 101.247 152.341 101.507 C 152.19 101.706 152.539 101.86 152.466 102.112 C 152.411 102.304 152.202 102.398 152.235 102.649 C 152.395 103.848 151.873 105.008 152.046 106.191 C 151.834 106.362 151.827 106.099 151.711 106.093 C 151.692 106.111 151.645 106.137 151.646 106.16 C 151.719 107.322 151.294 108.452 151.413 109.615 C 151.443 109.909 151.129 110.173 151.398 110.495 C 151.577 110.709 151.079 110.974 151.371 111.239 C 151.042 111.515 151.236 111.886 151.205 112.212 C 151.176 112.523 151.199 112.839 151.199 113.152 C 151.199 113.5 151.125 113.87 151.219 114.191 C 151.321 114.542 150.657 114.847 151.199 115.173 C 150.832 115.428 151.021 115.807 150.997 116.132 C 150.967 116.513 150.99 116.898 150.99 117.28 C 150.99 117.629 151.023 117.981 150.982 118.324 C 150.915 118.888 150.685 119.433 150.783 120.014 C 150.877 120.571 150.399 121.001 150.586 121.544 L 150.269 121.544 C 150.34 119.533 150.731 117.538 150.523 115.402" fill="rgb(0,0,0)"/></g></svg>