<?xml version="1.0" encoding="UTF-8" standalone="no"?><!-- Generator: Gravit.io --><svg xmlns="http://www.w3.org/2000/svg" xmlns:xlink="http://www.w3.org/1999/xlink" style="isolation:isolate" viewBox="0 0 200 200" width="200pt" height="200pt"><defs><clipPath id="_clipPath_qiILFuUF6bwEhd4ryWemYXHPz8xOkpfr"><rect width="200" height="200"/></clipPath></defs><g clip-path="url(#_clipPath_qiILFuUF6bwEhd4ryWemYXHPz8xOkpfr)"><path d=" M 107.441 98.456 C 107.11 98.509 106.811 98.657 106.622 98.568 C 105.993 98.273 105.313 98.263 104.659 98.134 C 103.857 97.974 102.995 98.017 102.229 97.83 C 101.176 97.573 100.099 97.383 99.048 97.222 C 97.964 97.056 96.907 96.717 95.798 96.665 C 95.301 96.642 94.818 96.366 94.324 96.217 C 94.271 96.202 94.192 96.271 94.106 96.31 C 94.113 96.411 94.12 96.518 94.13 96.656 C 94.781 96.748 95.471 96.714 96.037 96.964 C 96.544 97.187 97.103 96.971 97.481 97.202 C 97.935 97.481 98.454 97.203 98.794 97.484 C 99.194 97.814 99.657 97.453 100.015 97.72 C 100.443 98.04 100.969 97.718 101.369 97.903 C 101.929 98.164 102.607 97.903 103.033 98.179 C 103.611 98.553 104.311 98.05 104.777 98.597 C 105.409 98.456 105.981 98.767 106.585 98.836 C 107.268 98.914 107.989 98.885 108.621 99.107 C 109.159 99.298 109.748 99.138 110.179 99.359 C 110.578 99.563 110.981 99.396 111.283 99.574 C 111.69 99.813 112.097 99.739 112.506 99.8 C 112.848 99.851 113.191 99.918 113.532 99.999 C 114.157 100.148 114.782 100.382 115.45 100.271 C 115.605 100.245 115.855 100.202 115.912 100.278 C 116.27 100.755 116.82 100.329 117.221 100.598 C 117.679 100.904 118.212 100.687 118.709 100.741 C 118.866 100.759 119.086 100.677 119.175 100.756 C 119.512 101.051 119.957 100.855 120.265 101.01 C 120.69 101.223 121.018 100.916 121.393 100.979 C 121.953 101.073 122.518 101.147 123.082 101.219 C 123.563 101.281 124.047 101.327 124.588 101.387 C 124.605 101.373 124.687 101.304 124.733 101.264 C 125.013 101.408 125.263 101.537 125.451 101.634 C 125.949 101.387 126.382 101.367 126.814 101.615 C 127.29 101.888 127.694 101.578 128.108 101.45 C 128.584 101.303 128.937 102.005 129.51 101.539 C 129.797 101.305 130.386 101.441 130.891 101.407 C 130.125 100.967 129.353 100.884 128.597 101.001 C 127.819 101.122 127.098 100.555 126.328 100.887 C 125.876 100.554 125.468 100.798 125.045 101.006 C 124.843 100.827 124.645 100.65 124.418 100.448 C 124.154 100.552 123.918 100.646 123.669 100.744 C 123.321 100.5 122.957 100.329 122.59 100.728 C 122.44 100.578 122.299 100.438 122.135 100.273 C 121.241 100.229 120.307 100.373 119.406 100.038 C 119.025 99.897 118.604 99.829 118.197 99.798 C 117.432 99.741 116.675 99.725 115.904 99.603 C 115.083 99.472 114.258 99.145 113.386 99.297 C 113.245 99.322 113.068 99.136 112.898 99.043 C 112.792 99.132 112.7 99.274 112.62 99.268 C 111.981 99.219 111.342 99.151 110.707 99.065 C 110.61 99.052 110.528 98.922 110.439 98.846 C 110.359 98.919 110.274 98.996 110.144 99.114 C 109.845 98.961 109.527 98.798 109.208 98.635 C 109.181 98.662 109.156 98.708 109.124 98.715 C 108.607 98.82 108.129 98.449 107.6 98.584 C 107.535 98.601 107.427 98.445 107.441 98.456 Z  M 56.442 88.538 C 56.402 88.376 56.374 88.269 56.332 88.101 C 56.237 88.172 56.162 88.228 56.078 88.291 C 55.485 87.961 54.89 87.609 54.278 87.294 C 53.455 86.871 52.614 86.509 51.826 85.993 C 51.156 85.556 50.31 85.305 49.749 84.734 C 49.218 84.195 48.366 84.257 47.96 83.595 C 47.15 83.486 46.752 82.724 46.071 82.4 C 45.87 82.306 45.736 82.132 45.465 82.117 C 45.193 82.101 45.196 82.036 44.891 81.462 C 44.808 81.45 44.698 81.431 44.588 81.421 C 44.51 81.414 44.374 81.444 44.359 81.413 C 44 80.65 42.994 80.842 42.565 80.191 C 42.524 80.13 42.498 80.011 42.454 80.005 C 41.198 79.84 40.444 78.746 39.332 78.326 C 38.915 78.169 38.747 77.734 38.356 77.565 C 38.188 77.492 38.033 77.388 37.853 77.287 C 37.805 77.1 37.785 76.866 37.685 76.674 C 37.584 76.482 37.402 76.331 37.187 76.083 C 37.827 75.8 38.426 76.024 38.969 75.734 C 38.53 75.713 38.091 75.693 37.62 75.67 C 37.594 75.573 37.565 75.467 37.536 75.36 C 39.05 74.876 39.071 74.824 40.847 75.551 C 42.103 76.066 43.456 76.403 44.533 77.304 C 45.565 77.537 46.384 78.21 47.306 78.668 C 48.563 79.293 49.755 80.045 50.999 80.697 C 52.564 81.519 54.147 82.305 55.733 83.086 C 57.217 83.818 58.747 84.438 60.29 85.041 C 61.309 85.438 62.316 85.906 63.337 86.32 C 64.358 86.735 65.392 87.115 66.424 87.504 C 67.181 87.788 67.923 88.165 68.707 88.31 C 69.537 88.463 70.158 89.049 70.971 89.198 C 71.484 89.292 71.943 89.632 72.501 89.533 C 72.578 89.519 72.683 89.499 72.736 89.536 C 73.613 90.159 74.69 90.196 75.664 90.529 C 76.677 90.875 77.714 91.153 78.748 91.434 C 79.319 91.59 79.906 91.67 80.46 91.908 C 81.114 92.19 81.849 92.15 82.53 92.379 C 83.371 92.661 84.253 92.853 85.116 93.028 C 85.96 93.199 86.8 93.388 87.633 93.596 C 89.257 94.002 90.932 94.186 92.522 94.745 C 92.942 94.893 93.395 94.8 93.855 94.978 C 94.476 95.219 95.299 95.003 95.862 95.306 C 96.483 95.639 97.204 95.201 97.717 95.734 C 98.949 95.699 100.106 96.211 101.336 96.223 C 101.701 96.226 102.064 96.374 102.429 96.449 C 102.833 96.532 103.236 96.618 103.643 96.685 C 104.012 96.748 104.439 96.536 104.736 96.927 C 105.36 96.843 105.946 97.104 106.547 97.141 C 107.316 97.189 108.042 97.58 108.831 97.404 C 109.267 97.89 109.98 97.398 110.438 97.859 C 110.518 97.939 110.742 97.876 110.899 97.882 C 111.355 97.897 111.793 97.866 112.243 98.096 C 112.629 98.294 113.124 98.002 113.587 98.325 C 113.854 98.51 114.355 98.358 114.733 98.358 C 114.89 98.515 115.031 98.656 115.176 98.801 C 115.827 98.358 116.365 98.653 116.89 99.063 C 117.226 98.66 117.765 98.723 118.07 98.892 C 118.464 99.109 118.821 99.06 119.193 99.067 C 120.278 99.086 121.331 99.441 122.435 99.338 C 122.719 99.312 123.032 99.598 123.322 99.737 C 123.468 99.681 123.632 99.593 123.807 99.556 C 124.295 99.453 124.76 99.705 125.286 99.59 C 125.722 99.495 126.264 99.671 126.696 99.866 C 126.934 99.973 127.016 99.81 127.129 99.82 C 127.772 99.878 128.447 99.559 129.068 100.011 C 129.225 100.125 129.533 100.028 129.772 100.028 C 131.481 100.028 133.19 100.023 134.9 100.033 C 135.285 100.035 135.696 100.014 136.048 100.138 C 136.409 100.266 136.626 99.849 136.973 100.018 C 137.197 100.128 137.469 100.139 137.761 100.202 C 138.022 100.153 138.349 100.042 138.678 100.037 C 139.95 100.016 141.227 99.958 142.493 100.046 C 144.069 100.157 145.605 99.818 147.163 99.745 C 148.287 99.693 149.391 99.232 150.592 98.931 C 150.812 99.012 151.147 99.135 151.507 99.267 C 151.55 99.23 151.634 99.155 151.737 99.064 C 151.954 99.325 152.17 99.585 152.423 99.89 C 151.748 100.062 151.181 100.206 150.517 100.376 C 150.689 100.617 150.796 100.767 150.925 100.948 L 152.155 100.948 C 152.309 101.103 152.421 101.215 152.62 101.414 C 152.346 101.618 152.073 101.822 151.758 102.057 C 151.995 102.149 152.131 102.202 152.281 102.26 C 152.426 102.92 151.993 103.317 151.598 103.726 C 151.673 103.809 151.747 103.893 151.766 103.914 C 151.479 104.197 151.201 104.47 150.87 104.797 C 150.555 104.722 150.163 104.309 149.693 104.671 C 149.768 104.756 149.843 104.84 149.985 104.999 C 149.464 104.915 149.011 104.842 148.558 104.769 C 148.543 104.829 148.529 104.89 148.514 104.95 C 148.734 105.003 148.954 105.056 149.244 105.126 C 148.947 105.28 148.705 105.406 148.393 105.568 C 148.326 105.429 148.267 105.309 148.155 105.078 C 147.965 105.067 147.673 105.05 147.315 105.029 C 147.415 105.266 147.488 105.438 147.622 105.754 C 147.331 105.754 147.145 105.767 146.961 105.752 C 145.63 105.641 144.342 106.094 143.004 106.011 C 141.657 105.928 140.3 106.029 138.952 105.963 C 138.665 105.949 138.489 106.395 138.152 106.068 C 138.048 105.967 137.634 106.189 137.527 106.087 C 137.143 105.721 137.009 106.277 136.7 106.255 C 136.164 106.215 135.697 105.948 135.13 105.969 C 133.423 106.035 131.712 106.014 130.003 105.982 C 129.359 105.97 128.719 105.802 128.074 105.763 C 127.412 105.723 126.747 105.754 126.085 105.707 C 127.059 105.435 129.354 105.466 130.392 105.609 C 130.214 105.556 130.037 105.503 129.859 105.449 C 129.911 105.392 129.964 105.335 130.017 105.277 C 129.303 105.277 128.587 105.238 127.877 105.286 C 126.859 105.356 125.895 104.862 124.874 105.039 C 124.517 104.721 124 104.949 123.68 104.767 C 123.17 104.478 122.742 105.019 122.221 104.71 C 121.827 104.476 121.242 104.565 120.635 104.498 C 120.588 104.46 120.449 104.346 120.31 104.233 C 120.335 104.181 120.36 104.128 120.384 104.076 C 121.535 104.197 122.686 104.318 123.894 104.446 C 123.929 104.415 124.046 104.313 124.164 104.211 C 124.037 104.083 123.924 103.971 123.812 103.859 C 123.696 103.945 123.58 104.031 123.329 104.218 C 123.262 103.944 123.199 103.689 123.136 103.434 L 122.889 103.643 C 122.781 103.696 122.672 103.751 122.535 103.818 C 122.51 103.698 122.488 103.589 122.456 103.433 C 121.98 103.316 121.473 103.193 120.961 103.068 C 120.858 103.286 120.781 103.449 120.694 103.634 C 120.277 103.482 119.871 103.335 119.478 103.192 C 119.361 103.261 119.235 103.336 119.058 103.441 C 118.818 103.137 118.6 102.86 118.381 102.583 C 118.251 102.714 118.194 102.77 118.112 102.852 C 117.909 102.753 117.695 102.649 117.469 102.538 C 117.589 102.422 117.702 102.312 117.827 102.191 C 117.904 102.259 117.986 102.33 118.112 102.44 C 118.316 102.347 118.545 102.242 118.802 102.125 C 118.868 102.312 118.916 102.451 118.967 102.598 C 119.302 102.485 119.633 102.373 120 102.248 C 120.464 102.619 121.068 102.311 121.67 102.445 C 121.798 102.566 121.967 102.726 122.135 102.885 C 122.466 102.452 122.951 102.76 123.408 102.604 C 123.414 102.498 123.423 102.363 123.437 102.121 C 123.268 102.253 123.189 102.314 123.047 102.425 C 122.931 102.252 122.804 102.063 122.669 101.862 C 122.467 102.076 122.332 102.22 122.177 102.385 C 121.925 102.256 121.676 102.128 121.414 101.993 C 121.066 102.336 120.725 102.141 120.336 101.951 C 120.008 101.791 119.622 101.751 119.237 101.652 C 119.159 101.513 119.061 101.341 118.865 100.998 C 118.722 101.343 118.658 101.499 118.562 101.733 C 118.213 101.683 117.842 101.629 117.472 101.574 C 117.097 101.518 116.653 101.568 116.365 101.379 C 115.979 101.126 115.739 101.712 115.345 101.402 C 115.082 101.194 114.627 101.229 114.261 101.156 C 114.093 101.401 113.968 101.584 113.734 101.928 C 114.177 101.888 114.446 101.864 114.853 101.826 C 114.831 101.805 114.938 101.905 115.075 102.031 C 115.014 102.109 114.954 102.186 114.876 102.287 C 114.933 102.357 114.999 102.437 115.063 102.515 C 115.022 102.558 114.973 102.649 114.931 102.646 C 114.583 102.621 114.237 102.556 113.889 102.548 C 113.516 102.539 113.052 102.723 112.788 102.561 C 112.387 102.315 112.016 102.507 111.616 102.388 C 111.476 102.255 111.306 102.093 111.085 101.883 C 110.909 102.009 110.729 102.139 110.455 102.336 C 111.66 102.914 112.909 102.967 114.287 103.25 C 113.648 103.441 113.148 103.404 112.683 103.343 C 112.407 103.307 112.155 103.094 111.824 103.119 C 111.561 103.139 111.189 102.93 111.044 103.047 C 110.675 103.343 110.574 102.884 110.333 102.889 C 110.015 102.897 109.693 102.922 109.38 102.883 C 109.011 102.838 108.653 102.712 108.284 102.658 C 107.949 102.609 107.631 102.56 107.297 102.458 C 106.763 102.294 106.143 102.414 105.555 102.6 C 105.952 102.633 106.348 102.666 106.921 102.714 C 105.816 103.197 104.939 102.546 104.036 102.652 C 103.86 102.412 103.718 102.136 103.499 101.953 C 103.388 101.861 103.137 101.937 102.699 101.937 C 103.089 102.128 103.239 102.201 103.39 102.276 C 103.335 102.325 103.28 102.412 103.234 102.407 C 102.745 102.364 102.26 102.502 101.766 102.202 C 101.402 101.98 100.904 102.226 100.421 102 C 99.864 101.738 99.154 101.819 98.523 101.689 C 97.903 101.56 97.277 101.47 96.661 101.302 C 95.759 101.056 94.815 100.971 93.911 100.731 C 93.01 100.492 92.04 100.586 91.187 100.113 C 90.757 99.874 90.247 100.013 89.757 99.829 C 88.72 99.441 87.599 99.281 86.518 99.005 C 85.941 98.858 85.396 98.61 84.78 98.588 C 84.043 98.561 83.561 98.234 83.253 97.635 C 83.169 97.807 83.097 97.955 83.019 98.115 C 82.931 98.036 82.848 97.963 82.765 97.889 C 82.685 97.961 82.601 98.036 82.603 98.033 C 82.163 97.891 81.777 97.658 81.398 97.669 C 80.879 97.684 80.572 97.332 79.901 97.199 C 78.848 97.416 77.794 96.43 76.49 96.424 C 76.459 96.212 76.426 95.993 76.362 95.566 C 76.174 95.893 76.062 96.089 76.031 96.142 C 74.962 95.98 74.136 95.589 73.337 95.124 L 73.337 94.793 C 73.159 94.882 73.027 94.984 72.881 95.01 C 72.689 95.044 72.486 95.019 72.252 95.019 C 72.139 94.888 72.009 94.739 71.861 94.569 L 70.811 94.569 C 70.75 94.396 70.701 94.258 70.64 94.085 C 70.521 94.16 70.409 94.231 70.227 94.347 C 69.994 94.137 69.744 93.912 69.544 93.732 C 69.516 93.469 69.496 93.287 69.461 92.958 C 69.208 93.338 69.044 93.583 68.871 93.843 C 68.158 93.562 67.509 93.144 66.712 93.001 C 66.009 92.875 65.43 92.323 64.697 92.114 C 64.293 91.998 63.966 91.572 63.452 91.678 C 63.206 91.281 62.768 91.244 62.385 91.089 C 61.905 90.894 61.274 91.015 60.939 90.578 C 60.6 90.137 59.911 90.389 59.685 89.833 C 59.193 89.777 58.796 89.432 58.352 89.326 C 57.84 89.205 57.445 88.996 57.064 88.664 C 56.942 88.558 56.702 88.586 56.442 88.538" fill="rgb(236,162,162)"/><g><path d=" M 162.733 97.078 C 162.686 97.185 162.54 97.359 162.58 97.449 C 163.009 98.385 162.748 99.312 162.563 100.236 C 162.411 100.997 162.293 101.794 161.84 102.436 C 161 103.623 160.481 105.086 159.064 105.798 C 159.023 106.554 157.933 106.44 157.898 107.202 C 157.109 107.585 156.631 108.334 155.96 108.854 C 155.537 109.181 155.127 109.518 154.73 109.875 C 154.577 110.012 154.322 110.034 154.043 110.135 C 153.956 110.313 153.827 110.576 153.665 110.908 C 153.366 111.098 152.995 111.333 152.569 111.605 C 152.557 111.807 152.542 112.074 152.527 112.359 C 152.39 112.409 152.252 112.459 152.114 112.509 C 151.886 112.97 152.372 112.846 152.517 113.001 C 152.232 113.623 151.723 114.017 151.124 114.367 C 150.742 114.075 150.355 113.78 149.93 113.455 L 149.93 111.858 C 149.766 111.685 149.604 111.515 149.434 111.336 C 149.533 110.581 149.296 109.807 149.66 109.046 C 149.836 108.68 149.887 108.247 150.221 107.972 C 150.434 107.796 150.352 107.378 150.789 107.356 C 150.885 107.351 150.953 106.902 151.045 106.661 C 151.227 106.183 151.645 105.88 151.97 105.522 C 152.743 104.669 153.529 103.811 154.416 103.085 C 155.297 102.365 156.082 101.516 157.108 100.971 C 157.408 100.812 157.632 100.511 157.899 100.286 C 158.158 100.068 158.429 99.864 158.767 99.596 C 158.345 99.414 157.921 99.232 157.436 99.022 C 157.376 99.183 157.328 99.313 157.278 99.449 C 156.239 99.352 155.33 98.746 154.254 98.541 L 154.254 98.008 C 153.442 97.755 152.67 97.515 151.899 97.275 C 151.58 97.17 151.284 97.648 150.871 97.281 C 151.038 97.203 151.196 97.129 151.355 97.055 C 150.784 97.16 150.295 96.187 149.687 97.034 C 148.933 96.152 147.562 96.569 146.929 95.523 C 146.867 95.579 146.784 95.654 146.67 95.757 C 146.073 95.531 145.471 95.219 144.832 95.083 C 144.168 94.941 143.958 94.243 143.156 94.069 C 142.366 94.192 141.469 93.967 140.709 93.333 C 140.596 92.992 140.493 92.677 140.383 92.342 C 140.442 92.241 140.513 92.122 140.584 92.002 C 140.444 91.861 140.303 91.721 140.144 91.562 C 140.465 91.401 140.78 91.243 141.097 91.083 C 140.948 90.935 140.808 90.794 140.631 90.618 C 140.84 90.495 141.042 90.378 141.304 90.224 C 141.786 90.809 142.541 90.38 143.204 90.678 C 144.137 91.098 145.22 91.168 146.222 91.448 C 147.393 91.776 148.544 92.174 149.706 92.533 C 150.942 92.915 152.175 93.303 153.437 93.605 C 154.472 93.853 155.44 94.353 156.498 94.555 C 156.854 94.992 157.499 94.582 157.856 95.018 C 158.753 94.926 159.49 95.567 160.371 95.573 C 160.546 95.575 160.718 95.698 160.897 95.73 C 161.7 95.876 162.454 96.084 162.733 97.078 Z " fill="rgb(236,162,162)"/></g></g></svg>