<?xml version="1.0" encoding="UTF-8" standalone="no"?><!-- Generator: Gravit.io --><svg xmlns="http://www.w3.org/2000/svg" xmlns:xlink="http://www.w3.org/1999/xlink" style="isolation:isolate" viewBox="0 0 200 200" width="200pt" height="200pt"><defs><clipPath id="_clipPath_YxFuvcE10RKtcOMowlMon0GiGD3KIn7a"><rect width="200" height="200"/></clipPath></defs><g clip-path="url(#_clipPath_YxFuvcE10RKtcOMowlMon0GiGD3KIn7a)"><g><path d=" M 29.38 108.694 C 29.412 108.764 29.443 108.834 29.475 108.904 C 29.784 108.776 30.092 108.648 30.401 108.52 C 30.364 108.437 30.326 108.355 30.289 108.272 C 29.986 108.413 29.683 108.554 29.38 108.694 Z  M 103.419 93.697 C 103.413 93.615 103.408 93.533 103.402 93.45 C 103.02 93.45 102.637 93.446 102.255 93.458 C 102.223 93.459 102.166 93.567 102.172 93.62 C 102.179 93.687 102.242 93.805 102.275 93.802 C 102.657 93.778 103.038 93.735 103.419 93.697 M 98.935 83.959 C 98.94 84.02 98.945 84.082 98.95 84.143 C 99.482 84.102 100.014 84.06 100.546 84.018 C 100.54 83.943 100.534 83.868 100.528 83.792 L 98.935 83.959 Z  M 144.279 138.693 L 144.27 138.645 C 143.736 138.593 143.202 138.54 142.667 138.49 C 142.582 138.482 142.493 138.48 142.411 138.497 C 142.385 138.503 142.374 138.582 142.356 138.627 C 142.444 138.649 142.532 138.69 142.62 138.69 C 143.173 138.697 143.726 138.693 144.279 138.693 M 85.471 104.179 C 85.477 104.234 85.484 104.288 85.49 104.342 C 86.13 104.274 86.771 104.207 87.411 104.139 C 87.405 104.083 87.399 104.027 87.393 103.97 C 86.752 104.04 86.112 104.11 85.471 104.179 Z  M 36.387 86.65 C 36.352 86.573 36.318 86.497 36.283 86.421 C 35.79 86.685 35.298 86.948 34.805 87.212 C 34.85 87.295 34.895 87.378 34.941 87.461 C 35.423 87.191 35.905 86.92 36.387 86.65 Z  M 93.364 65.346 C 93.399 65.43 93.435 65.514 93.471 65.598 C 93.852 65.518 94.236 65.451 94.61 65.348 C 94.687 65.326 94.75 65.174 94.771 65.071 C 94.778 65.039 94.613 64.915 94.557 64.933 C 94.155 65.056 93.76 65.205 93.364 65.346 M 118.863 127.318 C 118.853 127.243 118.844 127.167 118.833 127.093 C 117.905 127.189 116.976 127.286 116.047 127.382 C 116.053 127.447 116.059 127.511 116.065 127.576 C 116.998 127.49 117.931 127.404 118.863 127.318 M 134.99 123.917 C 134.989 124.001 134.988 124.085 134.987 124.169 L 137.164 124.296 C 137.166 124.205 137.168 124.115 137.171 124.025 C 136.444 123.989 135.717 123.953 134.99 123.917 Z  M 122.895 106.032 C 122.881 105.959 122.867 105.886 122.853 105.813 C 122.076 105.889 121.299 105.965 120.522 106.042 C 120.536 106.136 120.549 106.231 120.562 106.326 C 121.34 106.228 122.118 106.13 122.895 106.032 Z  M 101.054 64.699 L 101.057 64.504 C 100.477 64.551 99.896 64.587 99.319 64.659 C 99.235 64.67 99.173 64.853 99.101 64.957 C 99.204 64.991 99.314 65.07 99.406 65.052 C 99.957 64.947 100.505 64.819 101.054 64.699 Z  M 92.254 81.346 C 92.243 81.298 92.232 81.25 92.221 81.202 C 91.261 81.398 90.301 81.593 89.34 81.789 C 89.359 81.87 89.377 81.952 89.396 82.034 C 90.349 81.804 91.301 81.575 92.254 81.346 Z  M 45.097 86.888 C 45.06 86.827 45.023 86.766 44.987 86.705 L 41.103 88.109 C 41.129 88.179 41.154 88.249 41.179 88.318 C 42.485 87.841 43.791 87.364 45.097 86.888 M 68.232 133.876 C 68.032 133.379 67.352 133.042 66.997 133.205 C 66.89 133.254 66.748 133.221 66.623 133.236 C 66.456 133.256 66.289 133.286 66.122 133.312 C 66.244 133.436 66.351 133.645 66.491 133.669 C 67.045 133.767 67.61 133.807 68.232 133.876 M 106.487 104.777 C 106.482 104.833 106.477 104.889 106.472 104.946 L 110.081 104.946 C 110.079 104.889 110.076 104.833 110.074 104.777 L 106.487 104.777 Z  M 123.255 131.159 C 123.255 131.186 123.254 131.213 123.254 131.24 L 130.24 131.24 C 130.24 131.213 130.24 131.186 130.241 131.159 L 123.255 131.159 Z  M 102.161 64.366 L 102.171 64.696 C 103.092 64.756 104.012 64.824 104.934 64.863 C 105.034 64.868 105.141 64.708 105.244 64.625 C 105.159 64.526 105.074 64.343 104.987 64.342 C 104.045 64.334 103.103 64.354 102.161 64.366 M 148.02 155.851 C 148.016 155.886 148.013 155.921 148.009 155.956 C 150.204 155.661 152.399 155.373 154.591 155.06 C 154.828 155.026 155.043 154.844 155.268 154.731 C 155.069 154.784 154.871 154.839 154.671 154.892 C 154.647 154.898 154.62 154.894 154.595 154.898 C 152.403 155.215 150.212 155.533 148.02 155.851 M 35.653 99.329 C 34.624 99.204 31.873 100.411 31.691 101.025 C 32.991 100.468 34.233 99.937 35.653 99.329 Z  M 33.272 97.172 C 32.722 97.294 32.831 98.418 31.959 97.883 C 31.919 97.972 31.881 98.063 31.838 98.151 C 31.817 98.195 31.794 98.247 31.757 98.273 C 31.682 98.325 31.522 98.379 31.527 98.399 C 31.556 98.511 31.606 98.687 31.681 98.704 C 31.942 98.764 32.24 98.851 32.48 98.778 C 33.313 98.523 33.416 98.27 33.272 97.172 Z  M 152.381 113.966 C 152.364 113.841 152.347 113.716 152.331 113.591 C 150.468 113.789 148.605 113.987 146.742 114.185 C 146.746 114.241 146.751 114.297 146.755 114.353 C 148.63 114.224 150.506 114.095 152.381 113.966 Z  M 108.619 102.06 C 108.622 101.967 108.625 101.875 108.628 101.783 C 105.817 101.691 103.005 101.599 100.194 101.508 C 103.003 101.671 105.8 102.157 108.619 102.06 Z  M 98.895 90.541 C 98.893 90.611 98.891 90.68 98.89 90.749 C 99.089 90.766 99.287 90.789 99.487 90.798 C 100.859 90.861 102.232 90.936 103.605 90.972 C 103.852 90.978 104.305 90.847 104.317 90.739 C 104.369 90.291 104.057 90.139 103.626 90.174 C 102.049 90.302 100.472 90.419 98.895 90.541 M 20.794 90.893 C 20.878 90.948 20.962 91.003 21.046 91.058 L 25.71 83.548 C 25.211 84.034 24.777 84.585 24.325 85.121 C 24.202 85.268 24.098 85.763 23.827 85.214 C 23.756 85.257 23.656 85.285 23.62 85.349 C 23.573 85.433 23.556 85.632 23.561 85.633 C 24.099 85.759 23.712 85.995 23.614 86.16 C 22.679 87.741 21.736 89.316 20.794 90.893 Z  M 144.434 126.608 C 144.434 126.55 144.433 126.492 144.432 126.434 L 132.447 126.776 C 132.452 126.899 132.457 127.023 132.462 127.146 C 136.453 126.966 140.444 126.787 144.434 126.608 M 144.672 80.842 C 144.683 80.786 144.694 80.73 144.705 80.674 C 144.151 80.188 143.455 79.793 143.076 79.195 C 142.458 78.22 141.604 77.539 140.745 76.835 C 140.683 76.785 140.562 76.807 140.469 76.796 C 140.473 76.905 140.434 77.047 140.488 77.12 C 141.525 78.502 142.375 80.08 144.153 80.701 C 144.322 80.76 144.499 80.796 144.672 80.842 Z  M 155.759 116.792 C 151.626 117.286 147.73 117.751 143.834 118.216 C 147.795 118.24 151.722 117.98 155.759 116.792 Z  M 128.947 115.203 C 129.113 115.172 129.241 115.164 129.357 115.123 C 129.538 115.057 129.712 114.969 129.888 114.891 C 129.708 114.784 129.534 114.596 129.347 114.582 C 127.04 114.399 124.731 114.238 122.422 114.087 C 122.302 114.079 122.098 114.191 122.071 114.286 C 122.042 114.387 122.161 114.633 122.244 114.647 C 122.793 114.74 123.348 114.815 123.905 114.843 C 124.521 114.874 125.144 114.808 125.758 114.858 C 126.839 114.945 127.915 115.089 128.947 115.203 M 145.121 114.938 C 144.877 114.894 144.632 114.811 144.388 114.813 C 141.471 114.831 138.554 114.856 135.636 114.901 C 135.437 114.904 135.24 115.073 135.042 115.165 C 135.233 115.249 135.42 115.396 135.616 115.409 C 138.789 115.618 141.946 115.419 145.121 114.938 M 88.205 93.711 C 88.218 93.847 88.232 93.982 88.245 94.118 C 89.414 94.027 90.583 93.929 91.752 93.847 C 92.284 93.81 92.818 93.778 93.349 93.793 C 94.063 93.812 94.778 93.943 95.489 93.914 C 96.734 93.863 97.974 93.691 99.219 93.643 C 99.819 93.62 100.424 93.781 101.028 93.816 C 101.173 93.825 101.328 93.662 101.478 93.579 C 101.409 93.493 101.352 93.348 101.271 93.333 C 100.789 93.244 100.302 93.137 99.816 93.127 C 99.028 93.11 98.24 93.176 97.451 93.184 C 96.497 93.195 95.542 93.16 94.588 93.186 C 93.569 93.214 92.549 93.266 91.534 93.351 C 90.422 93.445 89.315 93.589 88.205 93.711 Z  M 86.333 87.002 C 86.662 87.049 87.016 87.192 87.331 87.132 C 90.329 86.567 93.316 85.943 96.315 85.386 C 97.719 85.126 99.145 84.981 100.558 84.769 C 100.672 84.751 100.768 84.621 100.872 84.543 C 100.774 84.471 100.685 84.357 100.577 84.336 C 100.405 84.301 100.218 84.309 100.042 84.334 C 97.996 84.626 95.949 84.913 93.905 85.226 C 92.782 85.399 91.654 85.568 90.55 85.832 C 89.151 86.167 87.775 86.597 86.333 87.002 Z  M 44.501 77.148 L 58.082 75.039 C 53.384 74.675 48.902 75.659 44.501 77.148 Z  M 88.719 89.81 L 88.76 90.082 C 88.969 90.073 89.184 90.092 89.385 90.048 C 90.307 89.85 91.217 89.577 92.146 89.433 C 95.653 88.89 99.167 88.389 102.676 87.861 C 102.791 87.844 102.888 87.708 102.994 87.628 C 102.88 87.551 102.761 87.404 102.651 87.41 C 101.437 87.477 100.207 87.472 99.013 87.674 C 96.433 88.109 93.868 88.64 91.301 89.159 C 90.432 89.335 89.58 89.59 88.719 89.81 M 159.287 119.402 C 152.977 120.718 146.567 121.195 140.157 121.663 C 146.633 121.745 153.048 121.313 159.287 119.402 Z  M 90.419 90.856 C 90.806 90.903 90.984 90.974 91.134 90.935 C 92.512 90.581 93.943 91.044 95.361 90.434 C 96.422 89.978 97.733 90.09 98.935 89.99 C 99.189 89.969 99.458 90.126 99.719 90.201 C 99.955 89.191 100.889 90.503 101.302 89.733 C 101.388 89.574 102.175 89.842 102.632 89.81 C 102.887 89.791 103.128 89.56 103.375 89.425 C 103.209 89.278 103.053 89.02 102.874 89.003 C 102.353 88.955 101.819 88.972 101.294 89.015 C 97.694 89.314 94.146 89.922 90.419 90.856 Z  M 147.86 127.061 C 147.857 126.995 147.853 126.93 147.85 126.865 C 147.153 126.911 146.456 126.98 145.758 127 C 141.329 127.125 136.899 127.226 132.471 127.377 C 131.975 127.394 131.488 127.675 130.998 127.834 C 131.025 127.929 131.052 128.025 131.079 128.121 C 136.703 128.231 142.291 127.797 147.86 127.061 Z  M 113.606 59.932 C 100.71 60.508 87.913 61.834 75.384 65.176 C 87.944 62.065 100.758 60.872 113.606 59.932 Z  M 119.278 64.744 C 119.278 64.677 119.278 64.611 119.278 64.545 C 118.545 64.341 117.813 64.133 117.079 63.937 C 117.018 63.921 116.936 64.006 116.865 64.005 C 115.904 63.981 114.944 63.951 113.983 63.92 C 113.666 63.91 113.349 63.893 113.032 63.874 C 112.454 63.839 111.874 63.756 111.297 63.774 C 110.551 63.797 109.806 63.894 109.061 63.971 C 108.415 64.037 107.768 64.104 107.125 64.2 C 106.809 64.248 106.5 64.35 106.195 64.452 C 106.098 64.484 105.955 64.601 105.961 64.667 C 105.97 64.761 106.083 64.898 106.176 64.922 C 106.345 64.966 106.531 64.946 106.71 64.943 C 107.788 64.919 108.867 64.878 109.946 64.871 C 110.641 64.867 111.336 64.93 112.031 64.926 C 113.039 64.92 114.047 64.881 115.055 64.855 C 116.463 64.819 117.87 64.781 119.278 64.744 Z  M 133.865 137.431 C 133.862 137.467 133.859 137.504 133.856 137.541 C 134.43 137.651 135 137.824 135.578 137.859 C 138.396 138.031 141.204 137.793 144.013 137.603 C 145.083 137.531 146.162 137.626 147.235 137.593 C 147.885 137.572 148.703 137.662 149.128 137.314 C 149.519 136.994 149.855 136.944 150.243 136.919 C 150.608 136.895 150.99 137.066 151.347 137.02 C 151.773 136.965 152.18 136.771 152.595 136.635 C 152.701 136.601 152.806 136.56 152.911 136.521 C 152.809 136.424 152.708 136.244 152.603 136.243 C 152.173 136.235 151.741 136.274 151.311 136.31 C 148.434 136.551 145.56 136.842 142.679 137.027 C 139.744 137.215 136.803 137.301 133.865 137.431 M 134.607 123.29 C 137.698 124.112 152.73 123.333 156.473 121.379 C 156.201 121.409 156.027 121.426 155.854 121.448 C 152.406 121.887 148.967 122.424 145.508 122.738 C 142.306 123.029 139.089 123.335 135.861 122.993 C 135.518 122.957 135.152 123.154 134.607 123.29 Z  M 122.49 131.883 C 130.725 132.611 140.042 132.499 148.867 131.297 C 140.02 131.494 130.705 131.7 122.49 131.883 Z  M 151.211 134.77 C 147.061 135.019 142.976 135.361 138.884 135.482 C 134.76 135.605 130.63 135.509 126.503 135.509 C 126.503 135.584 126.504 135.658 126.504 135.732 C 128.691 136.784 148.205 136.036 151.211 134.77 Z  M 138.044 74.237 C 138.371 74.497 138.699 74.758 139.15 75.116 C 138.941 74.539 138.802 74.156 138.68 73.821 C 138.465 73.963 138.245 74.109 138.024 74.254 C 138.3 73.517 138.16 73.113 137.18 72.896 C 137.482 73.372 137.758 73.808 138.044 74.237 M 64.046 135.596 C 63.838 135.574 63.631 135.553 63.423 135.531 C 63.225 135.509 63.027 135.47 62.828 135.47 C 62.668 135.47 62.378 135.495 62.369 135.547 C 62.286 136.044 62.2 136.348 61.547 136.079 C 61.261 135.961 60.806 136.177 60.456 136.314 C 59.985 136.496 59.948 136.302 59.981 135.91 C 59.991 135.788 59.844 135.652 59.768 135.523 C 59.709 135.608 59.669 135.731 59.587 135.772 C 59.231 135.949 58.861 136.243 58.499 136.239 C 57.134 136.221 55.769 136.016 54.407 136.045 C 52.364 136.089 50.325 136.354 48.282 136.378 C 44.195 136.426 40.123 137.318 36.026 136.645 C 34.364 136.371 32.661 136.168 31.08 135.628 C 29.554 135.106 28.14 134.231 26.718 133.438 C 24.426 132.159 22.201 130.77 20.365 128.855 C 17.923 126.307 15.697 123.611 14.478 120.223 C 13.985 118.855 13.359 117.532 12.933 116.146 C 12.637 115.183 12.37 114.128 12.462 113.149 C 12.618 111.476 12.264 109.893 12.008 108.288 C 11.169 103.022 11.892 97.953 13.806 93.013 C 14.952 90.051 16.326 87.205 17.972 84.488 C 20.177 80.85 22.896 77.65 26.207 74.977 C 27.942 73.576 29.715 72.232 31.826 71.382 C 34.109 70.462 36.293 69.287 38.601 68.443 C 42.394 67.054 46.272 65.875 50.363 65.852 C 53.332 65.836 56.301 66.024 59.271 66.083 C 60.981 66.117 62.693 66.059 64.404 66.071 C 68.007 66.095 71.435 65.062 74.868 64.209 C 82.182 62.391 89.557 60.993 97.063 60.301 C 101.6 59.882 106.127 59.292 110.672 59.062 C 116.806 58.752 122.802 59.561 128.348 62.429 C 131.28 63.945 133.789 66.049 136.118 68.381 C 138.225 70.489 140.48 72.456 142.499 74.642 C 144.022 76.291 145.84 77.519 147.602 78.834 C 148.837 79.756 150.174 80.545 151.494 81.348 C 154.866 83.403 158.673 84.364 162.352 85.655 C 165.141 86.634 167.876 87.766 170.627 88.85 C 170.787 88.913 170.872 89.164 170.998 89.322 C 171.031 89.363 171.089 89.411 171.136 89.41 C 171.845 89.407 172.347 89.747 172.84 90.246 C 173.167 90.577 173.756 90.634 174.128 90.936 C 175.827 92.318 177.611 93.626 179.132 95.188 C 180.453 96.544 181.572 98.137 182.578 99.752 C 183.601 101.393 184.484 103.144 185.233 104.929 C 185.993 106.739 186.576 108.63 187.128 110.518 C 188.222 114.262 188.565 118.112 188.193 121.977 C 187.812 125.92 186.687 129.704 185.027 133.307 C 184.371 134.731 183.617 136.115 182.833 137.474 C 182.419 138.191 181.828 138.804 181.351 139.487 C 181.021 139.958 180.776 140.489 180.444 140.958 C 178.553 143.631 176.136 145.766 173.522 147.7 C 173.054 148.046 172.62 148.437 172.164 148.8 C 172.025 148.911 171.871 149.01 171.71 149.087 C 170.283 149.778 168.848 150.454 167.428 151.16 C 167.213 151.266 167.092 151.59 166.876 151.663 C 166.184 151.896 165.448 152.019 164.955 152.639 C 164.588 152.183 164.379 152.794 164.36 152.788 C 163.432 152.51 163.121 153.51 162.434 153.692 C 162.163 153.764 161.897 153.953 161.637 153.939 C 161.351 153.923 160.969 154.587 160.764 153.854 C 160.523 154.002 160.283 154.154 160.039 154.298 C 159.751 154.468 159.458 154.631 159.09 154.661 C 159.216 154.568 159.343 154.475 159.47 154.382 C 154.335 155.63 149.198 156.76 143.854 156.24 C 143.859 156.34 143.865 156.439 143.871 156.539 C 146.707 156.458 149.544 156.377 152.381 156.297 C 152.386 156.306 152.39 156.315 152.395 156.324 C 151.239 156.446 150.087 156.611 148.928 156.68 C 143.767 156.987 138.77 156.079 133.929 154.38 C 130.481 153.171 127.113 151.73 123.704 150.407 C 121.949 149.726 120.172 149.099 118.424 148.402 C 117.656 148.095 116.955 147.619 116.186 147.314 C 115.147 146.902 114.068 146.591 113.012 146.217 C 112.128 145.904 111.167 145.69 110.415 145.176 C 110.092 144.955 109.869 144.978 109.582 144.903 C 109.411 144.858 109.302 144.602 109.146 144.46 C 109.071 144.393 108.886 144.314 108.865 144.339 C 108.498 144.769 108.165 144.462 107.789 144.344 C 106.112 143.819 104.431 143.305 102.739 142.834 C 100.626 142.245 98.515 141.637 96.377 141.156 C 93.974 140.616 91.549 140.166 89.121 139.754 C 86.749 139.352 84.363 139.031 81.979 138.704 C 80.025 138.437 78.063 138.234 76.11 137.962 C 75.321 137.852 74.551 137.605 73.764 137.476 C 73.437 137.422 73.048 137.619 72.753 137.516 C 71.995 137.25 71.146 137.494 70.414 136.989 C 70.157 136.812 69.625 137.09 69.237 137.034 C 68.828 136.975 68.442 136.764 68.045 136.623 C 67.985 136.602 67.901 136.573 67.857 136.598 C 67.225 136.956 66.774 136.768 66.643 136.271 C 66.236 136.298 65.889 136.338 65.542 136.339 C 65.221 136.341 64.89 136.241 64.581 136.293 C 63.897 136.409 63.97 136.021 64.057 135.592 C 64.182 135.755 64.319 136.07 64.419 136.058 C 64.777 136.016 65.123 135.869 65.469 135.746 C 65.51 135.732 65.558 135.592 65.536 135.565 C 65.478 135.496 65.378 135.406 65.305 135.414 C 64.884 135.46 64.465 135.532 64.046 135.596" fill="rgb(0,0,0)"/></g></g></svg>