<?xml version="1.0" encoding="UTF-8" standalone="no"?><!-- Generator: Gravit.io --><svg xmlns="http://www.w3.org/2000/svg" xmlns:xlink="http://www.w3.org/1999/xlink" style="isolation:isolate" viewBox="0 0 200 200" width="200pt" height="200pt"><defs><clipPath id="_clipPath_8Y9kGC9UlQYNUi9LgNfHIxcWlUXe5vZO"><rect width="200" height="200"/></clipPath></defs><g clip-path="url(#_clipPath_8Y9kGC9UlQYNUi9LgNfHIxcWlUXe5vZO)"><path d=" M 45.365 145.111 C 45.372 145.073 45.379 145.035 45.386 144.997 L 41.769 144.997 C 41.769 145.035 41.769 145.073 41.769 145.111 L 45.365 145.111 Z  M 48.431 144.277 C 50.051 144.567 50.823 144.418 51.099 143.658 C 50.361 144.849 49.365 143.734 48.431 144.277 Z  M 91.988 68.495 C 93.593 67.955 95.011 67.114 96.353 66.137 C 94.898 66.923 93.443 67.709 91.988 68.495 Z  M 139.316 30.03 C 139.508 30.266 139.551 30.355 139.584 30.352 C 140.979 30.194 142.375 30.076 143.781 30.215 C 143.908 30.227 144.034 30.18 144.056 30.037 C 144.088 29.828 143.923 29.771 143.773 29.78 C 142.338 29.854 140.903 29.939 139.316 30.03 M 121.49 167.178 C 117.412 167.291 113.468 166.389 109.509 165.599 C 113.392 166.957 117.381 167.529 121.49 167.178 Z  M 31.873 78.651 C 28.456 80.484 25.259 82.598 22.924 85.786 C 25.639 83.072 28.61 80.681 31.873 78.651 M 79.477 68.917 C 83.719 67.903 87.754 66.361 91.523 64.148 C 87.596 65.961 83.559 67.497 79.477 68.917 M 144.697 30.065 C 148.467 30.415 152.096 31.36 155.622 32.734 C 152.208 30.932 148.57 30.03 144.697 30.065 Z  M 65.795 143.191 C 62.52 142.285 59.181 141.851 55.799 141.746 C 51.748 141.62 47.697 141.694 43.646 141.813 C 41.458 141.878 39.268 141.853 37.081 141.923 C 36.548 141.939 35.993 141.53 35.411 141.978 C 36.981 142.231 38.506 142.258 40.015 142.238 C 44.825 142.174 49.634 141.952 54.445 142.055 C 58.254 142.136 62.051 142.434 65.795 143.191 Z  M 147.084 33.202 C 147.072 33.159 147.061 33.117 147.049 33.074 C 146.168 33.031 145.285 32.93 144.405 32.956 C 141.541 33.039 138.677 33.022 135.938 34.188 C 135.221 34.494 134.297 34.419 133.531 34.825 C 132.482 35.38 131.279 35.439 130.19 36.013 C 128.51 36.9 126.788 37.744 125.037 38.494 C 123.876 38.992 122.906 39.768 121.845 40.403 C 121.02 40.898 120.282 41.583 119.51 42.173 C 118.06 43.28 116.691 44.471 115.462 45.791 C 114.214 47.131 113.016 48.529 111.839 49.939 C 110.678 51.331 109.574 52.775 108.383 54.14 C 106.981 55.747 105.65 57.412 104.474 59.175 C 103.887 60.056 103.021 60.619 102.406 61.473 C 101.898 62.179 101.359 62.969 100.654 63.572 C 99.398 64.646 98.092 65.65 96.692 66.524 C 92.015 69.446 86.94 71.461 81.667 72.997 C 80.043 73.47 78.432 74.064 76.688 74.017 C 76.151 74.003 75.564 74.013 75.081 74.212 C 74.112 74.61 73.105 74.813 72.089 74.894 C 69.931 75.067 67.816 75.523 65.663 75.749 C 62.174 76.115 58.685 76.45 55.183 76.609 C 53.053 76.705 50.957 77.1 48.817 77.143 C 47.447 77.171 46.085 77.67 44.724 77.979 C 38.291 79.44 32.432 82.048 27.7 86.771 C 27.1 87.369 26.249 87.329 25.742 88.018 C 23.462 91.117 21.139 94.185 18.688 97.154 C 16.112 100.275 14.724 104.094 12.709 107.545 C 12.299 108.247 12.329 108.26 11.488 108.632 C 11.403 108.669 11.37 108.833 11.32 108.941 C 10.324 111.104 9.142 113.183 8.342 115.434 C 7.842 116.842 7.222 118.23 7.199 119.756 C 7.118 125.074 9.317 129.334 13.348 132.686 C 15.62 134.575 18.24 135.91 20.919 137.122 C 26.477 139.637 32.305 140.928 38.407 140.973 C 44.48 141.018 50.547 140.634 56.628 140.891 C 62.638 141.143 68.344 142.444 73.788 144.984 C 80.317 148.029 86.373 151.883 92.399 155.791 C 96.531 158.471 100.752 160.998 105.31 162.899 C 111.721 165.573 118.4 166.467 125.312 165.923 C 129.493 165.595 133.635 165.003 137.72 164.107 C 148.925 161.652 159.553 157.667 169.464 151.841 C 173.985 149.183 178.162 146.11 181.578 142.084 C 183.882 139.37 185.976 136.523 187.341 133.202 C 188.142 131.253 188.652 129.252 188.341 127.124 C 187.957 124.499 187.125 122.013 185.847 119.689 C 183.261 114.988 179.663 111.056 176.188 107.029 C 172.778 103.08 169.447 99.098 167.517 94.117 C 166.401 91.237 165.66 88.307 165.4 85.264 C 164.735 77.474 165.252 69.692 165.722 61.914 C 165.939 58.32 166.471 54.741 166.201 51.125 C 166.02 48.701 165.591 46.339 164.485 44.143 C 162.81 40.818 159.488 37.327 155.194 35.586 C 155.082 35.541 154.955 35.5 154.873 35.418 C 153.886 34.44 152.591 34.338 151.323 34.148 C 150.994 34.099 150.56 34.116 150.365 33.916 C 149.667 33.2 148.7 33.788 147.898 33.319 C 147.546 33.113 146.725 33.372 146.11 33.27 C 146.435 33.248 146.759 33.225 147.084 33.202 M 124.601 170.725 C 124.773 170.765 124.947 170.805 125.12 170.845 C 121.946 171.111 118.785 171.046 115.648 170.562 C 111.186 169.874 106.931 168.492 102.859 166.548 C 98.882 164.649 95.111 162.396 91.442 159.961 C 86.092 156.411 80.7 152.93 74.991 149.966 C 70.244 147.5 65.237 145.961 59.903 145.482 C 57.807 145.294 55.71 145.141 53.552 145.11 C 53.793 144.716 54.133 145.031 54.517 144.809 C 53.885 144.809 53.262 144.622 52.942 144.854 C 52.501 145.175 52.009 145.242 51.7 145.078 C 50.378 144.375 49.021 144.9 47.692 144.866 C 46.639 144.838 45.62 145.338 44.53 145.28 C 43.145 145.206 41.766 145.454 40.369 145.03 C 39.745 144.841 38.95 145.039 38.223 145.235 C 37.552 145.416 36.679 145.476 36.088 145.19 C 35.094 144.709 34.086 145.024 33.095 144.845 C 30.661 144.406 28.257 143.9 25.896 143.175 C 22.527 142.141 19.349 140.677 16.271 138.967 C 11.172 136.135 7.879 131.77 5.674 126.501 C 3.464 121.223 3.373 115.944 5.814 110.685 C 7.098 107.916 8.379 105.145 9.905 102.5 C 10.882 100.805 12.035 99.223 13.419 97.835 C 14.651 96.599 15.402 95.067 16.19 93.56 C 18.268 89.584 20.722 85.88 23.964 82.748 C 27.239 79.586 31.086 77.302 35.272 75.582 C 40.838 73.295 46.697 72.341 52.653 71.762 C 61.222 70.93 69.803 70.12 78.125 67.718 C 83.989 66.026 89.654 63.862 94.801 60.501 C 97.078 59.015 98.929 57.085 100.703 55.047 C 103.828 51.452 106.735 47.668 110.031 44.224 C 112.399 41.749 114.841 39.347 117.694 37.421 C 122.694 34.047 128.03 31.353 133.952 30.061 C 140.299 28.677 146.659 28.43 152.915 30.642 C 158.869 32.748 163.711 36.212 166.48 42.072 C 167.995 45.278 168.475 48.737 168.493 52.248 C 168.526 58.694 167.91 65.125 167.966 71.574 C 168.004 75.944 167.87 80.32 168.559 84.658 C 169.4 89.959 171.762 94.546 175.117 98.681 C 177.371 101.459 179.752 104.13 182.058 106.864 C 184.823 110.144 187.378 113.569 189.217 117.477 C 192.449 124.346 191.902 131.058 188.373 137.635 C 186.308 141.485 183.645 144.876 180.531 147.948 C 179.212 149.248 177.802 150.439 176.413 151.644 C 175.155 152.735 173.776 153.716 172.299 154.553 C 171.129 155.216 170.105 156.124 168.931 156.817 C 164.669 159.33 160.289 161.591 155.729 163.517 C 152.999 164.671 150.199 165.622 147.396 166.55 C 145.153 167.292 142.865 167.903 140.544 168.424 C 138.63 168.854 136.713 169.337 134.781 169.697 C 133.745 169.889 132.655 169.703 131.585 169.867 C 129.457 170.192 127.318 170.465 125.157 170.475 C 124.941 170.476 124.723 170.494 124.611 170.729 C 123.241 170.471 121.878 170.68 120.513 170.717 C 121.876 170.841 123.24 170.897 124.601 170.725" fill="rgb(141,106,255)" fill-opacity="0.71"/></g></svg>