<?xml version="1.0" encoding="UTF-8" standalone="no"?><!-- Generator: Gravit.io --><svg xmlns="http://www.w3.org/2000/svg" xmlns:xlink="http://www.w3.org/1999/xlink" style="isolation:isolate" viewBox="0 0 200 200" width="200pt" height="200pt"><defs><clipPath id="_clipPath_ClZ4oAQCHfHSeLVsNfKJXORkrMPK6XDG"><rect width="200" height="200"/></clipPath></defs><g clip-path="url(#_clipPath_ClZ4oAQCHfHSeLVsNfKJXORkrMPK6XDG)"><g><path d=" M 52.79 123.993 C 55.346 124.593 57.766 124.218 60.058 122.898 C 57.543 122.594 55.192 123.483 52.79 123.993 Z  M 73.106 99.197 C 73.28 107.537 70.77 113.676 67.37 119.44 C 64.988 123.48 61.096 125.502 56.403 125.741 C 52.406 125.945 48.47 125.634 44.658 124.184 C 41.784 123.093 39.879 120.983 38.289 118.548 C 35.333 114.019 31.862 109.658 31.743 103.9 C 31.593 96.711 33.074 89.948 37.823 84.271 C 39.833 81.868 42.22 80.255 45.686 80.796 C 49.127 81.332 50.515 85.521 50.489 88.032 C 50.478 89.194 49.508 89.779 48.936 90.461 C 46.331 93.567 45.8 97.452 44.572 101.077 C 44.319 101.823 44.833 102.029 45.404 102.153 C 49.115 102.959 52.484 102.721 55.008 99.338 C 56.346 97.545 57.793 95.845 58.677 93.756 C 59.098 92.762 59.118 91.851 58.748 90.793 C 58.311 89.539 57.427 87.996 59.631 87.31 C 60.082 87.17 59.99 86.786 59.779 86.42 C 58.854 84.814 59.388 83.251 61.13 82.404 C 64.659 80.689 70.142 83.822 70.482 87.738 C 70.518 88.15 70.544 88.629 70.763 88.947 C 73.212 92.514 72.732 96.674 73.106 99.197 Z " fill="rgb(111,102,97)"/></g><g><path d=" M 121.587 100.107 C 119.572 99.793 117.61 99.936 115.757 100.803 C 117.759 101.055 119.754 101.278 121.587 100.107 Z  M 110.475 60.021 C 109.632 60.751 108.46 60.389 107.962 61.434 C 108.62 61.936 109.224 61.237 109.798 61.362 C 110.597 61.536 112.237 61.254 110.94 62.967 C 110.844 63.094 110.621 63.221 110.892 63.355 C 113.138 64.464 111.457 65.889 111.104 67.097 C 110.737 68.358 110.172 69.566 110.142 70.904 C 110.101 72.774 110.082 74.645 110.107 76.515 C 110.138 78.809 110.494 79.104 112.769 78.888 C 116.693 78.514 119.447 75.687 119.352 71.754 C 119.273 68.531 119.914 65.446 120.64 62.37 C 121.014 60.785 122.009 59.514 123.77 59.211 C 125.844 58.854 128.853 60.13 129.626 61.971 C 130.927 65.07 132.098 68.273 132.559 71.601 C 133.468 78.173 133.281 84.729 131.44 91.17 C 130.72 93.686 129.739 96.138 128.219 98.214 C 126.221 100.943 123.22 102.172 119.872 102.522 C 115.643 102.963 111.568 102.825 108.033 99.94 C 107.258 99.308 106.769 98.482 106.242 97.752 C 102.77 92.947 98.61 88.432 97.786 82.238 C 96.838 75.107 97.937 68.265 101.611 61.981 C 102.886 59.801 104.63 58.164 107.453 58.482 C 108.605 58.613 109.679 58.955 110.475 60.021 Z " fill="rgb(189,141,98)" fill-opacity="0.98"/></g><g><path d=" M 95.702 157.314 C 97.6 158.278 100.829 158.174 102.365 157.17 C 100.151 157.046 98.038 156.886 95.702 157.314 Z  M 116.413 137.158 C 116.596 143.284 114.836 149.431 110.72 154.835 C 109.009 157.08 106.68 158.487 103.956 159.095 C 99.276 160.14 94.722 159.702 90.365 157.595 C 87.83 156.37 86.211 154.284 84.556 152.079 C 81.481 147.982 79.962 143.248 78.685 138.462 C 77.223 132.987 78.256 127.71 80.779 122.618 C 81.646 120.868 82.24 119.106 84.04 118.058 C 85.41 117.26 86.716 117.606 88.031 118.086 C 88.347 118.201 88.837 118.576 88.811 118.774 C 88.444 121.58 90.836 123.924 90.109 126.786 C 89.828 127.894 89.674 129.038 89.497 130.17 C 89.006 133.316 90.718 135.637 93.949 135.988 C 97.096 136.33 99.857 135.37 101.797 132.795 C 103.396 130.673 104.543 128.278 105.156 125.662 C 105.665 123.492 107.377 122.324 109.59 122.655 C 113.267 123.205 114.181 124.191 114.575 128.022 C 114.599 128.26 114.587 128.557 114.723 128.718 C 116.66 131.037 116.067 133.874 116.413 137.158" fill="rgb(81,81,81)"/></g><g><path d=" M 167.041 72.026 C 168.303 72.336 169.563 72.843 170.726 71.904 C 169.482 71.778 168.24 71.46 167.041 72.026 Z  M 164.5 44.691 C 167.21 45.535 165.062 47.126 165.072 48.337 C 165.076 48.932 164.389 49.604 165.038 50.233 C 165.671 50.846 166.472 50.8 167.246 50.49 C 170.701 49.105 172.57 46.315 173.299 42.889 C 173.835 40.37 174.716 37.965 175.252 35.456 C 175.733 33.204 178.03 32.011 180.295 32.524 C 183.002 33.137 184.694 34.614 185.069 37.465 C 185.515 40.853 186.472 44.126 186.37 47.644 C 186.134 55.828 183.818 63.178 178.737 69.623 C 173.998 75.635 164.914 75.897 160.036 69.954 C 158.454 68.027 156.988 65.815 156.701 63.13 C 156.654 62.686 156.357 62.248 156.107 61.851 C 151.939 55.238 152.37 48.417 155.458 41.637 C 157.573 36.996 161.208 37.221 164.164 39.432 C 164.534 39.708 165.044 40.038 164.959 40.567 C 164.85 41.246 164.171 40.908 163.756 41.049 C 163.362 41.184 162.816 41.2 162.884 41.76 C 162.954 42.346 163.509 42.172 163.908 42.214 C 164.633 42.289 165.395 42.337 165.675 43.192 C 165.975 44.114 164.929 44.117 164.5 44.691 Z " fill="rgb(238,167,87)"/></g><g><path d=" M 38.118 167.002 C 37.721 167.588 37.971 168.108 38.562 168.166 C 39.489 168.257 38.914 167.568 38.945 167.175 C 38.99 166.614 39.252 166.97 39.531 167.022 C 40.143 167.136 40.093 166.566 39.842 166.402 C 39.426 166.128 38.85 165.903 38.376 165.959 C 37.818 166.022 37.969 166.572 38.118 167.002 Z  M 35.791 174.339 C 34.374 173.901 32.759 175.604 31.893 173.389 C 31.89 174.346 31.328 175.764 32.441 175.708 C 33.457 175.656 34.987 175.744 35.791 174.339 Z  M 44.325 169.18 C 45.375 169.805 45.584 168.511 46.693 168.566 C 45.191 169.737 44.33 171.014 43.745 172.62 C 43.359 173.68 41.749 174.327 40.722 174.829 C 37.084 176.611 33.164 177.797 29.058 177.913 C 27.815 177.948 26.616 177.169 25.31 177.079 C 24.906 177.052 24.526 176.722 24.554 176.214 C 24.561 176.087 24.785 175.855 24.877 175.87 C 25.628 175.99 26.155 175.928 25.784 174.96 C 25.619 174.528 25.679 173.93 25.104 173.768 C 24.092 173.484 24.886 174.92 24.107 174.853 C 23.364 175.484 24.335 172.384 22.987 174.367 C 22.902 174.3 22.775 174.249 22.738 174.161 C 21.938 172.231 20.06 171.156 19.016 169.348 C 18.021 167.626 16.744 166.068 15.993 164.175 C 13.735 158.492 13.02 152.641 14.152 146.627 C 14.739 143.499 16.725 142.225 19.59 142.782 C 20.57 142.972 21.329 143.463 21.72 144.299 C 23.195 147.463 25.421 150.409 24.265 154.315 C 23.907 155.523 24.594 156.815 25.453 157.802 C 25.985 158.412 26.634 158.775 27.531 158.317 C 29.248 157.44 30.955 156.601 32.169 154.999 C 33.036 153.854 34.069 152.836 34.993 151.732 C 36.268 150.207 36.617 148.271 36.759 146.439 C 36.976 143.644 38.776 142.334 41.385 143.512 C 42.445 143.991 43.478 144.706 43.925 145.752 C 45.108 148.517 46.452 151.174 47.091 154.221 C 47.714 157.196 47.892 160.086 47.74 163.06 C 47.674 164.354 46.844 165.481 46.959 166.835 C 46.98 167.086 46.4 167.604 46.07 167.628 C 45.002 167.708 44.936 168.658 44.325 169.18" fill="rgb(55,55,55)"/></g><g><path d=" M 150.632 114.597 C 149.534 115.73 149.209 115.839 148.839 115.118 C 148.339 114.142 146.909 113.809 146.171 114.517 C 145.718 114.95 145.726 115.515 146.118 115.92 C 146.728 116.549 150.297 115.531 150.632 114.597 Z  M 153.484 128.156 C 152.794 127.505 151.657 127.962 151.302 127.516 C 150.068 125.961 149.238 127.875 148.196 127.755 C 148.014 127.733 147.314 128.41 147.515 128.879 C 147.72 129.357 148.609 129.728 148.868 129.506 C 150.197 128.366 152.003 129.041 153.484 128.156 Z  M 149.625 120.812 C 148.891 120.802 148.036 120.825 147.918 121.828 C 147.778 123.008 148.865 122.476 149.403 122.732 C 150.071 123.052 150.664 122.421 151.217 122.613 C 151.821 122.822 152.188 122.646 152.406 122.201 C 152.724 121.555 152.129 121.088 151.863 120.604 C 151.581 120.092 151.112 120.475 150.772 120.655 C 150.423 120.84 150.165 121.293 149.625 120.812 Z  M 164.296 102.086 C 165.239 102.487 166.035 102.979 166.18 103.934 C 166.293 104.678 165.427 104.296 165.009 104.782 C 167.008 104.827 166.611 106.586 166.4 107.314 C 165.841 109.236 166.549 111.073 166.325 112.951 C 166.176 114.185 165.892 115.435 165.79 116.683 C 165.684 117.978 164.817 116.194 164.144 116.287 C 163.791 116.672 163.817 117.077 164.269 117.306 C 164.733 117.542 165.557 117.494 165.492 118.149 C 165.413 118.943 165.183 120.162 164.665 120.388 C 163.269 120.997 163.592 122.382 163.678 123.023 C 163.863 124.406 163.232 124.236 162.497 124.029 C 161.434 123.728 160.797 124.067 160.583 125.098 C 160.311 126.413 158.833 126.196 158.173 127.122 C 157.525 128.03 156.511 128.672 156.6 130.03 C 154.774 129.811 155.618 128.203 154.894 127.227 C 154.636 130.415 152.28 130.36 150.146 130.598 C 149.437 130.677 148.634 130.405 148.012 130.647 C 146.706 131.153 146.801 130.522 147.131 129.331 C 146.403 130.75 145.731 131.233 144.706 130.053 C 144.334 129.626 143.719 129.691 143.193 129.573 C 142.223 129.356 142.105 129.13 142.131 127.882 C 142.138 127.53 141.915 127.566 141.699 127.467 C 139.475 126.448 138.509 124.585 138.492 122.146 C 138.484 120.984 138.959 119.132 136.666 119.253 C 136.35 119.269 136.287 119.029 136.185 118.813 C 134.08 114.333 134.765 110.025 137.133 105.904 C 138.227 104.002 141.024 103.056 143.151 103.803 C 143.846 104.048 144.593 104.71 144.888 105.373 C 145.182 106.03 144.443 106.293 143.768 106.379 C 143.244 106.447 143.406 106.897 143.518 107.243 C 143.705 107.82 144.096 107.969 144.647 107.765 C 145.991 107.267 146.293 107.49 146.136 109.082 C 146.021 110.248 147.682 110.712 148.613 111.344 C 149.243 111.772 149.579 110.855 149.764 110.327 C 149.899 109.947 150.107 109.663 150.412 109.507 C 153.355 108 153.678 105.115 154.135 102.345 C 154.349 101.046 154.381 99.646 154.633 98.419 C 154.887 97.172 155.282 95.868 155.607 94.584 C 156.129 92.526 157.824 92.46 159.448 92.552 C 160.498 92.611 161.538 92.973 162.563 93.266 C 162.811 93.338 163.183 93.697 163.16 93.883 C 162.963 95.503 164.86 96.659 164.082 98.476 C 163.886 98.935 164.515 99.85 164.924 100.445 C 165.704 101.574 165.733 101.61 164.296 102.086 Z " fill="rgb(208,143,99)"/></g><g><path d=" M 85.46 68.402 C 83.988 69.067 82.952 69.821 82.335 71.055 C 83.344 70.271 85.033 70.271 85.46 68.402 Z  M 79.719 46.529 C 81.087 46.274 81.755 45.46 82.523 44.835 C 84.012 43.622 85.229 44.009 85.67 45.961 C 85.861 46.808 85.909 47.279 87.06 47.514 C 88.196 47.746 88.45 49.368 88.965 50.424 C 90.553 53.679 91.164 57.178 90.958 60.774 C 90.683 65.571 88.297 69.17 84.372 71.843 C 82.573 73.07 80.724 73.793 78.456 73.526 C 77.377 73.398 76.755 72.71 75.924 72.296 C 73.063 70.875 70.108 69.646 67.438 67.838 C 64.565 65.893 61.221 58.611 62.622 54.751 C 63.519 52.276 65.033 50.785 67.548 50.261 C 68.995 49.96 69.656 50.561 69.762 52.33 C 70.54 51.783 70.916 51.148 71.131 50.298 C 71.635 48.306 72.376 46.401 73.312 44.559 C 74.423 42.372 76.267 41.304 78.538 40.769 C 79.43 40.559 80.319 40.67 80.861 41.382 C 81.388 42.074 81.342 42.91 80.864 43.746 C 80.423 44.518 80.172 45.399 79.719 46.529 Z " fill="rgb(70,46,32)"/></g><g><path d=" M 121.3 30.661 C 122.424 28.112 122.933 25.482 124.917 23.624 C 125.221 23.339 125.486 22.968 125.845 22.795 C 126.699 22.382 127.784 21.712 128.524 22.349 C 129.165 22.902 129.059 24.072 128.733 25.022 C 128.576 25.479 127.992 26.106 128.661 26.443 C 129.228 26.727 129.552 25.994 129.914 25.617 C 130.122 25.399 130.278 25.128 130.497 24.924 C 130.905 24.543 131.103 23.718 131.871 24.022 C 132.485 24.264 133.026 24.707 133.117 25.46 C 133.201 26.159 133.195 26.809 134.282 26.336 C 134.835 26.095 135.223 26.813 135.523 27.219 C 138.836 31.699 139.522 36.335 135.215 40.901 C 133.898 42.297 132.545 43.658 131.21 45.037 C 130.477 45.795 129.586 45.785 128.696 45.469 C 127.692 45.113 128.775 44.298 128.326 43.646 C 127.305 45.288 126.322 45.07 125.015 43.885 C 124.206 43.152 123.235 42.235 121.711 42.849 C 121.149 43.075 120.081 42.451 119.426 41.969 C 116.144 39.553 114.167 36.355 114.089 32.194 C 114.058 30.544 114.6 29.08 116.269 28.337 C 116.589 28.194 117.235 28.031 117.259 28.086 C 118.025 29.807 120.256 29.12 121.3 30.661 Z " fill="rgb(232,170,55)"/></g></g></svg>