<?xml version="1.0" encoding="UTF-8" standalone="no"?><!-- Generator: Gravit.io --><svg xmlns="http://www.w3.org/2000/svg" xmlns:xlink="http://www.w3.org/1999/xlink" style="isolation:isolate" viewBox="0 0 200 200" width="200pt" height="200pt"><defs><clipPath id="_clipPath_8NweSjLbBsgGbZfIOZJPGZXWsXhczfXA"><rect width="200" height="200"/></clipPath></defs><g clip-path="url(#_clipPath_8NweSjLbBsgGbZfIOZJPGZXWsXhczfXA)"><path d=" M 20.799 93.726 C 20.835 93.787 20.87 93.849 20.905 93.91 C 21.25 93.798 21.595 93.685 21.94 93.573 C 21.898 93.5 21.856 93.427 21.815 93.354 C 21.476 93.478 21.138 93.602 20.799 93.726 Z  M 103.537 80.53 C 103.53 80.458 103.524 80.385 103.518 80.313 C 103.091 80.313 102.663 80.309 102.236 80.319 C 102.2 80.32 102.136 80.415 102.143 80.462 C 102.151 80.521 102.222 80.624 102.259 80.622 C 102.685 80.601 103.111 80.563 103.537 80.53 M 98.526 71.961 C 98.531 72.015 98.537 72.069 98.542 72.123 C 99.137 72.087 99.731 72.05 100.326 72.014 C 100.319 71.947 100.312 71.881 100.305 71.814 L 98.526 71.961 Z  M 149.197 120.122 L 149.187 120.079 C 148.59 120.033 147.993 119.987 147.396 119.943 C 147.301 119.936 147.201 119.933 147.11 119.949 C 147.08 119.954 147.068 120.023 147.048 120.063 C 147.146 120.083 147.244 120.118 147.343 120.119 C 147.961 120.124 148.579 120.122 149.197 120.122 M 83.48 89.753 C 83.487 89.801 83.494 89.848 83.501 89.896 C 84.217 89.837 84.932 89.777 85.648 89.718 C 85.641 89.669 85.634 89.619 85.627 89.569 C 84.912 89.63 84.196 89.692 83.48 89.753 Z  M 28.629 74.329 C 28.59 74.262 28.552 74.195 28.513 74.127 C 27.963 74.36 27.412 74.591 26.861 74.823 C 26.912 74.897 26.962 74.97 27.013 75.043 C 27.552 74.805 28.091 74.567 28.629 74.329 Z  M 92.3 55.583 C 92.34 55.657 92.38 55.731 92.42 55.805 C 92.845 55.735 93.275 55.676 93.693 55.585 C 93.779 55.567 93.849 55.432 93.873 55.342 C 93.88 55.313 93.696 55.205 93.634 55.22 C 93.184 55.328 92.743 55.459 92.3 55.583 M 120.795 110.113 C 120.784 110.046 120.773 109.98 120.762 109.914 C 119.724 109.999 118.686 110.084 117.649 110.169 C 117.655 110.226 117.662 110.283 117.668 110.34 C 118.711 110.264 119.753 110.188 120.795 110.113 M 138.817 107.12 C 138.816 107.194 138.815 107.268 138.814 107.341 L 141.246 107.453 C 141.249 107.374 141.251 107.294 141.254 107.215 C 140.442 107.183 139.629 107.152 138.817 107.12 Z  M 125.301 91.383 C 125.285 91.319 125.269 91.255 125.253 91.19 C 124.385 91.258 123.517 91.324 122.649 91.392 C 122.664 91.475 122.679 91.558 122.693 91.641 C 123.563 91.555 124.432 91.469 125.301 91.383 Z  M 100.893 55.015 L 100.897 54.843 C 100.249 54.885 99.6 54.916 98.955 54.98 C 98.861 54.989 98.792 55.15 98.711 55.242 C 98.826 55.272 98.949 55.341 99.052 55.325 C 99.668 55.232 100.28 55.12 100.893 55.015 Z  M 91.06 69.662 C 91.047 69.62 91.035 69.577 91.023 69.536 C 89.95 69.707 88.877 69.879 87.804 70.051 C 87.825 70.123 87.845 70.195 87.866 70.267 C 88.93 70.065 89.995 69.864 91.06 69.662 Z  M 38.363 74.538 C 38.322 74.485 38.28 74.431 38.239 74.377 L 33.9 75.613 C 33.928 75.675 33.956 75.736 33.984 75.797 C 35.444 75.377 36.903 74.958 38.363 74.538 M 64.216 115.883 C 63.992 115.446 63.232 115.149 62.835 115.292 C 62.716 115.335 62.557 115.306 62.417 115.32 C 62.23 115.337 62.045 115.364 61.858 115.387 C 61.995 115.496 62.114 115.679 62.27 115.701 C 62.889 115.787 63.52 115.823 64.216 115.883 M 106.964 90.279 C 106.959 90.328 106.954 90.378 106.949 90.427 L 110.981 90.427 C 110.979 90.378 110.976 90.328 110.973 90.279 L 106.964 90.279 Z  M 125.703 113.492 C 125.703 113.516 125.702 113.54 125.702 113.563 L 133.509 113.563 C 133.509 113.54 133.509 113.516 133.509 113.492 L 125.703 113.492 Z  M 102.131 54.722 L 102.142 55.012 C 103.171 55.064 104.199 55.124 105.23 55.159 C 105.341 55.163 105.461 55.023 105.576 54.949 C 105.481 54.862 105.386 54.701 105.289 54.7 C 104.236 54.693 103.184 54.711 102.131 54.722 M 153.377 135.218 C 153.373 135.249 153.369 135.28 153.366 135.311 C 155.818 135.051 158.271 134.798 160.72 134.522 C 160.985 134.492 161.226 134.332 161.477 134.233 C 161.255 134.28 161.033 134.328 160.81 134.375 C 160.783 134.38 160.753 134.377 160.725 134.38 C 158.276 134.659 155.826 134.939 153.377 135.218 M 27.809 85.485 C 26.659 85.376 23.584 86.437 23.381 86.977 C 24.835 86.488 26.222 86.02 27.809 85.485 Z  M 25.148 83.587 C 24.534 83.695 24.655 84.683 23.681 84.212 C 23.637 84.292 23.594 84.371 23.546 84.449 C 23.522 84.488 23.497 84.533 23.456 84.556 C 23.371 84.601 23.193 84.65 23.198 84.667 C 23.23 84.765 23.287 84.92 23.37 84.935 C 23.662 84.988 23.996 85.065 24.263 85 C 25.195 84.776 25.309 84.554 25.148 83.587 Z  M 158.251 98.364 C 158.232 98.254 158.213 98.144 158.195 98.034 C 156.113 98.209 154.031 98.383 151.949 98.557 C 151.954 98.606 151.959 98.656 151.964 98.704 C 154.06 98.591 156.155 98.477 158.251 98.364 Z  M 109.347 87.888 C 109.35 87.807 109.354 87.726 109.358 87.644 C 106.216 87.563 103.074 87.483 99.932 87.402 C 103.072 87.545 106.198 87.973 109.347 87.888 Z  M 98.481 77.753 C 98.479 77.814 98.477 77.875 98.475 77.936 C 98.698 77.951 98.919 77.971 99.142 77.979 C 100.676 78.035 102.21 78.1 103.745 78.132 C 104.021 78.137 104.526 78.022 104.54 77.927 C 104.598 77.533 104.25 77.399 103.768 77.429 C 102.006 77.542 100.243 77.646 98.481 77.753 M 11.205 78.062 C 11.298 78.111 11.392 78.159 11.486 78.207 L 16.698 71.6 C 16.14 72.028 15.655 72.512 15.151 72.983 C 15.013 73.113 14.897 73.548 14.594 73.065 C 14.514 73.104 14.402 73.128 14.363 73.184 C 14.31 73.258 14.291 73.434 14.297 73.435 C 14.897 73.545 14.465 73.753 14.356 73.898 C 13.311 75.289 12.256 76.675 11.205 78.062 Z  M 149.37 109.488 C 149.37 109.437 149.369 109.386 149.368 109.335 L 135.975 109.636 C 135.981 109.744 135.986 109.853 135.992 109.961 C 140.451 109.803 144.911 109.646 149.37 109.488 M 149.637 69.219 C 149.649 69.169 149.661 69.12 149.673 69.071 C 149.054 68.643 148.276 68.295 147.853 67.77 C 147.162 66.911 146.207 66.312 145.248 65.693 C 145.179 65.649 145.043 65.668 144.939 65.658 C 144.944 65.755 144.9 65.88 144.961 65.943 C 146.119 67.16 147.069 68.548 149.057 69.095 C 149.245 69.147 149.443 69.178 149.637 69.219 Z  M 162.025 100.851 C 157.408 101.285 153.053 101.695 148.699 102.104 C 153.126 102.125 157.514 101.896 162.025 100.851 Z  M 132.064 99.453 C 132.25 99.425 132.392 99.419 132.522 99.382 C 132.724 99.324 132.918 99.247 133.116 99.178 C 132.914 99.084 132.72 98.919 132.51 98.906 C 129.932 98.745 127.352 98.603 124.772 98.47 C 124.638 98.464 124.41 98.562 124.379 98.646 C 124.347 98.735 124.48 98.951 124.573 98.963 C 125.186 99.045 125.807 99.111 126.429 99.136 C 127.118 99.163 127.814 99.105 128.5 99.149 C 129.708 99.226 130.91 99.352 132.064 99.453 M 150.138 99.22 C 149.865 99.181 149.592 99.108 149.319 99.109 C 146.059 99.125 142.799 99.148 139.539 99.187 C 139.316 99.19 139.096 99.338 138.875 99.419 C 139.089 99.493 139.297 99.622 139.516 99.634 C 143.062 99.818 146.59 99.642 150.138 99.22 M 86.535 80.542 C 86.55 80.661 86.565 80.781 86.58 80.9 C 87.886 80.82 89.192 80.734 90.499 80.662 C 91.093 80.629 91.69 80.601 92.284 80.614 C 93.082 80.631 93.881 80.746 94.674 80.72 C 96.066 80.676 97.452 80.525 98.843 80.482 C 99.513 80.462 100.189 80.604 100.865 80.634 C 101.027 80.642 101.199 80.499 101.367 80.426 C 101.291 80.35 101.227 80.222 101.136 80.209 C 100.597 80.131 100.054 80.037 99.51 80.028 C 98.63 80.013 97.749 80.071 96.868 80.079 C 95.801 80.088 94.734 80.057 93.668 80.08 C 92.529 80.105 91.39 80.15 90.255 80.225 C 89.012 80.308 87.775 80.434 86.535 80.542 Z  M 84.443 74.639 C 84.811 74.681 85.206 74.806 85.558 74.753 C 88.908 74.256 92.246 73.707 95.598 73.217 C 97.167 72.988 98.76 72.86 100.34 72.674 C 100.466 72.658 100.574 72.544 100.69 72.475 C 100.581 72.411 100.481 72.311 100.361 72.293 C 100.168 72.263 99.96 72.269 99.763 72.291 C 97.476 72.548 95.188 72.8 92.905 73.076 C 91.65 73.228 90.389 73.377 89.156 73.609 C 87.592 73.904 86.054 74.282 84.443 74.639 Z  M 37.696 65.968 L 52.873 64.113 C 47.623 63.793 42.614 64.658 37.696 65.968 Z  M 87.109 77.109 L 87.156 77.349 C 87.389 77.341 87.629 77.358 87.854 77.319 C 88.884 77.144 89.9 76.904 90.939 76.778 C 94.858 76.3 98.784 75.859 102.706 75.395 C 102.834 75.38 102.943 75.26 103.062 75.189 C 102.934 75.122 102.802 74.993 102.679 74.998 C 101.321 75.057 99.948 75.053 98.613 75.23 C 95.729 75.612 92.863 76.08 89.995 76.536 C 89.024 76.691 88.071 76.916 87.109 77.109 M 165.968 103.147 C 158.917 104.305 151.754 104.725 144.59 105.137 C 151.827 105.209 158.996 104.829 165.968 103.147 Z  M 89.009 78.03 C 89.441 78.071 89.64 78.133 89.808 78.099 C 91.349 77.788 92.947 78.195 94.532 77.659 C 95.717 77.258 97.182 77.356 98.526 77.268 C 98.809 77.249 99.11 77.387 99.402 77.453 C 99.665 76.565 100.709 77.719 101.171 77.042 C 101.267 76.902 102.147 77.138 102.657 77.109 C 102.943 77.093 103.211 76.89 103.488 76.771 C 103.302 76.641 103.128 76.415 102.928 76.4 C 102.345 76.357 101.749 76.372 101.162 76.41 C 97.139 76.673 93.174 77.208 89.009 78.03 Z  M 153.199 109.886 C 153.195 109.829 153.191 109.771 153.188 109.714 C 152.408 109.754 151.63 109.815 150.85 109.833 C 145.9 109.943 140.95 110.032 136.001 110.164 C 135.447 110.179 134.904 110.427 134.355 110.566 C 134.386 110.651 134.416 110.735 134.447 110.819 C 140.73 110.916 146.976 110.534 153.199 109.886 Z  M 114.92 50.82 C 100.509 51.327 86.209 52.494 72.207 55.434 C 86.243 52.697 100.563 51.647 114.92 50.82 Z  M 121.258 55.054 C 121.258 54.995 121.259 54.937 121.259 54.879 C 120.44 54.699 119.622 54.517 118.801 54.344 C 118.733 54.33 118.642 54.405 118.563 54.404 C 117.489 54.383 116.415 54.357 115.341 54.329 C 114.987 54.32 114.633 54.305 114.279 54.289 C 113.633 54.258 112.985 54.184 112.34 54.2 C 111.506 54.221 110.674 54.306 109.842 54.374 C 109.119 54.432 108.396 54.491 107.678 54.576 C 107.325 54.617 106.979 54.707 106.639 54.797 C 106.531 54.825 106.371 54.928 106.377 54.987 C 106.387 55.069 106.514 55.189 106.618 55.211 C 106.806 55.249 107.014 55.232 107.214 55.229 C 108.419 55.208 109.625 55.172 110.83 55.166 C 111.607 55.162 112.384 55.218 113.16 55.214 C 114.287 55.209 115.413 55.175 116.54 55.152 C 118.113 55.12 119.685 55.087 121.258 55.054 Z  M 137.559 119.011 C 137.556 119.043 137.553 119.075 137.55 119.107 C 138.191 119.204 138.827 119.357 139.474 119.388 C 142.623 119.539 145.76 119.329 148.9 119.162 C 150.095 119.099 151.301 119.183 152.501 119.153 C 153.227 119.135 154.141 119.214 154.616 118.908 C 155.053 118.627 155.428 118.583 155.862 118.56 C 156.27 118.539 156.697 118.69 157.096 118.649 C 157.571 118.601 158.026 118.43 158.49 118.311 C 158.609 118.28 158.726 118.244 158.843 118.211 C 158.729 118.124 158.616 117.967 158.499 117.965 C 158.018 117.959 157.536 117.993 157.055 118.025 C 153.84 118.237 150.629 118.493 147.409 118.655 C 144.13 118.821 140.843 118.896 137.559 119.011 M 138.388 106.568 C 141.843 107.292 158.64 106.606 162.823 104.886 C 162.52 104.913 162.325 104.928 162.132 104.948 C 158.279 105.334 154.436 105.806 150.571 106.082 C 146.992 106.338 143.397 106.608 139.789 106.307 C 139.407 106.276 138.997 106.449 138.388 106.568 Z  M 124.848 114.129 C 134.05 114.769 144.462 114.671 154.324 113.614 C 144.437 113.787 134.028 113.968 124.848 114.129 Z  M 156.944 116.669 C 152.306 116.888 147.741 117.189 143.168 117.296 C 138.56 117.404 133.945 117.32 129.333 117.32 C 129.333 117.385 129.333 117.451 129.334 117.516 C 131.778 118.441 153.584 117.783 156.944 116.669 Z  M 142.229 63.407 C 142.595 63.636 142.961 63.865 143.465 64.18 C 143.231 63.673 143.076 63.336 142.941 63.041 C 142.7 63.166 142.454 63.294 142.208 63.422 C 142.516 62.774 142.359 62.418 141.264 62.227 C 141.602 62.646 141.91 63.029 142.229 63.407 M 59.538 117.396 C 59.306 117.377 59.074 117.358 58.842 117.339 C 58.62 117.32 58.399 117.285 58.176 117.285 C 57.998 117.285 57.673 117.307 57.664 117.353 C 57.571 117.79 57.475 118.058 56.745 117.821 C 56.426 117.718 55.917 117.908 55.526 118.028 C 54.999 118.188 54.958 118.018 54.995 117.672 C 55.006 117.565 54.842 117.446 54.757 117.332 C 54.691 117.407 54.646 117.515 54.555 117.551 C 54.157 117.707 53.744 117.966 53.339 117.962 C 51.814 117.947 50.288 117.766 48.767 117.792 C 46.483 117.83 44.205 118.063 41.922 118.084 C 37.355 118.127 32.804 118.912 28.226 118.319 C 26.369 118.079 24.465 117.9 22.699 117.424 C 20.994 116.965 19.413 116.196 17.824 115.497 C 15.263 114.372 12.776 113.15 10.725 111.465 C 7.996 109.223 5.509 106.851 4.146 103.87 C 3.596 102.666 2.896 101.502 2.42 100.282 C 2.089 99.435 1.79 98.506 1.893 97.645 C 2.068 96.173 1.672 94.78 1.386 93.368 C 0.448 88.735 1.257 84.274 3.395 79.927 C 4.676 77.321 6.211 74.817 8.051 72.427 C 10.515 69.225 13.553 66.41 17.253 64.058 C 19.192 62.825 21.173 61.643 23.533 60.895 C 26.084 60.085 28.525 59.052 31.103 58.309 C 35.342 57.087 39.676 56.049 44.247 56.029 C 47.565 56.015 50.883 56.18 54.201 56.232 C 56.113 56.262 58.026 56.211 59.938 56.222 C 63.964 56.243 67.795 55.334 71.631 54.583 C 79.805 52.983 88.046 51.754 96.434 51.144 C 101.503 50.776 106.562 50.257 111.642 50.055 C 118.496 49.782 125.196 50.493 131.395 53.017 C 134.671 54.351 137.474 56.202 140.077 58.254 C 142.432 60.109 144.951 61.84 147.208 63.763 C 148.909 65.214 150.941 66.295 152.91 67.452 C 154.29 68.263 155.785 68.957 157.259 69.664 C 161.028 71.472 165.282 72.318 169.393 73.454 C 172.51 74.315 175.566 75.311 178.64 76.265 C 178.819 76.32 178.914 76.541 179.055 76.68 C 179.092 76.717 179.157 76.758 179.209 76.758 C 180.002 76.755 180.563 77.054 181.114 77.493 C 181.478 77.784 182.137 77.834 182.552 78.1 C 184.451 79.316 186.445 80.467 188.145 81.841 C 189.621 83.035 190.871 84.437 191.996 85.857 C 193.139 87.301 194.125 88.842 194.963 90.412 C 195.812 92.005 196.463 93.67 197.08 95.331 C 198.303 98.625 198.686 102.013 198.27 105.413 C 197.845 108.883 196.588 112.212 194.733 115.382 C 194 116.635 193.156 117.853 192.28 119.049 C 191.818 119.68 191.158 120.219 190.624 120.82 C 190.256 121.234 189.982 121.702 189.611 122.114 C 187.498 124.466 184.797 126.345 181.876 128.046 C 181.353 128.351 180.868 128.695 180.358 129.014 C 180.203 129.112 180.03 129.199 179.851 129.267 C 178.256 129.875 176.653 130.47 175.066 131.091 C 174.826 131.185 174.69 131.469 174.449 131.533 C 173.675 131.739 172.853 131.847 172.302 132.392 C 171.892 131.991 171.658 132.529 171.637 132.524 C 170.601 132.279 170.252 133.159 169.485 133.319 C 169.183 133.382 168.885 133.549 168.594 133.536 C 168.274 133.522 167.847 134.106 167.619 133.461 C 167.349 133.592 167.081 133.725 166.808 133.852 C 166.486 134.001 166.16 134.145 165.748 134.171 C 165.889 134.09 166.031 134.008 166.172 133.926 C 160.434 135.024 154.694 136.018 148.722 135.561 C 148.728 135.649 148.734 135.736 148.741 135.824 C 151.91 135.753 155.081 135.682 158.251 135.611 C 158.256 135.619 158.261 135.627 158.266 135.635 C 156.975 135.742 155.687 135.887 154.392 135.948 C 148.624 136.219 143.041 135.419 137.631 133.925 C 133.778 132.86 130.015 131.593 126.205 130.429 C 124.244 129.829 122.258 129.278 120.304 128.664 C 119.446 128.394 118.663 127.975 117.804 127.707 C 116.642 127.345 115.436 127.071 114.257 126.742 C 113.269 126.466 112.195 126.278 111.355 125.826 C 110.993 125.631 110.745 125.651 110.424 125.585 C 110.233 125.546 110.11 125.32 109.936 125.196 C 109.853 125.137 109.646 125.068 109.623 125.089 C 109.212 125.468 108.84 125.197 108.42 125.093 C 106.546 124.631 104.668 124.179 102.777 123.765 C 100.415 123.247 98.056 122.712 95.667 122.288 C 92.982 121.813 90.272 121.417 87.558 121.055 C 84.908 120.701 82.242 120.419 79.578 120.131 C 77.395 119.896 75.201 119.718 73.019 119.478 C 72.137 119.381 71.277 119.164 70.398 119.05 C 70.032 119.003 69.597 119.177 69.267 119.085 C 68.421 118.852 67.472 119.066 66.653 118.622 C 66.367 118.466 65.772 118.711 65.338 118.662 C 64.882 118.61 64.45 118.424 64.006 118.3 C 63.94 118.281 63.846 118.256 63.796 118.278 C 63.09 118.593 62.586 118.427 62.44 117.99 C 61.985 118.014 61.598 118.049 61.21 118.05 C 60.851 118.052 60.481 117.964 60.136 118.01 C 59.372 118.112 59.453 117.77 59.55 117.393 C 59.689 117.536 59.843 117.813 59.954 117.803 C 60.355 117.766 60.742 117.637 61.128 117.529 C 61.174 117.516 61.227 117.393 61.203 117.369 C 61.138 117.308 61.026 117.229 60.945 117.236 C 60.474 117.276 60.006 117.34 59.538 117.396" fill="rgb(0,0,0)"/><path d=" M 131.616 126.912 C 127.792 121.141 123.121 116.251 116.998 112.87 C 123.35 116.013 127.98 120.946 131.616 126.912 Z  M 133.65 128.941 C 132.883 127.188 131.771 125.502 130.614 123.842 C 128.042 120.155 124.937 116.993 121.278 114.379 C 118.721 112.552 115.999 111.13 112.818 110.711 C 111.799 110.577 111.082 110.933 110.448 111.628 C 110.094 112.017 110.196 112.764 110.623 112.776 C 111.708 112.807 112.451 113.526 113.315 113.981 C 115.938 115.358 118.513 116.813 120.823 118.697 C 123.628 120.985 126.018 123.652 128.163 126.552 C 129.17 127.913 130.207 129.254 131.107 130.692 C 131.226 130.881 131.56 130.907 131.53 131.229 C 131.527 131.264 131.61 131.31 131.657 131.345 C 131.808 131.457 133.369 131.186 133.482 131.029 C 134.011 130.295 134.044 129.983 133.65 128.941 Z " fill="rgb(129, 204, 194)"/><path d=" M 113.505 121.015 C 113.533 120.967 113.561 120.92 113.589 120.873 C 114.044 121.137 114.499 121.401 114.954 121.665 C 114.93 121.705 114.906 121.745 114.883 121.785 C 114.424 121.528 113.964 121.271 113.505 121.015 Z  M 115.856 122.326 C 117.641 123.458 119.329 124.715 120.657 126.392 C 119.201 124.869 117.541 123.588 115.856 122.326 Z  M 110.316 120.547 C 110.321 121.335 110.847 121.494 111.399 121.708 C 111.921 121.91 112.262 122.418 112.784 122.682 C 113.427 123.008 114.105 123.37 114.619 123.821 C 115.012 124.166 115.579 124.208 115.879 124.72 C 116.12 125.13 116.543 125.485 117.093 125.559 C 117.323 125.59 117.393 125.807 117.527 125.957 C 117.869 126.341 118.176 126.783 118.753 126.861 C 118.842 126.873 118.974 126.948 118.995 127.019 C 119.19 127.709 119.92 127.816 120.335 128.264 C 120.528 128.472 120.804 128.47 121.079 128.39 C 121.316 128.32 121.761 128.308 121.772 128.224 C 121.836 127.762 122.02 127.328 121.68 126.813 C 120.484 125.001 118.871 123.644 117.146 122.391 C 115.404 121.126 113.51 120.132 111.526 119.309 C 110.758 118.99 109.959 118.755 109.124 118.673 C 108.529 118.615 108.105 118.941 107.699 119.305 C 107.544 119.444 107.529 119.625 107.604 119.81 C 107.673 119.983 107.826 120.022 107.995 120.056 C 108.599 120.175 109.266 120.141 109.655 120.784 C 109.736 120.917 109.948 121.034 110.138 120.975 C 110.319 120.918 110.067 120.714 110.316 120.547 Z " fill="rgb(129, 204, 194)"/><path d=" M 107.302 126.193 C 106.845 126.125 106.543 126.264 106.273 126.081 C 106.163 126.007 105.943 125.955 106.05 125.758 C 106.137 125.6 106.325 125.591 106.478 125.675 C 106.703 125.799 106.914 125.947 107.302 126.193 Z  M 109.083 127.036 C 110.254 127.624 111.378 128.282 112.196 129.351 C 111.234 128.475 110.147 127.773 109.083 127.036 Z  M 107.344 127.589 C 107.103 128.01 107.298 128.077 107.634 128.284 C 108.155 128.604 108.666 128.999 109.235 129.147 C 109.962 129.337 110.33 130.022 111.027 130.215 C 111.621 130.378 112.319 130.099 112.592 129.622 C 112.829 129.21 112.553 129.001 112.359 128.769 C 111.336 127.549 109.994 126.776 108.564 126.147 C 107.53 125.692 106.435 125.412 105.35 125.107 C 104.997 125.007 104.963 125.163 105.024 125.447 C 105.051 125.574 105.161 125.709 105.002 125.877 C 104.821 125.718 104.646 125.565 104.472 125.41 C 104.431 125.372 104.361 125.328 104.361 125.288 C 104.362 124.834 104.276 124.773 103.69 124.859 C 103.793 125.043 104.055 125.02 104.119 125.229 C 104.011 125.486 103.759 124.968 103.654 125.298 C 103.565 125.578 103.75 125.897 103.885 125.934 C 104.392 126.072 104.605 126.572 105.053 126.774 C 105.189 126.836 105.114 127.23 105.478 127.101 C 105.678 127.031 105.97 127.376 106.11 126.97 C 106.122 127.238 106.42 127.213 106.5 127.322 C 106.725 127.625 107.014 127.58 107.344 127.589 Z " fill="rgb(129, 204, 194)"/></g></svg>