<?xml version="1.0" encoding="UTF-8" standalone="no"?><!-- Generator: Gravit.io --><svg xmlns="http://www.w3.org/2000/svg" xmlns:xlink="http://www.w3.org/1999/xlink" style="isolation:isolate" viewBox="0 0 200 200" width="200pt" height="200pt"><defs><clipPath id="_clipPath_fsb70bH0i7M1h5sz5mw5CYpchCh7AiZK"><rect width="200" height="200"/></clipPath></defs><g clip-path="url(#_clipPath_fsb70bH0i7M1h5sz5mw5CYpchCh7AiZK)"><path d=" M 119.338 53.224 C 119.149 53.315 118.885 53.551 118.631 53.541 C 118.075 53.519 117.553 53.658 117.027 53.762 C 116.532 53.86 116.02 53.879 115.54 54.006 C 114.894 54.177 114.24 54.315 113.597 54.498 C 112.873 54.704 112.126 54.852 111.429 55.128 C 110.813 55.372 110.196 55.611 109.58 55.854 C 108.965 56.097 108.331 56.315 107.737 56.588 C 106.111 57.336 104.419 57.905 102.753 58.542 C 102.134 58.779 101.505 59.077 100.861 59.141 C 100.087 59.217 99.385 59.647 98.589 59.544 C 98.008 60.048 97.205 59.76 96.579 60.105 C 95.542 60.105 94.526 60.4 93.479 60.303 C 93.196 60.276 92.909 60.259 92.599 60.432 C 92.349 60.571 91.948 60.453 91.616 60.423 C 91.445 60.408 91.282 60.309 91.111 60.297 C 90.42 60.245 89.735 60.301 89.032 60.14 C 88.379 59.99 87.707 59.882 87.045 59.739 C 85.709 59.45 84.412 59.045 83.162 58.508 C 80.835 57.507 78.785 56.067 76.954 54.338 C 75.905 53.347 74.924 52.28 73.939 51.219 C 72.344 49.5 70.756 47.749 68.884 46.313 C 68.216 45.801 67.489 45.338 66.728 44.984 C 65.493 44.409 64.278 44.205 62.935 44.225 C 62.304 44.235 61.669 44.124 61.042 44.388 C 60.777 44.499 60.424 44.382 60.116 44.413 C 59.796 44.445 59.464 44.486 59.169 44.604 C 58.775 44.762 58.311 44.667 57.972 44.864 C 57.434 45.176 56.825 45.265 56.265 45.484 C 55.595 45.746 54.903 45.984 54.273 46.319 C 53.635 46.659 52.984 46.978 52.367 47.375 C 50.508 48.575 48.739 49.88 47.117 51.385 C 46.989 51.504 46.844 51.63 46.684 51.687 C 46.409 51.784 46.417 52.065 46.264 52.227 C 46.106 52.394 45.796 52.456 45.705 52.639 C 45.435 53.182 44.941 53.505 44.566 53.941 C 44.191 54.377 43.807 54.806 43.445 55.254 C 43.091 55.693 42.756 56.149 42.422 56.604 C 42.147 56.978 41.691 57.24 41.685 57.974 C 41.724 57.988 41.9 58.051 42.075 58.114 C 41.9 58.289 41.79 58.399 41.68 58.51 C 41.75 58.599 41.821 58.688 41.942 58.84 C 41.124 59.451 40.778 60.318 40.457 61.213 C 40.321 61.591 40.069 61.928 39.857 62.305 C 39.868 62.318 39.93 62.385 39.984 62.445 C 39.718 63.212 39.5 63.994 39.176 64.731 C 38.898 65.365 38.673 66.019 38.39 66.648 C 38.104 67.285 37.72 67.884 37.737 68.62 C 37.186 69.437 37.195 70.453 36.79 71.309 C 36.593 71.723 36.828 72.306 36.264 72.514 C 36.66 73.021 36.228 73.312 36.094 73.674 C 36.363 73.858 36.308 74.179 36.223 74.411 C 36.029 74.944 35.971 75.494 35.877 76.043 C 35.78 76.605 35.629 77.159 35.688 77.741 C 35.713 77.988 35.797 78.346 35.673 78.468 C 35.316 78.816 35.737 79.353 35.318 79.642 L 35.318 80.95 C 35.318 81.105 35.38 81.303 35.307 81.409 C 35.058 81.773 35.165 82.169 35.126 82.554 C 35.088 82.935 34.953 83.312 34.957 83.691 C 34.963 84.276 34.75 84.785 34.517 85.289 C 33.849 86.729 32.848 87.94 31.806 89.116 C 31.384 89.592 30.85 89.965 30.39 90.398 C 29.255 91.463 28.113 92.517 26.891 93.481 C 26.305 93.945 25.734 94.43 25.126 94.863 C 24.411 95.373 23.674 95.855 22.925 96.317 C 22.41 96.634 21.842 96.869 21.327 97.188 C 20.733 97.555 20.158 97.942 19.526 98.254 C 18.904 98.561 18.358 99.005 17.723 99.314 C 17.145 99.594 16.642 100.029 16.092 100.406 C 16.09 100.404 16.027 100.35 15.989 100.318 C 15.861 100.495 15.778 100.729 15.616 100.815 C 14.42 101.448 13.501 102.405 12.545 103.33 C 11.504 104.338 10.75 105.539 10.096 106.805 C 9.245 108.452 8.412 110.114 8.191 111.995 C 7.852 112.373 8.211 112.882 8.01 113.224 C 7.743 113.678 7.795 114.147 7.877 114.555 C 7.98 115.064 8.046 115.56 8.03 115.983 C 8.179 116.291 8.344 116.514 8.397 116.761 C 8.552 117.494 8.93 118.115 9.358 118.698 C 10.091 119.698 10.716 120.792 11.777 121.519 C 12.081 121.727 12.273 122.102 12.583 122.293 C 14.143 123.255 15.642 124.316 17.282 125.151 C 18.676 125.861 20.085 126.49 21.612 126.891 C 22.602 127.151 23.607 127.398 24.602 127.528 C 25.771 127.681 26.963 127.88 28.163 127.765 C 28.564 127.726 28.975 127.73 29.377 127.764 C 30.7 127.874 32.007 127.651 33.315 127.539 C 33.813 127.497 34.388 127.541 34.809 127.343 C 35.236 127.142 35.641 127.303 36.038 127.148 C 36.442 126.992 36.877 126.88 37.307 126.835 C 38.042 126.758 38.731 126.505 39.443 126.343 C 40.235 126.163 41.018 125.949 41.795 125.709 C 42.819 125.392 43.854 125.111 44.887 124.827 C 45.895 124.55 46.907 124.29 47.917 124.021 C 48.734 123.803 49.574 123.649 50.377 123.408 C 51.36 123.113 52.378 123.017 53.362 122.735 C 53.717 122.634 54.116 122.628 54.496 122.544 C 54.897 122.454 55.343 122.601 55.723 122.339 C 56.58 122.417 57.417 122.208 58.262 122.168 C 59.076 122.129 59.898 122.076 60.713 122.32 C 61.084 122.431 61.616 122.189 61.897 122.376 C 62.274 122.626 62.673 122.375 63.019 122.635 C 63.321 122.862 63.803 122.575 64.119 122.9 C 65.561 123.042 66.85 123.686 68.131 124.265 C 69.506 124.885 70.838 125.615 72.035 126.591 C 72.964 127.346 73.97 128.008 74.826 128.857 C 76.373 130.392 77.876 131.964 79.265 133.648 C 79.918 134.438 80.574 135.231 81.249 136.001 C 82.112 136.982 82.919 138.015 83.826 138.95 C 84.896 140.053 85.939 141.185 87.147 142.162 C 87.967 142.825 88.764 143.526 89.596 144.177 C 90.29 144.721 91.016 145.234 91.772 145.688 C 92.444 146.092 93.073 146.559 93.779 146.922 C 94.496 147.291 95.18 147.748 95.901 148.124 C 97.178 148.789 98.458 149.451 99.79 150.011 C 100.747 150.413 101.706 150.801 102.694 151.121 C 104.177 151.601 105.654 152.097 107.138 152.572 C 107.856 152.801 108.595 153.038 109.323 153.135 C 110.149 153.245 110.919 153.685 111.779 153.549 C 112.944 153.991 114.204 153.964 115.398 154.278 C 115.878 154.405 116.4 154.321 116.912 154.456 C 117.389 154.582 117.912 154.545 118.42 154.645 C 119.032 154.766 119.67 154.714 120.305 154.826 C 121.133 154.971 121.993 154.934 122.842 155.011 C 124.769 155.187 126.72 154.877 128.648 155.23 C 129.416 155.371 130.147 155.036 130.906 155.043 C 131.809 155.05 132.713 155.058 133.616 155.04 C 134.495 155.023 135.367 155.021 136.253 154.893 C 137.361 154.733 138.5 154.858 139.631 154.694 C 140.804 154.525 142.005 154.546 143.194 154.484 C 143.256 154.481 143.344 154.51 143.377 154.479 C 143.689 154.185 144.077 154.275 144.423 154.311 C 144.836 154.354 145.181 154.153 145.562 154.113 C 146.283 154.039 147.006 153.985 147.727 153.924 C 147.789 153.919 147.886 153.949 147.909 153.919 C 148.146 153.606 148.483 153.788 148.77 153.735 C 149.088 153.678 149.402 153.595 149.722 153.553 C 150.286 153.478 150.893 153.531 151.41 153.337 C 152.132 153.065 152.904 153.091 153.625 152.826 C 153.937 152.712 154.318 152.683 154.663 152.639 C 155.048 152.591 155.42 152.513 155.799 152.438 C 156.918 152.218 158.002 151.862 159.126 151.65 C 159.735 151.535 160.317 151.235 160.949 151.095 C 161.593 150.953 162.176 150.553 162.871 150.558 C 163.321 150.141 163.943 150.139 164.467 149.9 C 165.018 149.649 165.611 149.53 166.174 149.282 C 167.306 148.785 168.447 148.303 169.571 147.785 C 171.043 147.108 172.451 146.309 173.887 145.566 C 174.768 145.109 175.602 144.582 176.432 144.06 C 177.353 143.481 178.26 142.864 179.136 142.202 C 179.736 141.749 180.282 141.233 180.887 140.802 C 181.47 140.386 181.986 139.896 182.546 139.46 C 182.986 139.118 183.348 138.678 183.745 138.282 C 184.141 137.885 184.489 137.417 184.947 137.112 C 185.413 136.801 185.599 136.325 185.914 135.926 C 185.933 135.902 185.957 135.881 185.98 135.86 C 187.089 134.831 187.896 133.565 188.757 132.339 C 189.615 131.12 190.8 128.736 191.394 127.358 C 191.775 126.473 192.037 125.564 192.301 124.65 C 192.447 124.147 192.687 123.623 192.649 123.127 C 192.585 122.298 192.939 121.504 192.704 120.656 C 192.548 120.092 192.642 119.471 192.527 118.865 C 192.395 118.166 192.191 117.498 191.912 116.87 C 191.466 115.867 190.801 114.988 190.042 114.186 C 189.332 113.435 188.498 112.835 187.689 112.2 C 186.624 111.364 185.492 110.627 184.292 110.018 C 182.753 109.235 181.227 108.419 179.591 107.834 C 178.645 107.496 177.766 106.955 176.809 106.661 C 175.506 106.261 174.314 105.612 173.053 105.121 C 171.929 104.683 170.885 104.04 169.807 103.485 C 168.67 102.899 167.65 102.133 166.707 101.289 C 165.911 100.578 165.209 99.752 164.523 98.929 C 164.074 98.391 163.657 97.802 163.357 97.173 C 163.062 96.553 162.796 95.908 162.508 95.285 C 162.167 94.546 161.934 93.77 161.685 93.011 C 161.424 92.215 161.246 91.37 161.118 90.54 C 160.968 89.569 160.837 88.588 160.75 87.612 C 160.668 86.677 160.401 85.749 160.532 84.795 C 160.545 84.704 160.574 84.574 160.527 84.521 C 160.196 84.143 160.41 83.695 160.347 83.284 C 160.284 82.875 160.201 82.466 160.165 82.054 C 160.088 81.178 160.035 80.299 159.974 79.422 C 159.971 79.391 159.983 79.356 159.972 79.329 C 159.53 78.26 159.668 77.062 159.226 75.994 C 159.355 75.583 158.993 75.239 159.051 74.859 C 159.114 74.442 158.912 74.095 158.834 73.723 C 158.663 72.902 158.414 72.097 158.167 71.293 C 157.963 70.633 157.7 69.996 157.391 69.372 C 157.071 68.726 156.829 68.055 156.446 67.423 C 155.563 65.966 154.619 64.566 153.409 63.364 C 152.627 62.586 151.852 61.779 150.965 61.135 C 150.067 60.483 149.166 59.825 148.218 59.229 C 146.737 58.3 145.16 57.575 143.631 56.752 C 143.107 56.774 142.727 56.378 142.237 56.275 C 141.791 56.181 141.355 55.999 140.944 55.798 C 140.498 55.58 140.022 55.463 139.561 55.3 C 138.963 55.089 138.374 54.792 137.757 54.705 C 136.272 54.494 134.9 53.786 133.382 53.751 C 133.088 53.341 132.581 53.72 132.205 53.409 C 131.941 53.191 131.48 53.442 131.072 53.227 C 130.731 53.047 130.218 53.212 129.784 53.182 C 129.526 53.164 129.277 53.039 129.019 53.01 C 128.713 52.975 128.4 53.008 128.093 52.977 C 127.996 52.968 127.911 52.846 127.885 52.827 C 127.635 52.903 127.471 52.994 127.306 52.996 C 126.341 53.01 125.374 52.979 124.409 53.01 C 123.469 53.04 122.529 53.122 121.59 53.192 C 121.115 53.228 120.635 53.096 120.16 53.354 C 119.981 53.451 119.659 53.283 119.338 53.224 Z  M 162.673 73.163 C 162.814 73.777 162.84 74.242 163.028 74.629 C 163.331 75.252 163.317 75.936 163.515 76.576 C 163.636 76.967 163.588 77.425 163.765 77.779 C 163.888 78.027 163.893 78.241 163.893 78.474 C 163.893 79.194 164.008 79.883 164.248 80.57 C 164.381 80.949 164.32 81.38 164.425 81.8 C 164.607 82.523 164.585 83.297 164.644 84.05 C 164.668 84.345 164.631 84.625 164.809 84.921 C 164.932 85.128 164.832 85.468 164.832 85.748 C 164.832 86.06 164.743 86.412 164.86 86.67 C 164.958 86.883 164.942 87.108 164.984 87.3 C 165.128 87.972 165.133 88.674 165.21 89.362 C 165.249 89.713 165.342 90.057 165.39 90.407 C 165.438 90.758 165.276 91.146 165.58 91.45 C 165.543 92.265 165.907 93.014 165.965 93.817 C 166.002 94.337 166.402 94.785 166.336 95.342 C 166.943 96.165 167.065 97.229 167.712 98.046 C 168.282 98.766 168.807 99.485 169.533 100.097 C 170.429 100.852 171.463 101.34 172.433 101.94 C 172.953 102.261 173.572 102.484 174.161 102.717 C 174.75 102.95 175.35 103.162 175.916 103.441 C 176.486 103.721 177.083 103.962 177.665 104.178 C 178.665 104.549 179.661 104.932 180.634 105.359 C 182.085 105.996 183.517 106.68 184.924 107.408 C 185.776 107.848 186.547 108.443 187.389 108.906 C 188.372 109.446 189.251 110.139 190.151 110.788 C 191.04 111.429 191.8 112.252 192.599 113.013 C 194.143 114.483 195.309 116.226 196.083 118.202 C 196.419 119.06 196.683 119.952 196.835 120.892 C 196.988 121.845 196.922 122.778 196.969 123.718 C 196.982 123.976 197.091 124.277 196.806 124.498 C 196.78 124.518 196.992 124.773 196.955 124.862 C 196.847 125.126 196.84 125.401 196.799 125.668 C 196.75 125.989 196.741 126.301 196.639 126.628 C 196.551 126.912 196.394 127.091 196.312 127.195 C 196.349 127.483 196.448 127.707 196.385 127.867 C 195.72 129.586 195.109 131.324 194.185 132.937 C 193.399 134.309 192.593 135.668 191.632 136.92 C 190.302 138.653 187.974 141.172 186.279 142.64 C 184.841 143.884 183.439 145.19 181.737 146.096 C 181.658 146.137 181.644 146.3 181.586 146.44 C 181.519 146.388 181.459 146.342 181.398 146.295 C 180.837 146.901 180.16 147.36 179.435 147.758 C 178.901 148.051 178.367 148.346 177.85 148.667 C 177.233 149.05 176.594 149.377 175.914 149.636 C 175.679 149.726 175.515 150 175.28 150.095 C 174.639 150.354 174.017 150.658 173.39 150.944 C 172.864 151.185 172.402 151.563 171.879 151.811 C 171.466 152.008 171.001 152.094 170.564 152.244 C 170.32 152.329 170.094 152.466 169.848 152.543 C 169.641 152.608 169.455 152.884 169.2 152.638 C 169.018 152.786 168.904 152.992 168.599 153.01 C 168.364 153.025 168.149 153.256 167.91 153.357 C 167.698 153.446 167.463 153.478 167.243 153.551 C 166.998 153.634 166.762 153.799 166.515 153.812 C 166.154 153.832 165.88 153.945 165.591 154.165 C 165.375 154.33 165.059 154.393 164.777 154.438 C 163.967 154.565 163.267 155.109 162.41 155.044 C 161.908 155.461 161.248 155.386 160.675 155.59 C 160.129 155.784 159.512 155.791 158.977 156.006 C 158.71 156.113 158.403 156.057 158.219 156.189 C 157.984 156.358 157.767 156.322 157.534 156.358 C 157.276 156.397 157.027 156.5 156.769 156.533 C 156.523 156.564 156.268 156.516 156.023 156.548 C 155.891 156.566 155.772 156.679 155.658 156.743 C 155.535 156.663 155.437 156.599 155.343 156.537 C 155.279 156.553 155.208 156.55 155.169 156.584 C 154.987 156.738 154.866 156.94 154.556 156.929 C 154.273 156.918 153.988 157.057 153.699 157.094 C 153.435 157.129 153.145 157.039 152.936 157.287 C 152.412 157.185 151.931 157.437 151.425 157.471 C 151.068 157.495 150.723 157.467 150.373 157.644 C 150.096 157.784 149.7 157.52 149.422 157.832 C 149.393 157.864 149.305 157.844 149.244 157.848 C 148.336 157.91 147.427 157.962 146.519 158.039 C 146.107 158.075 145.698 158.159 145.288 158.222 C 144.908 158.279 144.498 158.084 144.141 158.397 C 144.053 158.474 143.84 158.408 143.684 158.408 C 143.31 158.408 142.917 158.481 142.568 158.388 C 142.214 158.293 141.922 158.868 141.587 158.431 C 141.309 158.692 140.964 158.579 140.646 158.592 C 140.273 158.607 139.869 158.503 139.53 158.613 C 138.532 158.937 137.517 158.794 136.52 158.759 C 135.286 158.717 134.089 159.031 132.858 158.98 C 131.615 158.929 130.367 158.96 129.122 158.973 C 128.3 158.981 127.51 158.703 126.675 158.768 C 125.87 158.832 125.034 158.899 124.254 158.749 C 123.46 158.597 122.681 158.644 121.896 158.589 C 121.514 158.562 121.139 158.456 120.758 158.412 C 120.374 158.369 119.963 158.507 119.621 158.222 C 118.942 158.366 118.315 157.947 117.643 158.038 C 117.299 158.084 117.006 157.932 116.69 157.857 C 116.378 157.782 116.065 157.829 115.73 157.691 C 115.277 157.506 114.733 157.547 114.232 157.469 C 114.035 157.438 113.851 157.319 113.654 157.292 C 112.781 157.175 111.932 156.957 111.083 156.731 C 109.846 156.402 108.584 156.155 107.37 155.762 C 106.905 155.611 106.41 155.564 105.958 155.34 C 105.523 155.123 105.033 155.019 104.571 154.856 C 104.055 154.675 103.538 154.493 103.028 154.295 C 102.116 153.941 101.216 153.556 100.298 153.217 C 98.183 152.435 96.199 151.376 94.191 150.368 C 93.75 150.147 93.346 149.854 92.908 149.628 C 91.691 149 90.617 148.135 89.386 147.531 C 88.402 146.513 87.067 145.958 86.046 144.971 C 85.277 144.229 84.3 143.702 83.535 142.956 C 82.546 141.992 81.442 141.127 80.674 139.948 C 80.591 139.82 80.454 139.729 80.348 139.615 C 79.664 138.871 78.952 138.15 78.308 137.374 C 77.613 136.535 76.891 135.719 76.202 134.879 C 75.332 133.818 74.45 132.776 73.482 131.805 C 73.164 131.487 72.94 131.074 72.611 130.771 C 71.329 129.588 70.093 128.324 68.556 127.482 C 67.322 126.807 66.084 126.115 64.645 125.858 C 63.949 125.734 63.258 125.596 62.558 125.481 C 61.923 125.376 61.3 125.316 60.668 125.338 C 60.256 125.352 59.849 125.479 59.436 125.509 C 59.003 125.541 58.53 125.413 58.138 125.545 C 57.748 125.675 57.338 125.594 57.003 125.73 C 56.642 125.876 56.279 125.798 55.953 125.905 C 55.228 126.145 54.466 126.173 53.732 126.394 C 53.13 126.575 52.475 126.663 51.85 126.825 C 51.007 127.044 50.171 127.293 49.322 127.485 C 48.017 127.78 46.75 128.209 45.453 128.533 C 44.214 128.842 42.997 129.248 41.735 129.472 C 41.415 129.82 40.937 129.528 40.551 129.788 C 40.262 129.983 39.809 129.933 39.432 130.003 C 39.144 130.056 38.863 130.145 38.574 130.182 C 38.309 130.216 38.024 130.13 37.806 130.371 C 37.778 130.402 37.686 130.371 37.624 130.376 C 36.84 130.437 36.031 130.398 35.279 130.586 C 34.208 130.854 33.143 130.669 32.08 130.752 C 31.818 130.772 31.543 130.658 31.297 130.91 C 31.204 131.004 30.921 130.987 30.759 130.927 C 29.863 130.593 28.937 130.826 28.03 130.745 C 27.587 130.705 27.147 130.628 26.706 130.561 C 26.296 130.498 25.896 130.591 25.458 130.417 C 25.081 130.268 24.588 130.308 24.149 130.198 C 23.719 130.091 23.235 130.145 22.835 129.983 C 22.178 129.717 21.469 129.742 20.804 129.473 C 20.172 129.217 19.462 129.118 18.807 128.879 C 18.293 128.692 17.765 128.532 17.273 128.298 C 16.257 127.816 15.234 127.338 14.261 126.776 C 12.588 125.808 10.941 124.796 9.391 123.63 C 8.873 123.241 8.459 122.751 7.952 122.37 C 7.171 121.783 6.604 120.998 5.941 120.306 C 5.394 119.738 4.983 119.035 4.54 118.372 C 4.055 117.647 3.718 116.847 3.482 116.009 C 3.356 115.559 3.186 115.123 3.165 114.642 C 3.145 114.198 3.007 113.76 3 113.317 C 2.995 112.97 3.135 112.623 3.167 112.273 C 3.198 111.933 3.037 111.477 3.205 111.272 C 3.467 110.951 3.166 110.503 3.547 110.279 C 3.694 109.172 4.19 108.187 4.576 107.156 C 4.927 106.216 5.481 105.409 5.949 104.55 C 6.41 103.701 6.943 102.888 7.563 102.126 C 8.316 101.198 9.15 100.388 10.067 99.625 C 11.393 98.52 12.804 97.546 14.242 96.604 C 15.145 96.012 16.062 95.438 16.979 94.868 C 17.87 94.315 18.78 93.793 19.662 93.227 C 20.33 92.799 21.043 92.438 21.634 91.884 C 21.998 91.543 22.459 91.306 22.841 90.981 C 23.492 90.427 24.086 89.803 24.758 89.279 C 25.537 88.672 26.24 87.993 26.915 87.283 C 27.949 86.196 28.84 84.994 29.694 83.764 C 29.896 83.474 29.949 83.112 30.054 82.795 C 30.231 82.267 30.204 81.672 30.274 81.108 C 30.326 80.696 30.402 80.288 30.458 79.877 C 30.513 79.465 30.333 79.028 30.635 78.638 C 30.71 78.54 30.637 78.334 30.648 78.179 C 30.677 77.757 30.717 77.336 30.75 76.914 C 30.78 76.521 30.667 76.024 30.866 75.759 C 31.155 75.373 30.925 74.954 31.168 74.557 C 31.409 74.162 31.31 73.569 31.398 73.07 C 31.587 72 31.782 70.93 32.013 69.867 C 32.148 69.245 32.379 68.648 32.529 68.025 C 32.669 67.44 32.944 66.889 33.123 66.312 C 33.319 65.676 33.626 65.082 33.885 64.478 C 34.365 63.361 34.631 62.172 35.136 61.072 C 35.784 59.657 36.177 58.119 37.158 56.864 C 37.471 55.761 38.386 55.025 38.893 54.034 C 39.12 53.589 39.548 53.249 39.864 52.846 C 40.954 51.455 42.285 50.297 43.497 49.024 C 44.402 48.073 45.41 47.236 46.46 46.464 C 47.472 45.72 48.436 44.887 49.62 44.402 C 50.105 43.858 50.83 43.702 51.412 43.303 C 51.902 42.966 52.489 42.754 53.055 42.545 C 53.839 42.255 54.67 42.078 55.429 41.737 C 55.851 41.547 56.288 41.636 56.712 41.446 C 57.155 41.248 57.734 41.374 58.203 41.211 C 58.988 40.936 59.776 41.078 60.561 41.049 C 61.339 41.019 62.124 40.983 62.894 41.063 C 63.405 41.117 63.922 41.279 64.429 41.389 C 66.123 41.756 67.648 42.505 69.156 43.297 C 69.955 43.717 70.729 44.209 71.443 44.761 C 73.193 46.115 74.852 47.592 76.296 49.261 C 77.534 50.691 78.896 51.987 80.227 53.317 C 81.21 54.299 82.357 55.082 83.647 55.646 C 84.697 56.105 85.782 56.372 86.91 56.576 C 88.632 56.89 90.352 56.697 92.069 56.713 C 92.727 56.719 93.424 56.636 94.076 56.401 C 94.297 56.322 94.568 56.396 94.81 56.361 C 95.037 56.328 95.255 56.234 95.481 56.182 C 96.334 55.984 97.195 55.817 98.04 55.59 C 98.849 55.372 99.687 55.174 100.437 54.84 C 101.832 54.218 103.266 53.698 104.669 53.1 C 106.151 52.468 107.651 51.85 109.194 51.4 C 110.335 51.067 111.468 50.617 112.686 50.574 C 112.999 50.318 113.407 50.487 113.72 50.364 C 114.102 50.214 114.537 50.327 114.844 50.153 C 115.216 49.942 115.563 50.089 115.91 50.011 C 117.029 49.76 118.155 49.591 119.306 49.631 C 119.373 49.633 119.444 49.518 119.513 49.458 C 119.576 49.517 119.643 49.579 119.675 49.608 C 120.027 49.553 120.343 49.488 120.662 49.455 C 121.321 49.388 121.998 49.581 122.647 49.28 C 122.799 49.21 123.036 49.324 123.334 49.368 C 123.345 49.361 123.464 49.293 123.575 49.23 C 123.677 49.325 123.744 49.387 123.81 49.449 C 123.876 49.388 123.942 49.325 124.038 49.237 C 124.132 49.282 124.236 49.332 124.325 49.375 C 124.572 49.338 124.9 49.185 125.057 49.289 C 125.44 49.543 125.836 49.476 126.208 49.438 C 127.196 49.338 128.162 49.565 129.116 49.684 C 130.097 49.806 131.092 49.992 132.061 50.223 C 132.649 50.363 133.269 50.395 133.834 50.672 C 134.088 50.796 134.43 50.728 134.703 50.828 C 135.135 50.985 135.642 50.955 135.993 51.321 C 136.46 51.215 136.903 51.395 137.292 51.568 C 137.716 51.757 138.171 51.84 138.596 52.033 C 138.972 52.203 139.415 52.307 139.826 52.444 C 140.565 52.689 141.365 52.833 142.023 53.219 C 142.758 53.651 143.588 53.806 144.32 54.234 C 145.136 54.71 146.053 55.011 146.897 55.446 C 147.253 55.629 147.749 55.664 147.896 56.157 C 148.428 56.104 148.703 56.595 149.142 56.757 C 149.545 56.905 149.91 57.171 150.269 57.416 C 150.928 57.865 151.545 58.379 152.226 58.789 C 153.133 59.334 153.803 60.168 154.699 60.717 C 155.108 61.407 155.952 61.693 156.291 62.47 C 156.419 62.763 156.745 62.977 157.002 63.203 C 157.985 64.067 158.647 65.186 159.413 66.223 C 159.918 66.905 160.338 67.64 160.712 68.395 C 161.211 69.4 161.731 70.399 162.086 71.469 C 162.258 71.99 162.419 72.515 162.592 73.035 C 162.62 73.117 162.687 73.184 162.673 73.163" fill="rgb(0,0,0)"/></g></svg>